<svg width="16" height="16" viewBox="0 0 16 16" fill="none" xmlns="http://www.w3.org/2000/svg">
<path d="M8 0C6.41775 0 4.87104 0.4692 3.55545 1.34825C2.23985 2.2273 1.21447 3.47673 0.608967 4.93854C0.00346625 6.40035 -0.15496 8.00888 0.153721 9.56073C0.462403 11.1126 1.22433 12.538 2.34315 13.6569C3.46197 14.7757 4.88743 15.5376 6.43928 15.8463C7.99113 16.155 9.59967 15.9965 11.0615 15.391C12.5233 14.7855 13.7727 13.7602 14.6518 12.4446C15.5308 11.129 16 9.58225 16 8C15.9976 5.879 15.154 3.84555 13.6542 2.34578C12.1545 0.846004 10.121 0.00238211 8 0ZM13.91 7H11.688C11.6295 5.54124 11.3486 4.09997 10.855 2.726C11.6538 3.16119 12.3433 3.77195 12.8718 4.51228C13.4003 5.25261 13.7539 6.1032 13.906 7H13.91ZM8 14C7.6 14 6.51301 12.274 6.31801 9H9.68201C9.48401 12.278 8.4 14 8 14ZM6.31801 7C6.51301 3.726 7.598 2 8 2C8.40201 2 9.48801 3.726 9.68201 7H6.31801ZM5.14101 2.726C4.6452 4.09967 4.36161 5.54088 4.30001 7H2.08701C2.2397 6.10406 2.59347 5.25437 3.12173 4.5148C3.65 3.77523 4.33901 3.16501 5.13701 2.73L5.14101 2.726ZM4.30001 9C4.35862 10.4587 4.63917 11.8999 5.13201 13.274C4.33429 12.8382 3.6458 12.2272 3.11837 11.4869C2.59094 10.7466 2.23831 9.8963 2.08701 9H4.30001ZM10.859 13.274C11.3527 11.9001 11.6336 10.4588 11.692 9H13.91C13.7583 9.89798 13.4045 10.7497 12.8752 11.4909C12.346 12.232 11.6552 12.8431 10.855 13.278L10.859 13.274Z" fill="white"/>
</svg>
