<svg width="140" height="64" viewBox="0 0 140 64" fill="none" xmlns="http://www.w3.org/2000/svg">
<path d="M4 0.5H136C137.933 0.5 139.5 2.067 139.5 4V63.5H0.5V4C0.5 2.067 2.067 0.5 4 0.5Z" fill="#FDFDFD"/>
<path d="M4 0.5H136C137.933 0.5 139.5 2.067 139.5 4V63.5H0.5V4C0.5 2.067 2.067 0.5 4 0.5Z" stroke="#0441C4"/>
<path d="M128 14H12V26H128V14Z" fill="#F6F6F6"/>
<path d="M129.04 34H100.769C100.217 34 99.7693 34.4477 99.7693 35V49C99.7693 49.5523 100.217 50 100.769 50H129.04C129.592 50 130.04 49.5523 130.04 49V35C130.04 34.4477 129.592 34 129.04 34Z" fill="#0441C4"/>
<path d="M64.8235 34.5H93.094C93.37 34.5001 93.594 34.7239 93.594 35V49C93.594 49.2761 93.37 49.4999 93.094 49.5H64.8235C64.5473 49.5 64.3235 49.2761 64.3235 49V35C64.3235 34.7239 64.5473 34.5 64.8235 34.5Z" stroke="#D8D8D8"/>
</svg>
