<svg width="140" height="64" viewBox="0 0 140 64" fill="none" xmlns="http://www.w3.org/2000/svg">
<g clip-path="url(#clip0_3227_22581)">
<path d="M0 4C0 1.79086 1.79086 0 4 0H136C138.209 0 140 1.79086 140 4V64H0V4Z" fill="#FDFDFD"/>
<path d="M128 14H12V26H128V14Z" fill="#F6F6F6"/>
<path d="M129.04 56H100.769C100.217 56 99.7693 56.4477 99.7693 57V71C99.7693 71.5523 100.217 72 100.769 72H129.04C129.592 72 130.04 71.5523 130.04 71V57C130.04 56.4477 129.592 56 129.04 56Z" fill="#0441C4"/>
<path d="M64.8235 34.5H93.094C93.37 34.5001 93.594 34.7239 93.594 35V49C93.594 49.2761 93.37 49.4999 93.094 49.5H64.8235C64.5473 49.5 64.3235 49.2761 64.3235 49V35C64.3235 34.7239 64.5473 34.5 64.8235 34.5Z" stroke="#D8D8D8"/>
<g clip-path="url(#clip1_3227_22581)">
<rect width="68" height="88" transform="translate(72)" fill="#1D1D1E"/>
<path d="M130 14H14V26H130V14Z" fill="#323237"/>
<path d="M129.324 34H101.919C101.367 34 100.919 34.4477 100.919 35V49C100.919 49.5523 101.367 50 101.919 50H129.324C129.877 50 130.324 49.5523 130.324 49V35C130.324 34.4477 129.877 34 129.324 34Z" fill="#91BFFF"/>
<path d="M67 34.5H94.4053C94.6814 34.5 94.9053 34.7239 94.9053 35V49C94.9053 49.2761 94.6814 49.5 94.4053 49.5H67C66.7239 49.5 66.5 49.2761 66.5 49V35C66.5 34.7239 66.7239 34.5 67 34.5Z" stroke="#39393D"/>
</g>
<path d="M4 0.5H136C137.933 0.5 139.5 2.067 139.5 4V63.5H0.5V4C0.5 2.067 2.067 0.5 4 0.5Z" stroke="#D8D8D8"/>
</g>
<defs>
<clipPath id="clip0_3227_22581">
<path d="M0 4C0 1.79086 1.79086 0 4 0H136C138.209 0 140 1.79086 140 4V64H0V4Z" fill="white"/>
</clipPath>
<clipPath id="clip1_3227_22581">
<rect width="68" height="88" fill="white" transform="translate(72)"/>
</clipPath>
</defs>
</svg>
