<svg width="24" height="24" viewBox="0 0 24 24" fill="none" xmlns="http://www.w3.org/2000/svg">
<path fill-rule="evenodd" clip-rule="evenodd" d="M9.40177 5.5C10.5565 3.5 13.4432 3.5 14.5979 5.5L20.2271 15.25C21.3818 17.25 19.9384 19.75 17.629 19.75H6.37069C4.06129 19.75 2.61791 17.25 3.77261 15.25L9.40177 5.5ZM12.8659 6.5C12.481 5.83333 11.5187 5.83333 11.1338 6.5L5.50466 16.25C5.11976 16.9167 5.60089 17.75 6.37069 17.75H17.629C18.3988 17.75 18.8799 16.9167 18.495 16.25L12.8659 6.5ZM11 10C11 9.44772 11.4477 9 12 9C12.5523 9 13 9.44772 13 10V13C13 13.5523 12.5523 14 12 14C11.4477 14 11 13.5523 11 13V10ZM12 15C11.4477 15 11 15.4477 11 16C11 16.5523 11.4477 17 12 17C12.5523 17 13 16.5523 13 16C13 15.4477 12.5523 15 12 15Z" fill="#E74852"/>
</svg>
