<svg width="24" height="24" viewBox="0 0 24 24" fill="none" xmlns="http://www.w3.org/2000/svg">
<path d="M4.15649 16.5256C4.15649 17.4256 4.77449 17.6821 5.34449 18.2356V20.0506C5.33843 20.3097 5.43497 20.5607 5.61308 20.7489C5.7912 20.9371 6.03648 21.0474 6.29549 21.0556H7.24649C7.50551 21.0474 7.75078 20.9371 7.9289 20.7489C8.10702 20.5607 8.20356 20.3097 8.19749 20.0506V19.0456H15.8025V20.0506C15.7964 20.3097 15.893 20.5607 16.0711 20.7489C16.2492 20.9371 16.4945 21.0474 16.7535 21.0556H17.7045C17.9635 21.0474 18.2088 20.9371 18.3869 20.7489C18.565 20.5607 18.6616 20.3097 18.6555 20.0506V18.2356C19.2255 17.6821 19.8435 17.3806 19.8435 16.5256V6.92559C19.8435 3.40659 16.1835 2.95059 12 2.95059C7.81649 2.95059 4.15649 3.40059 4.15649 6.92559V16.5256ZM7.72199 17.2756C7.42017 17.2924 7.12024 17.2183 6.86101 17.0628C6.60178 16.9073 6.39516 16.6776 6.26789 16.4034C6.14062 16.1292 6.09855 15.8231 6.14712 15.5247C6.19569 15.2264 6.33266 14.9494 6.54032 14.7298C6.74799 14.5101 7.01679 14.3578 7.31195 14.2925C7.60712 14.2273 7.91508 14.2521 8.19599 14.3638C8.4769 14.4754 8.71784 14.6688 8.88765 14.9189C9.05746 15.169 9.14833 15.4643 9.14849 15.7666C9.15779 15.9607 9.12779 16.1547 9.0603 16.3369C8.9928 16.5191 8.8892 16.6858 8.75571 16.827C8.62221 16.9682 8.46158 17.081 8.28343 17.1586C8.10528 17.2362 7.9133 17.277 7.71899 17.2786L7.72199 17.2756ZM16.272 17.2756C15.9702 17.2924 15.6702 17.2183 15.411 17.0628C15.1518 16.9073 14.9452 16.6776 14.8179 16.4034C14.6906 16.1292 14.6485 15.8231 14.6971 15.5247C14.7457 15.2264 14.8827 14.9494 15.0903 14.7298C15.298 14.5101 15.5668 14.3578 15.862 14.2925C16.1571 14.2273 16.4651 14.2521 16.746 14.3638C17.0269 14.4754 17.2678 14.6688 17.4376 14.9189C17.6075 15.169 17.6983 15.4643 17.6985 15.7666C17.7078 15.9599 17.6781 16.1532 17.6111 16.3348C17.5442 16.5164 17.4414 16.6827 17.3088 16.8238C17.1763 16.9649 17.0167 17.0778 16.8396 17.156C16.6625 17.2341 16.4715 17.2758 16.278 17.2786L16.272 17.2756ZM17.6985 11.4946H6.29549V6.46959H17.703L17.6985 11.4946Z" fill="#9E8EFF"/>
</svg>
