<svg width="24" height="24" viewBox="0 0 24 24" fill="none" xmlns="http://www.w3.org/2000/svg">
<rect width="24" height="24" rx="12" fill="#205ED5"/>
<path d="M6 15.4971C6 16.193 6.47275 16.3914 6.90878 16.8194V18.2229C6.90414 18.4232 6.97799 18.6173 7.11424 18.7628C7.25049 18.9084 7.43812 18.9936 7.63626 19H8.36374C8.56188 18.9936 8.7495 18.9084 8.88576 18.7628C9.02201 18.6173 9.09586 18.4232 9.09122 18.2229V17.4457H14.9088V18.2229C14.9041 18.4232 14.978 18.6173 15.1142 18.7628C15.2505 18.9084 15.4381 18.9936 15.6363 19H16.3637C16.5619 18.9936 16.7495 18.9084 16.8858 18.7628C17.022 18.6173 17.0959 18.4232 17.0912 18.2229V16.8194C17.5273 16.3914 18 16.1582 18 15.4971V8.07374C18 5.35261 15.2002 5 12 5C8.79977 5 6 5.34797 6 8.07374V15.4971ZM8.72748 16.0771C8.4966 16.0901 8.26716 16.0327 8.06886 15.9125C7.87055 15.7922 7.7125 15.6146 7.61514 15.4026C7.51779 15.1906 7.4856 14.9539 7.52276 14.7232C7.55991 14.4925 7.66469 14.2783 7.82355 14.1085C7.9824 13.9386 8.18802 13.8208 8.41382 13.7704C8.63961 13.7199 8.87518 13.7391 9.09007 13.8254C9.30496 13.9118 9.48927 14.0613 9.61917 14.2547C9.74907 14.4481 9.81858 14.6764 9.8187 14.9102C9.82582 15.0603 9.80287 15.2103 9.75124 15.3512C9.69961 15.4921 9.62035 15.621 9.51824 15.7302C9.41612 15.8393 9.29324 15.9266 9.15696 15.9866C9.02069 16.0466 8.87382 16.0781 8.72519 16.0794L8.72748 16.0771ZM15.2679 16.0771C15.037 16.0901 14.8076 16.0327 14.6093 15.9125C14.411 15.7922 14.2529 15.6146 14.1556 15.4026C14.0582 15.1906 14.0261 14.9539 14.0632 14.7232C14.1004 14.4925 14.2051 14.2783 14.364 14.1085C14.5228 13.9386 14.7285 13.8208 14.9543 13.7704C15.1801 13.7199 15.4156 13.7391 15.6305 13.8254C15.8454 13.9118 16.0297 14.0613 16.1596 14.2547C16.2895 14.4481 16.359 14.6764 16.3591 14.9102C16.3662 15.0597 16.3435 15.2091 16.2923 15.3496C16.2411 15.49 16.1625 15.6186 16.0611 15.7277C15.9597 15.8368 15.8376 15.9241 15.7022 15.9845C15.5667 16.045 15.4206 16.0772 15.2725 16.0794L15.2679 16.0771ZM16.3591 11.6068H7.63626V7.72113H16.3626L16.3591 11.6068Z" fill="white"/>
</svg>
