<?xml version="1.0" encoding="UTF-8"?>
<svg id="_圖層_1" data-name=" 圖層 1" xmlns="http://www.w3.org/2000/svg" width="24" height="24" viewBox="0 0 24 24">
  <path d="M15.9,5h-5.9v-2h2.7c.6,0,1.1-.4,1.1-1s-.4-1-1.1-1h-7.6c-.6,0-1.1.4-1.1,1s.4,1,1.1,1h2.7v2H3.5c-.4,0-.9,0-1.2.4s-.4.7-.4,1.1v4c0,.4.1.8.4,1.1.3.3.8.4,1.2.4h10.2v3.5c0,.4.1.8.4,1.1.3.3.8.4,1.2.4h4.3c.4,0,.9-.1,1.2-.4.3-.3.4-.7.4-1.1v-5.5c0-2.8-2.4-5-5.4-5ZM19.1,15h-3.2v-3.5c0-.4-.1-.8-.4-1.1-.3-.3-.8-.4-1.2-.4H4v-3h11.9c1.8,0,3.2,1.3,3.2,3v5Z" style="fill: #275bff;"/>
  <path d="M17.8,18l-1.5,1.7c-.4.4-.5.9-.5,1.4s.3,1,.7,1.4c.8.6,1.9.6,2.6,0,.4-.3.7-.8.7-1.4s-.1-1-.5-1.4c0,0-1.5-1.7-1.5-1.7Z" style="fill: #275bff;"/>
</svg>