<?xml version="1.0" encoding="UTF-8"?>
<svg id="Layer_1" data-name="Layer 1" xmlns="http://www.w3.org/2000/svg" width="24" height="24" viewBox="0 0 24 24">
  <g id="rain">
    <g>
      <path d="M19.9,7.9c0-.4.2-.8.2-1.2,0-2.6-2.1-4.6-4.6-4.6s-3.8,1.4-4.4,3.3c-.5-.5-1.3-.8-2.1-.8-1.6,0-2.8,1.2-3,2.7-2.1.2-3.7,2-3.7,4.2s1.9,4.2,4.2,4.2h11.3c2.3,0,4.2-1.9,4.2-4.2,0-1.5-.8-2.8-1.9-3.6Z" style="fill: #59eaa2;"/>
      <path d="M10.8,20.6c0,.7.6,1.2,1.2,1.2s1.2-.6,1.2-1.2c0-1.2-1.2-2.5-1.2-2.5,0,0-1.2,1.2-1.2,2.5Z" style="fill: #59eaa2;"/>
      <path d="M15.1,18.8c0,.7.6,1.2,1.2,1.2s1.2-.6,1.2-1.2c0-1.2-1.2-2.5-1.2-2.5,0,0-1.2,1.2-1.2,2.5Z" style="fill: #59eaa2;"/>
      <path d="M6.5,18.8c0,.7.6,1.2,1.2,1.2s1.2-.6,1.2-1.2c0-1.2-1.2-2.5-1.2-2.5,0,0-1.2,1.2-1.2,2.5Z" style="fill: #59eaa2;"/>
    </g>
  </g>
</svg>