<svg width="18" height="18" viewBox="0 0 18 18" fill="none" xmlns="http://www.w3.org/2000/svg">
<path fill-rule="evenodd" clip-rule="evenodd" d="M3.72693 3.30921C3.72693 2.92166 4.0411 2.60748 4.42866 2.60748H10.481C10.6937 2.60748 10.8949 2.7039 11.0281 2.86965L13.3964 5.81691C13.4965 5.94152 13.5511 6.0966 13.5511 6.25646V14.5368C13.5511 14.9244 13.2369 15.2386 12.8494 15.2386H4.42866C4.0411 15.2386 3.72693 14.9244 3.72693 14.5368V3.30921ZM5.13038 4.01094V13.8351H12.1477V6.50347L10.1447 4.01094H5.13038ZM5.83208 8.92304C5.83208 8.53549 6.14625 8.22131 6.5338 8.22131H7.93726V6.81786C7.93726 6.43031 8.25143 6.11613 8.63898 6.11613C9.02654 6.11613 9.34071 6.43031 9.34071 6.81786V8.22131H10.7442C11.1317 8.22131 11.4459 8.53549 11.4459 8.92304C11.4459 9.3106 11.1317 9.62477 10.7442 9.62477H9.34071V11.0282C9.34071 11.4158 9.02654 11.7299 8.63898 11.7299C8.25143 11.7299 7.93726 11.4158 7.93726 11.0282V9.62477H6.5338C6.14625 9.62477 5.83208 9.3106 5.83208 8.92304Z" fill="#303030"/>
</svg>
