<svg width="12" height="7" viewBox="0 0 12 7" fill="none" xmlns="http://www.w3.org/2000/svg">
<path d="M6.04335 6.99998C5.77953 6.99992 5.52653 6.89554 5.34001 6.70979L0.365945 1.75779C0.258163 1.67025 0.170003 1.56117 0.107192 1.4376C0.0443821 1.31404 0.00829369 1.17873 0.00126875 1.04042C-0.00575619 0.902109 0.0164501 0.763867 0.0664198 0.634624C0.11639 0.505381 0.193021 0.388008 0.291382 0.290082C0.389744 0.192157 0.507659 0.115859 0.637478 0.0661106C0.767297 0.0163626 0.906125 -0.00573004 1.04505 0.00126373C1.18398 0.0082575 1.31989 0.0441821 1.444 0.106714C1.56812 0.169245 1.67769 0.256995 1.76563 0.364299L6.04335 4.61311L10.3141 0.361329C10.5017 0.18092 10.753 0.0810934 11.0138 0.08335C11.2747 0.0856065 11.5242 0.189765 11.7086 0.373393C11.8931 0.557021 11.9977 0.805426 12 1.06511C12.0022 1.32479 11.902 1.57496 11.7207 1.76175L6.74668 6.71375C6.65423 6.80532 6.54446 6.87775 6.42375 6.92688C6.30303 6.97601 6.17375 7.00085 6.04335 6.99998Z" fill="#9E8EFF"/>
</svg>
