<svg width="24" height="24" viewBox="0 0 24 24" fill="none" xmlns="http://www.w3.org/2000/svg">
<path d="M17.9649 12.176C17.9816 12.1181 17.993 12.0589 17.9989 11.999C17.9748 11.8736 17.9505 11.7483 17.9259 11.623C17.8976 11.5673 17.8641 11.5144 17.8259 11.465C17.7913 11.404 17.75 11.347 17.7029 11.295L14.6879 8.29499C14.4999 8.10788 14.2452 8.00313 13.98 8.00379C13.7147 8.00444 13.4605 8.11044 13.2734 8.29848C13.0863 8.48652 12.9816 8.74119 12.9822 9.00646C12.9829 9.27173 13.0889 9.52588 13.2769 9.71299L14.5769 11.004H7.00293C6.73771 11.004 6.48336 11.1093 6.29582 11.2969C6.10829 11.4844 6.00293 11.7388 6.00293 12.004C6.00293 12.2692 6.10829 12.5236 6.29582 12.7111C6.48336 12.8986 6.73771 13.004 7.00293 13.004H14.5799L13.2799 14.295C13.0919 14.4821 12.9859 14.7362 12.9852 15.0015C12.9846 15.2668 13.0893 15.5215 13.2764 15.7095C13.4635 15.8975 13.7177 16.0035 13.983 16.0042C14.2482 16.0048 14.5029 15.9001 14.6909 15.713L17.7059 12.713C17.75 12.6599 17.7882 12.6022 17.8199 12.541C17.8579 12.4917 17.8914 12.4392 17.9199 12.384C17.9425 12.3165 17.9576 12.2468 17.9649 12.176Z" fill="#C1B7FF"/>
</svg>
