<svg width="24" height="24" viewBox="0 0 24 24" fill="none" xmlns="http://www.w3.org/2000/svg">
<path d="M17.0231 17.9823C16.7575 17.9822 16.5027 17.8769 16.3149 17.6896L12.0144 13.401L7.71382 17.6896C7.52395 17.8625 7.27464 17.9561 7.01752 17.9508C6.7604 17.9455 6.51518 17.8418 6.33262 17.6611C6.15006 17.4805 6.04416 17.2368 6.03684 16.9804C6.02953 16.724 6.12137 16.4747 6.29334 16.284L10.5939 11.9954L6.29334 7.70679C6.12047 7.51694 6.02743 7.26807 6.03348 7.01171C6.03954 6.75534 6.14422 6.51112 6.32586 6.3296C6.5075 6.14808 6.75219 6.04316 7.00925 6.03658C7.26632 6.03 7.51607 6.12225 7.70681 6.29424L12.0144 10.5798L16.3109 6.29424C16.4033 6.19882 16.5138 6.12272 16.6361 6.07037C16.7583 6.01801 16.8897 5.99045 17.0227 5.9893C17.1558 5.98814 17.2877 6.01342 17.4108 6.06365C17.5339 6.11388 17.6457 6.18805 17.7398 6.28185C17.8338 6.37565 17.9082 6.48719 17.9586 6.60996C18.009 6.73273 18.0343 6.86427 18.0332 6.99692C18.032 7.12956 18.0044 7.26064 17.9519 7.38252C17.8994 7.5044 17.8231 7.61464 17.7274 7.70679L13.4268 11.9884L17.7244 16.284C17.8644 16.4237 17.9598 16.6017 17.9984 16.7955C18.0371 16.9892 18.0172 17.19 17.9414 17.3725C17.8656 17.5551 17.7373 17.7111 17.5726 17.8208C17.4079 17.9306 17.2142 17.9892 17.0161 17.9893L17.0231 17.9823Z" fill="white" fill-opacity="0.8"/>
</svg>
