<svg width="24" height="24" viewBox="0 0 24 24" fill="none" xmlns="http://www.w3.org/2000/svg">
<g clip-path="url(#clip0_826_6789)">
<path d="M19.273 11.273H18.509C18.3384 9.79845 17.6744 8.42485 16.6248 7.37523C15.5752 6.32561 14.2016 5.6616 12.727 5.49101V4.72701C12.727 4.53407 12.6504 4.34902 12.5139 4.21259C12.3775 4.07616 12.1925 3.99951 11.9995 3.99951C11.8066 3.99951 11.6215 4.07616 11.4851 4.21259C11.3487 4.34902 11.272 4.53407 11.272 4.72701V5.49101C9.79763 5.66181 8.42426 6.32591 7.37484 7.37551C6.32542 8.42512 5.66155 9.7986 5.49101 11.273H4.72701C4.53407 11.273 4.34902 11.3497 4.21259 11.4861C4.07616 11.6225 3.99951 11.8076 3.99951 12.0005C3.99951 12.1935 4.07616 12.3785 4.21259 12.5149C4.34902 12.6514 4.53407 12.728 4.72701 12.728H5.49101C5.6616 14.2026 6.32561 15.5762 7.37523 16.6258C8.42485 17.6754 9.79845 18.3394 11.273 18.51V19.274C11.273 19.467 11.3497 19.652 11.4861 19.7884C11.6225 19.9249 11.8076 20.0015 12.0005 20.0015C12.1935 20.0015 12.3785 19.9249 12.5149 19.7884C12.6514 19.652 12.728 19.467 12.728 19.274V18.51C14.2026 18.3394 15.5762 17.6754 16.6258 16.6258C17.6754 15.5762 18.3394 14.2026 18.51 12.728H19.274C19.467 12.728 19.652 12.6514 19.7884 12.5149C19.9249 12.3785 20.0015 12.1935 20.0015 12.0005C20.0015 11.8076 19.9249 11.6225 19.7884 11.4861C19.652 11.3497 19.466 11.273 19.273 11.273ZM12.728 17.018V15.636C12.728 15.4431 12.6514 15.258 12.5149 15.1216C12.3785 14.9852 12.1935 14.9085 12.0005 14.9085C11.8076 14.9085 11.6225 14.9852 11.4861 15.1216C11.3497 15.258 11.273 15.4431 11.273 15.636V17.018C10.1874 16.8694 9.18021 16.3695 8.40538 15.5946C7.63055 14.8198 7.13064 13.8127 6.98201 12.727H8.36401C8.55696 12.727 8.742 12.6504 8.87843 12.5139C9.01486 12.3775 9.09151 12.1925 9.09151 11.9995C9.09151 11.8066 9.01486 11.6215 8.87843 11.4851C8.742 11.3487 8.55696 11.272 8.36401 11.272H6.98201C7.13084 10.1865 7.63084 9.17961 8.40565 8.40498C9.18046 7.63035 10.1875 7.13059 11.273 6.98201V8.36401C11.273 8.55696 11.3497 8.742 11.4861 8.87843C11.6225 9.01486 11.8076 9.09151 12.0005 9.09151C12.1935 9.09151 12.3785 9.01486 12.5149 8.87843C12.6514 8.742 12.728 8.55696 12.728 8.36401V6.98201C13.8137 7.13064 14.8208 7.63055 15.5956 8.40538C16.3705 9.18021 16.8704 10.1874 17.019 11.273H15.636C15.4431 11.273 15.258 11.3497 15.1216 11.4861C14.9852 11.6225 14.9085 11.8076 14.9085 12.0005C14.9085 12.1935 14.9852 12.3785 15.1216 12.5149C15.258 12.6514 15.4431 12.728 15.636 12.728H17.018C16.8692 13.8135 16.3692 14.8204 15.5944 15.595C14.8196 16.3697 13.8135 16.8694 12.728 17.018Z" fill="#C1B7FF" stroke="#C1B7FF" stroke-width="0.5"/>
</g>
<defs>
<clipPath id="clip0_826_6789">
<rect width="24" height="24" fill="white"/>
</clipPath>
</defs>
</svg>
