<svg width="32" height="32" viewBox="0 0 32 32" fill="none" xmlns="http://www.w3.org/2000/svg">
<rect x="0.5" y="0.5" width="31" height="31" rx="3.5" fill="#1E1E22"/>
<rect x="0.5" y="0.5" width="31" height="31" rx="3.5" stroke="#39393D"/>
<path d="M18.0105 22C17.7449 21.9999 17.4901 21.8944 17.3023 21.7067L12.2933 16.7016C12.1055 16.5139 12 16.2593 12 15.9938C12 15.7284 12.1055 15.4738 12.2933 15.2861L17.3023 10.281C17.4912 10.0987 17.7443 9.99776 18.0069 10C18.2696 10.0023 18.5208 10.1076 18.7066 10.2932C18.8923 10.4788 18.9977 10.7299 19 10.9923C19.0022 11.2548 18.9013 11.5077 18.7188 11.6965L14.4141 15.9938L18.7118 20.2983C18.849 20.4382 18.9422 20.6153 18.9797 20.8076C19.0172 20.9999 18.9974 21.199 18.9228 21.3802C18.8481 21.5614 18.7219 21.7167 18.5597 21.8269C18.3976 21.9371 18.2066 21.9972 18.0105 22Z" fill="white" fill-opacity="0.8"/>
</svg>
