<svg width="12" height="12" viewBox="0 0 12 12" fill="none" xmlns="http://www.w3.org/2000/svg">
<path d="M11.005 4.99701H7.005V0.997009C7.005 0.731793 6.89965 0.477438 6.71211 0.289902C6.52458 0.102365 6.27022 -0.00299072 6.005 -0.00299072C5.73979 -0.00299072 5.48543 0.102365 5.2979 0.289902C5.11036 0.477438 5.005 0.731793 5.005 0.997009V4.99701H1.005C0.739788 4.99701 0.485434 5.10237 0.297897 5.2899C0.110361 5.47744 0.00500488 5.73179 0.00500488 5.99701C0.00500488 6.26223 0.110361 6.51658 0.297897 6.70412C0.485434 6.89165 0.739788 6.99701 1.005 6.99701H5.005V10.997C5.005 11.2622 5.11036 11.5166 5.2979 11.7041C5.48543 11.8917 5.73979 11.997 6.005 11.997C6.27022 11.997 6.52458 11.8917 6.71211 11.7041C6.89965 11.5166 7.005 11.2622 7.005 10.997V6.99701H11.005C11.2702 6.99701 11.5246 6.89165 11.7121 6.70412C11.8996 6.51658 12.005 6.26223 12.005 5.99701C12.005 5.73179 11.8996 5.47744 11.7121 5.2899C11.5246 5.10237 11.2702 4.99701 11.005 4.99701Z" fill="white" fill-opacity="0.8"/>
</svg>
