<svg width="57" height="47" viewBox="0 0 57 47" fill="none" xmlns="http://www.w3.org/2000/svg">
<line x1="1.25" y1="0.75" x2="56.75" y2="0.75" stroke="#39393D" stroke-width="0.5" stroke-linecap="round"/>
<line x1="1.25" y1="9.94995" x2="56.75" y2="9.94995" stroke="#39393D" stroke-width="0.5" stroke-linecap="round"/>
<line x1="1.25" y1="19.15" x2="56.75" y2="19.15" stroke="#39393D" stroke-width="0.5" stroke-linecap="round"/>
<line x1="1.25" y1="28.35" x2="56.75" y2="28.35" stroke="#39393D" stroke-width="0.5" stroke-linecap="round"/>
<line x1="1.25" y1="37.55" x2="56.75" y2="37.55" stroke="#39393D" stroke-width="0.5" stroke-linecap="round"/>
<line x1="1.25" y1="46.75" x2="56.75" y2="46.75" stroke="#39393D" stroke-width="0.5" stroke-linecap="round"/>
<path d="M1.08142 30.0455C1.7382 29.9894 3.32898 29.3103 4.25584 26.6048C5.51316 22.9347 8.38672 23.6383 9.36553 28.0235C10.3443 32.4088 11.9459 35.1614 13.5349 31.7659C15.5121 27.5408 16.1057 28.1037 17.9303 27.0636C19.7725 26.0133 19.7597 22.7341 21.0708 20.2949C21.8299 18.8827 23.6482 18.3239 25.4859 22.6349C27.3237 26.9458 29.0815 25.4964 30.7795 22.3004C32.4774 19.1044 34.8545 21.7058 35.6535 22.8207C36.4526 23.9356 37.408 24.2816 38.8896 23.8612C40.7355 23.3375 41.5064 24.7903 42.2056 27.0944C42.8145 29.1013 44.3829 28.9898 45.3218 28.8039C46.2606 28.6181 47.4768 28.2105 48.6977 30.0455C49.5213 31.2834 51.7093 34.7478 53.0524 29.1012C54.2287 24.1556 55.2111 36.9964 56 36.5" stroke="#E74852" stroke-linecap="round" stroke-linejoin="round"/>
</svg>
