<svg width="32" height="32" viewBox="0 0 32 32" fill="none" xmlns="http://www.w3.org/2000/svg">
<rect x="0.5" y="0.5" width="31" height="31" rx="3.5" fill="#1E1E22"/>
<rect x="0.5" y="0.5" width="31" height="31" rx="3.5" stroke="#39393D"/>
<path d="M14.0354 22C13.8397 21.9994 13.6485 21.9409 13.4857 21.8319C13.3229 21.723 13.1959 21.5683 13.1203 21.3873C13.0448 21.2063 13.0242 21.0069 13.0611 20.8142C13.098 20.6215 13.1908 20.444 13.3278 20.3039L17.6006 16.0208L13.3278 11.7377C13.2278 11.6471 13.1472 11.537 13.0909 11.4142C13.0346 11.2914 13.0038 11.1584 13.0003 11.0233C12.9969 10.8882 13.0208 10.7538 13.0708 10.6282C13.1207 10.5027 13.1955 10.3886 13.2908 10.293C13.386 10.1973 13.4996 10.122 13.6248 10.0717C13.7499 10.0214 13.8839 9.99709 14.0187 10.0003C14.1535 10.0035 14.2863 10.0341 14.4089 10.0902C14.5315 10.1464 14.6415 10.2269 14.7321 10.327L19.7086 15.3155C19.8952 15.5026 20 15.7563 20 16.0208C20 16.2854 19.8952 16.5391 19.7086 16.7262L14.7321 21.7147C14.5465 21.8982 14.2961 22.0007 14.0354 22Z" fill="white" fill-opacity="0.8"/>
</svg>
