<svg width="32" height="32" viewBox="0 0 32 32" fill="none" xmlns="http://www.w3.org/2000/svg">
<rect width="32" height="32" rx="4" fill="#4C37CD"/>
<path d="M23.7059 22.2913L20.6309 19.1937C21.6784 17.7612 22.1471 15.9831 21.9426 14.2173C21.7381 12.4514 20.8755 10.8291 19.5286 9.67677C18.1817 8.52447 16.4504 7.92784 14.6834 8.00698C12.9163 8.08611 11.2448 8.83515 10.0051 10.1033C8.76554 11.3714 8.04998 13.0645 8.00252 14.8416C7.95507 16.6187 8.57924 18.3479 9.74939 19.681C10.9195 21.0142 12.5487 21.8522 14.309 22.0265C16.0693 22.2008 17.8299 21.6984 19.2364 20.6204L22.2984 23.706C22.4851 23.8939 22.7384 23.9997 23.0026 24C23.2669 24.0003 23.5204 23.895 23.7074 23.7075C23.8945 23.5199 23.9997 23.2653 24 22.9997C24.0003 22.7341 23.8956 22.4793 23.7089 22.2913H23.7059ZM15.0228 20.0527C14.0377 20.0527 13.0747 19.7591 12.2557 19.2091C11.4366 18.659 10.7983 17.8772 10.4213 16.9625C10.0443 16.0478 9.94569 15.0413 10.1379 14.0703C10.33 13.0992 10.8044 12.2073 11.5009 11.5072C12.1975 10.8071 13.085 10.3303 14.0511 10.1372C15.0172 9.94405 16.0187 10.0432 16.9288 10.4221C17.8388 10.8009 18.6167 11.4426 19.164 12.2658C19.7113 13.089 20.0034 14.0568 20.0034 15.0469C20.0018 16.374 19.4765 17.6463 18.5428 18.5848C17.6091 19.5232 16.3432 20.0511 15.0228 20.0527Z" fill="white" fill-opacity="0.8"/>
</svg>
