<svg width="24" height="24" viewBox="0 0 24 24" fill="none" xmlns="http://www.w3.org/2000/svg">
<path d="M4.57841 14.2764C5.0387 14.8068 5.72913 15.1069 6.40955 15.0969L9.61156 15.0969L9.61156 16.8981C9.61156 18.6091 11.0024 20 12.7135 20C13.1137 20 13.464 19.7699 13.6241 19.4096L16.1256 13.7761L17.3564 13.7761C18.6572 13.7761 19.8179 12.7655 19.998 11.4346C19.998 11.3946 19.998 11.3446 19.998 11.3046L19.998 6.4015C19.998 6.4015 19.998 6.31144 19.998 6.27142C19.8179 4.97061 18.7072 4 17.4164 4L7.36015 4C6.17941 4 5.16878 4.87054 4.98867 6.04127L4.02807 12.3452C3.918 13.0457 4.12813 13.7461 4.58842 14.2864L4.57841 14.2764ZM17.3864 5.99125C17.6666 5.97123 17.9368 6.19137 17.9968 6.47154L17.9968 11.2045C17.9268 11.5147 17.6766 11.8049 17.3664 11.7649L16.4959 11.7649L16.4959 5.98124L17.3764 5.98124L17.3864 5.99125ZM6.9599 6.33146C6.98992 6.13133 7.12 5.98124 7.37016 5.99124L14.5046 5.99124L14.5046 12.4853L12.1331 17.8386C11.8229 17.6485 11.6128 17.2983 11.6128 16.8981L11.6128 14.0963C11.6128 13.546 11.1625 13.0957 10.6122 13.0957L6.39955 13.0957C6.28948 13.0957 6.1694 13.0457 6.09936 12.9556C6.01931 12.8655 5.98929 12.7455 6.00931 12.6354L6.96991 6.33146L6.9599 6.33146Z" fill="#C1B7FF" fill-opacity="0.8"/>
</svg>
