<svg width="13" height="13" viewBox="0 0 13 13" fill="none" xmlns="http://www.w3.org/2000/svg">
<path d="M11.0231 12.9823C10.7575 12.9822 10.5027 12.8769 10.3149 12.6896L6.01436 8.40095L1.71382 12.6896C1.52395 12.8625 1.27464 12.9561 1.01752 12.9508C0.760402 12.9455 0.515176 12.8418 0.33262 12.6611C0.150064 12.4805 0.0441552 12.2368 0.036844 11.9804C0.0295327 11.724 0.12137 11.4747 0.293336 11.284L4.59387 6.9954L0.293336 2.70679C0.120468 2.51694 0.0274262 2.26807 0.0334811 2.01171C0.0395361 1.75534 0.144225 1.51112 0.325864 1.3296C0.507503 1.14808 0.752187 1.04316 1.00925 1.03658C1.26632 1.03 1.51607 1.12225 1.70681 1.29424L6.01436 5.57985L10.3109 1.29424C10.4033 1.19882 10.5138 1.12272 10.6361 1.07037C10.7583 1.01801 10.8897 0.990448 11.0227 0.989296C11.1558 0.988143 11.2877 1.01342 11.4108 1.06365C11.5339 1.11388 11.6457 1.18805 11.7398 1.28185C11.8338 1.37565 11.9082 1.48719 11.9586 1.60996C12.009 1.73273 12.0343 1.86427 12.0332 1.99692C12.032 2.12956 12.0044 2.26064 11.9519 2.38252C11.8994 2.5044 11.8231 2.61464 11.7274 2.70679L7.42684 6.9884L11.7244 11.284C11.8644 11.4237 11.9598 11.6017 11.9984 11.7955C12.0371 11.9892 12.0172 12.19 11.9414 12.3725C11.8656 12.5551 11.7373 12.7111 11.5726 12.8208C11.4079 12.9306 11.2142 12.9892 11.0161 12.9893L11.0231 12.9823Z" fill="#9E8EFF" fill-opacity="1"/>
</svg>
