<svg width="14" height="14" viewBox="0 0 14 14" fill="none" xmlns="http://www.w3.org/2000/svg">
<path d="M6.51787 9.86357C6.44953 9.83137 6.38512 9.79141 6.32588 9.7445L3.69988 7.33112C3.50454 7.1516 3.3885 6.90179 3.37724 6.63665C3.36599 6.37151 3.46046 6.11276 3.63988 5.91732C3.8193 5.72187 4.06895 5.60575 4.33394 5.59449C4.59893 5.58323 4.85754 5.67777 5.05287 5.85729L6.00087 6.72978V1.0035C6.00087 0.738133 6.10624 0.483648 6.29378 0.296005C6.48132 0.108361 6.73565 0.00292969 7.00087 0.00292969C7.26609 0.00292969 7.52046 0.108361 7.70799 0.296005C7.89553 0.483648 8.00087 0.738133 8.00087 1.0035V6.72978L8.94988 5.85729C9.14521 5.67777 9.40382 5.58323 9.66881 5.59449C9.80002 5.60006 9.92884 5.63145 10.0479 5.68684C10.167 5.74223 10.274 5.82054 10.3629 5.91732C10.5423 6.11276 10.6368 6.37151 10.6255 6.63665C10.6143 6.90179 10.4982 7.1516 10.3029 7.33112L7.67787 9.7445L7.37788 9.93061C7.25921 9.98211 7.13123 10.0087 7.00188 10.0087C6.87253 10.0087 6.74454 9.98211 6.62587 9.93061C6.58851 9.91053 6.55244 9.88814 6.51787 9.86357Z" fill="#9E8EFF"/>
<path d="M1.00391 12.0018H13.0039C13.2691 12.0018 13.5235 12.1072 13.711 12.2948C13.8985 12.4825 14.0039 12.737 14.0039 13.0023C14.0039 13.2677 13.8985 13.5222 13.711 13.7099C13.5235 13.8975 13.2691 14.0029 13.0039 14.0029H1.00391C0.73869 14.0029 0.48432 13.8975 0.296783 13.7099C0.109247 13.5222 0.00390625 13.2677 0.00390625 13.0023C0.00390625 12.737 0.109247 12.4825 0.296783 12.2948C0.48432 12.1072 0.73869 12.0018 1.00391 12.0018Z" fill="#9E8EFF"/>
</svg>
