<svg width="14" height="18" viewBox="0 0 14 18" fill="none" xmlns="http://www.w3.org/2000/svg">
<path fill-rule="evenodd" clip-rule="evenodd" d="M1 0C0.447715 0 0 0.447715 0 1V17C0 17.5523 0.447715 18 1 18H13C13.5523 18 14 17.5523 14 17V5.2C14 4.97218 13.9222 4.75119 13.7795 4.57361L10.4045 0.373609C10.2147 0.137401 9.92802 0 9.625 0H1ZM2 16V2H9.14571L12 5.552V16H2ZM9.96204 10.5967L7.70312 12.9521C7.65514 12.9972 7.60256 13.037 7.54661 13.0715C7.50128 13.1065 7.45306 13.1376 7.40244 13.1643L7.37071 13.181L7.33555 13.1882C7.24129 13.2074 7.147 13.2263 7.05267 13.2452L7.01575 13.2525L6.97829 13.2487C6.92527 13.2433 6.87279 13.2335 6.82137 13.2194C6.75727 13.2109 6.69417 13.1959 6.633 13.1747L6.61423 13.1682L6.59673 13.1588C6.54848 13.1329 6.50239 13.1031 6.45886 13.0698C6.40435 13.0388 6.35292 13.0025 6.30527 12.9616L6.29616 12.9537L4.03796 10.599C3.85195 10.4051 3.74936 10.1443 3.75 9.87448C3.75065 9.60468 3.85447 9.3444 4.04144 9.15137C4.2287 8.95804 4.48433 8.84803 4.75261 8.84872C5.02089 8.84941 5.27596 8.96073 5.46227 9.155L6.00004 9.71684L6.00004 6.77812C6.00004 6.50836 6.10323 6.24788 6.28969 6.05442C6.47645 5.86064 6.73176 5.75 7 5.75C7.26824 5.75 7.52355 5.86064 7.71031 6.05442C7.89677 6.24788 7.99996 6.50836 7.99996 6.77812V9.71451L8.53756 9.15284C8.72387 8.95857 8.97911 8.84707 9.24739 8.84638C9.51568 8.84569 9.7713 8.95572 9.95856 9.14905C10.1455 9.34208 10.2494 9.60235 10.25 9.87215C10.2506 10.142 10.148 10.4027 9.96204 10.5967Z" fill="#9E8EFF"/>
</svg>
