<svg width="24" height="24" viewBox="0 0 24 24" fill="none" xmlns="http://www.w3.org/2000/svg">
<path d="M19.4196 9.72358C18.9593 9.19325 18.2689 8.89306 17.5885 8.90306H14.3865V7.10194C14.3865 5.39087 12.9956 4 11.2846 4C10.8843 4 10.5341 4.23014 10.374 4.59037L7.87242 10.2239H6.64165C5.34084 10.2239 4.18011 11.2345 4 12.5654C4 12.6054 4 12.6554 4 12.6954V17.5985C4 17.5985 4 17.6886 4 17.7286C4.18011 19.0294 5.29081 20 6.58161 20H16.6379C17.8186 20 18.8293 19.1295 19.0094 17.9587L19.97 11.6548C20.08 10.9543 19.8699 10.2539 19.4096 9.71357L19.4196 9.72358ZM6.61163 18.0088C6.33146 18.0288 6.06129 17.8086 6.00125 17.5285V12.7955C6.07129 12.4853 6.32145 12.1951 6.63164 12.2351H7.50219V18.0188H6.62164L6.61163 18.0088ZM17.0381 17.6685C17.0081 17.8687 16.878 18.0188 16.6279 18.0088H9.49343V11.5147L11.8649 6.16135C12.1751 6.35147 12.3852 6.70169 12.3852 7.10194V9.90369C12.3852 10.454 12.8355 10.9043 13.3859 10.9043H17.5985C17.7086 10.9043 17.8286 10.9543 17.8987 11.0444C17.9787 11.1345 18.0088 11.2545 17.9887 11.3646L17.0281 17.6685H17.0381Z" fill="white" fill-opacity="0.8"/>
</svg>
