<svg width="16" height="14" viewBox="0 0 16 14" fill="none" xmlns="http://www.w3.org/2000/svg">
<path d="M14.1312 0.000172292H1.87582C1.38597 -0.00649964 0.913423 0.18084 0.5618 0.521127C0.210178 0.861414 0.00816348 1.32689 0 1.81552V9.16473C0.0084246 9.6531 0.210604 10.1182 0.562228 10.4581C0.913852 10.798 1.38623 10.985 1.87582 10.9781H3.00532L5.22928 13.6407C5.24729 13.6627 5.27431 13.6707 5.29431 13.6906C5.31391 13.7177 5.33493 13.7437 5.35733 13.7685C5.40594 13.8023 5.45749 13.8317 5.51139 13.8563C5.54585 13.8787 5.58162 13.899 5.61846 13.9172C5.7378 13.9694 5.86632 13.9976 5.99662 14C6.12724 13.9976 6.2561 13.9694 6.37578 13.9172C6.41263 13.899 6.44837 13.8787 6.48282 13.8563C6.53672 13.8317 6.58828 13.8023 6.63688 13.7685C6.65928 13.7437 6.68034 13.7177 6.69993 13.6906C6.71894 13.6707 6.74695 13.6627 6.76496 13.6407L8.98893 10.9781H14.1242C14.6138 10.9853 15.0864 10.7984 15.438 10.4584C15.7897 10.1185 15.9918 9.65318 16 9.16473V1.81552C15.9921 1.32803 15.7911 0.863463 15.4409 0.52332C15.0908 0.183176 14.6199 -0.00490152 14.1312 0.000172292ZM14.0061 8.9821H8.6788C8.61317 8.98838 8.54844 9.00177 8.48572 9.02203C8.3429 9.02228 8.20185 9.05346 8.0723 9.11343C7.94275 9.17339 7.8278 9.2607 7.73539 9.36932L6.00263 11.4421L4.27086 9.36932C4.17849 9.26065 4.06357 9.1733 3.93401 9.11333C3.80445 9.05337 3.66335 9.02221 3.52053 9.02203C3.45782 9.00171 3.39308 8.98831 3.32745 8.9821H2.00488V1.99616H14.0101L14.0061 8.9821Z" fill="#9E8EFF"/>
<path d="M6.00663 6.48711H10.0084C10.2737 6.48711 10.5282 6.38197 10.7158 6.19481C10.9034 6.00765 11.0088 5.75381 11.0088 5.48912C11.0088 5.22444 10.9034 4.97059 10.7158 4.78343C10.5282 4.59627 10.2737 4.49113 10.0084 4.49113H6.00663C5.7413 4.49113 5.48682 4.59627 5.2992 4.78343C5.11158 4.97059 5.00619 5.22444 5.00619 5.48912C5.00619 5.75381 5.11158 6.00765 5.2992 6.19481C5.48682 6.38197 5.7413 6.48711 6.00663 6.48711Z" fill="#9E8EFF"/>
</svg>
