<svg width="24" height="24" viewBox="0 0 24 24" fill="none" xmlns="http://www.w3.org/2000/svg">
<path fill-rule="evenodd" clip-rule="evenodd" d="M12 5.09961C10.0507 5.09961 8.28893 5.90911 7.03519 7.20787C6.68997 7.56548 6.70002 8.13524 7.05763 8.48046C7.41525 8.82568 7.98501 8.81563 8.33023 8.45802C9.25881 7.49609 10.559 6.89961 12 6.89961C14.4709 6.89961 16.5313 8.65673 17 10.9896V11.9995C17 12.5518 17.4477 12.9995 18 12.9995C18.5523 12.9995 19 12.5518 19 11.9995V6.99951C19 6.44723 18.5523 5.99951 18 5.99951C17.4477 5.99951 17 6.44723 17 6.99951V7.24459C15.743 5.92326 13.9677 5.09961 12 5.09961ZM7 16.7546V16.9995C7 17.5518 6.55228 17.9995 6 17.9995C5.44772 17.9995 5 17.5518 5 16.9995V11.9995C5 11.4472 5.44772 10.9995 6 10.9995C6.55228 10.9995 7 11.4472 7 11.9995V13.0096C7.46866 15.3425 9.52914 17.0996 12 17.0996C13.3761 17.0996 14.6234 16.5558 15.5416 15.6694C15.8992 15.3242 16.469 15.3342 16.8142 15.6918C17.1594 16.0495 17.1494 16.6192 16.7917 16.9644C15.5515 18.1617 13.861 18.8996 12 18.8996C10.0323 18.8996 8.25699 18.076 7 16.7546Z" fill="#9E8EFF"/>
</svg>
