<svg width="32" height="32" viewBox="0 0 32 32" fill="none" xmlns="http://www.w3.org/2000/svg">
<path d="M23 19.0398H11.37L12.712 17.6929C12.804 17.6008 12.8765 17.4919 12.9254 17.3723C12.9744 17.2527 12.9989 17.1248 12.9974 16.996C12.996 16.8671 12.9687 16.7399 12.9171 16.6214C12.8654 16.5029 12.7905 16.3955 12.6965 16.3054C12.6026 16.2153 12.4914 16.1442 12.3694 16.0962C12.2475 16.0482 12.117 16.0242 11.9856 16.0256C11.8541 16.027 11.7243 16.0538 11.6034 16.1044C11.4825 16.155 11.373 16.2285 11.281 16.3206L8.29903 19.3143L8.29404 19.3202L8.28703 19.327C8.26787 19.3529 8.25019 19.3797 8.23404 19.4074C8.17259 19.4745 8.12109 19.5498 8.08104 19.631V19.6437C8.06121 19.7049 8.0478 19.768 8.04103 19.8319C8.02439 19.8886 8.01302 19.9467 8.00703 20.0054V20.0172C8.01313 20.0799 8.02518 20.1419 8.04303 20.2024C8.04962 20.2624 8.06236 20.3215 8.08104 20.3789V20.3926C8.1188 20.4661 8.16583 20.5346 8.22104 20.5965C8.241 20.6305 8.26303 20.6632 8.28703 20.6945L11.287 23.7049C11.4727 23.891 11.7261 23.9971 11.9916 23.9999C12.257 24.0028 12.5128 23.9021 12.7025 23.7201C12.8923 23.5382 13.0005 23.2897 13.0034 23.0295C13.0064 22.7693 12.9037 22.5186 12.718 22.3326L11.378 20.9876H23C23.2652 20.9876 23.5196 20.8844 23.7071 20.7005C23.8947 20.5167 24 20.2673 24 20.0074C24 19.7474 23.8947 19.498 23.7071 19.3142C23.5196 19.1304 23.2652 19.0271 23 19.0271V19.0398Z" fill="white" fill-opacity="0.8"/>
<path d="M22 8H10C9.46666 8.00337 8.95647 8.21411 8.58148 8.58593C8.20649 8.95774 7.99736 9.46026 8.00003 9.9831V14.0022C8.00003 14.2622 8.10538 14.5115 8.29292 14.6954C8.48045 14.8792 8.73481 14.9825 9.00003 14.9825C9.26524 14.9825 9.5196 14.8792 9.70713 14.6954C9.89467 14.5115 10 14.2622 10 14.0022V9.96545L22 9.98801V16.001C22 16.261 22.1054 16.5103 22.2929 16.6941C22.4805 16.878 22.7348 16.9813 23 16.9813C23.2652 16.9813 23.5196 16.878 23.7071 16.6941C23.8947 16.5103 24 16.261 24 16.001V9.97918C24.0016 9.45702 23.792 8.95552 23.4172 8.58455C23.0423 8.21358 22.5327 8.00337 22 8Z" fill="white" fill-opacity="0.8"/>
</svg>
