<svg width="16" height="16" viewBox="0 0 16 16" fill="none" xmlns="http://www.w3.org/2000/svg">
<path fill-rule="evenodd" clip-rule="evenodd" d="M8 16C12.4183 16 16 12.4183 16 8C16 3.58172 12.4183 0 8 0C3.58172 0 0 3.58172 0 8C0 12.4183 3.58172 16 8 16ZM6.22209 4.77776C6.77437 4.77776 7.22209 5.22548 7.22209 5.77776L7.22209 10.2222C7.22209 10.7745 6.77437 11.2222 6.22209 11.2222C5.6698 11.2222 5.22209 10.7745 5.22209 10.2222V5.77776C5.22209 5.22548 5.6698 4.77776 6.22209 4.77776ZM9.77782 4.77776C10.3301 4.77776 10.7778 5.22548 10.7778 5.77776V10.2222C10.7778 10.7745 10.3301 11.2222 9.77782 11.2222C9.22553 11.2222 8.77782 10.7745 8.77782 10.2222V5.77776C8.77782 5.22548 9.22553 4.77776 9.77782 4.77776Z" fill="#9E8EFF"/>
</svg>
