<svg width="16" height="16" viewBox="0 0 16 16" fill="none" xmlns="http://www.w3.org/2000/svg">
<path d="M8.00001 0C6.41776 0 4.87102 0.469154 3.55543 1.34821C2.23984 2.22726 1.21446 3.47673 0.608956 4.93854C0.00345498 6.40035 -0.154956 8.00888 0.153725 9.56073C0.462407 11.1126 1.22433 12.538 2.34315 13.6569C3.46197 14.7757 4.88743 15.5376 6.43928 15.8463C7.99113 16.1549 9.59966 15.9966 11.0615 15.3911C12.5233 14.7856 13.7727 13.7602 14.6517 12.4446C15.5308 11.129 16 9.58225 16 8C15.9976 5.879 15.154 3.84554 13.6542 2.34576C12.1544 0.845989 10.121 0.00238211 8.00001 0ZM8.00001 14C6.81332 14 5.65327 13.6481 4.66657 12.9888C3.67988 12.3295 2.91083 11.3924 2.4567 10.2961C2.00258 9.19973 1.88376 7.99335 2.11527 6.82947C2.34678 5.66558 2.91825 4.59644 3.75736 3.75732C4.59648 2.91821 5.66556 2.34681 6.82945 2.1153C7.99333 1.88378 9.19973 2.0026 10.2961 2.45673C11.3924 2.91085 12.3295 3.67987 12.9888 4.66656C13.6481 5.65326 14 6.81331 14 8C13.9982 9.59073 13.3654 11.1158 12.2406 12.2406C11.1158 13.3654 9.59074 13.9981 8.00001 14Z" fill="#9E8EFF"/>
<path d="M9 7.72699V4.11597C9 3.85075 8.89463 3.59641 8.70709 3.40887C8.51956 3.22134 8.26522 3.11597 8 3.11597C7.73479 3.11597 7.48042 3.22134 7.29288 3.40887C7.10534 3.59641 7 3.85075 7 4.11597V8C6.99965 8.18152 7.04909 8.35966 7.14298 8.51501L8.31 10.459C8.44645 10.6864 8.66766 10.8503 8.92496 10.9146C9.18226 10.9789 9.45456 10.9385 9.68198 10.802C9.9094 10.6655 10.0733 10.4443 10.1376 10.187C10.202 9.92971 10.1614 9.65742 10.025 9.42999L9 7.72699Z" fill="#9E8EFF"/>
</svg>
