<svg width="354" height="53" viewBox="0 0 354 53" fill="none" xmlns="http://www.w3.org/2000/svg">
<path d="M164.158 52.1124C163.541 52.1064 162.926 52.0407 162.316 51.9157C152.907 50.0638 147.373 39.0895 142.022 28.4746C137.329 19.1657 132.896 10.3712 126.31 9.04745C121.645 8.1032 119.788 17.2179 118.676 22.6628L118.524 23.4054C117.71 27.3463 116.325 30.087 114.406 31.5368C112.344 33.0988 109.679 33.1656 106.483 31.7347C103.665 30.474 100.986 25.928 97.8841 20.6646C93.6872 13.5418 88.931 5.46963 83.2729 5.46081C82.6249 5.46081 82.1748 5.7016 81.8961 6.1983C80.8788 8.01117 81.7132 13.1573 82.5175 18.1332C83.6351 25.0342 84.7917 32.1696 82.3479 35.6655C79.4878 39.759 76.4333 35.8622 73.2048 31.7372C70.374 28.1254 67.1686 24.0395 63.4687 24.0395H0.726562V22.0224H63.4687C67.7092 22.0224 71.1294 26.3869 74.1475 30.2383C77.5207 34.5435 79.5171 36.8518 81.3378 34.2472C83.2294 31.5418 82.1145 24.6661 81.1309 18.5883C80.1687 12.648 79.3369 7.51699 80.7812 4.94393C81.3386 3.95051 82.1757 3.44624 83.2667 3.44624H83.2729C89.5932 3.45632 94.5757 11.9117 98.9715 19.3724C101.812 24.1845 104.486 28.7305 106.908 29.8134C109.727 31.0741 112.023 31.0552 113.735 29.7592C115.305 28.5691 116.457 26.2419 117.159 22.8406L117.31 22.1031C118.47 16.43 120.629 5.87305 126.508 7.05558C133.692 8.50032 138.297 17.6352 143.172 27.3059C148.348 37.5729 153.7 48.1904 162.506 49.9226C164.773 50.3676 166.235 49.9818 166.847 48.7741C168.335 45.8455 165.503 37.7053 163.006 30.5245C160.254 22.6086 157.653 15.134 159.027 11.0961C159.482 9.75722 160.325 8.89112 161.533 8.52301L161.581 8.50914C166.054 7.61531 172.301 15.0029 178.911 22.8355C184.526 29.4882 190.33 36.3816 193.723 35.9277C194.069 35.8907 194.406 35.7521 194.713 35.5208C195.019 35.2895 195.289 34.9705 195.504 34.5839C198.135 30.0832 195.933 24.743 193.601 19.0888C191.103 13.0375 188.521 6.77065 192.791 1.9435C198.404 -4.39396 205.94 5.87935 213.918 16.7553C221.329 26.8559 228.991 37.3044 234.391 32.8366C236.76 30.8787 236.108 23.8668 235.583 18.2341C235.107 13.1207 234.731 9.08275 236.253 7.77038C237.245 6.9169 238.65 7.49933 240.815 9.66141C244.42 12.6618 247.508 18.8291 250.491 24.7896C254.884 33.564 259.033 41.8529 264.183 39.4602C268.199 37.5969 269.205 33.83 270.178 30.1879C271.251 26.1688 272.361 22.0123 277.503 22.0123H353.157V24.0294H277.513C273.351 24.0294 272.582 26.9126 271.515 30.9039C270.527 34.6065 269.296 39.2143 264.634 41.3789C263.91 41.7214 263.152 41.8984 262.389 41.9034C257.329 41.9034 253.276 33.8148 249.34 25.9583C246.434 20.1591 243.428 14.1494 240.077 11.3772L240.026 11.3305C237.752 9.06132 237.096 9.40297 236.992 9.495C236.265 10.1253 236.686 14.6537 236.992 17.9643C237.602 24.5198 238.293 31.9415 235.106 34.575C234.04 35.4644 232.825 35.9287 231.588 35.9189C225.932 35.9189 219.345 26.9403 212.936 18.2051C205.417 7.95696 198.315 -1.7213 193.673 3.51684C190.588 6.99884 192.05 11.3331 194.827 18.0588C197.188 23.7848 199.864 30.2748 196.597 35.8622C196.263 36.4538 195.847 36.9421 195.375 37.2972C194.903 37.6523 194.385 37.8667 193.853 37.9272C193.711 37.9448 193.566 37.9549 193.42 37.9549C189.464 37.9549 183.891 31.3515 178.002 24.3736C171.934 17.1877 165.663 9.74965 161.808 10.4922C161.054 10.7292 160.565 11.2108 160.307 11.9634C159.235 15.1151 161.915 22.8204 164.28 29.6205C167.216 38.0596 169.988 46.0309 168 49.944C167.269 51.3963 166.003 52.1124 164.158 52.1124Z" fill="url(#paint0_linear_267_12534)"/>
<defs>
<linearGradient id="paint0_linear_267_12534" x1="0.726562" y1="26.0566" x2="353.167" y2="26.0566" gradientUnits="userSpaceOnUse">
<stop stop-color="#1C51BC"/>
<stop offset="0.28" stop-color="#921EBE"/>
<stop offset="0.65" stop-color="#1C51BC"/>
<stop offset="1" stop-color="#921EBE"/>
</linearGradient>
</defs>
</svg>
