<svg width="24" height="24" viewBox="0 0 24 24" fill="none" xmlns="http://www.w3.org/2000/svg">
<path fill-rule="evenodd" clip-rule="evenodd" d="M11.9991 21.0004H3.54308C3.27002 20.997 3.00262 20.9221 2.76746 20.7833C2.53229 20.6444 2.33755 20.4465 2.20257 20.2091C2.0676 19.9717 1.99709 19.7031 1.99806 19.43C1.99902 19.157 2.07143 18.8889 2.20808 18.6524L6.43608 11.2174L10.6641 3.78345C10.7969 3.54588 10.9907 3.34803 11.2254 3.21032C11.4602 3.0726 11.7274 3 11.9996 3C12.2717 3 12.539 3.0726 12.7737 3.21032C13.0085 3.34803 13.2023 3.54588 13.3351 3.78345L17.5621 11.2174L21.7901 18.6524C21.9267 18.8888 21.9991 19.1568 22.0001 19.4298C22.0011 19.7028 21.9307 19.9713 21.7958 20.2087C21.661 20.446 21.4664 20.644 21.2314 20.7829C20.9963 20.9218 20.7291 20.9968 20.4561 21.0004H11.9991ZM11.9991 15.0005C11.8013 15.0005 11.608 15.0591 11.4435 15.169C11.2791 15.2789 11.1509 15.4351 11.0752 15.6178C10.9995 15.8005 10.9797 16.0016 11.0183 16.1956C11.0569 16.3896 11.1521 16.5677 11.292 16.7076C11.4318 16.8474 11.61 16.9427 11.804 16.9813C11.998 17.0199 12.199 17.0001 12.3818 16.9244C12.5645 16.8487 12.7207 16.7205 12.8306 16.5561C12.9404 16.3916 12.9991 16.1983 12.9991 16.0005C12.9991 15.7353 12.8937 15.4809 12.7062 15.2934C12.5187 15.1058 12.2643 15.0005 11.9991 15.0005ZM11.292 9.29338C11.4795 9.10585 11.7339 9.00049 11.9991 9.00049C12.2643 9.00049 12.5187 9.10585 12.7062 9.29338C12.8937 9.48092 12.9991 9.73527 12.9991 10.0005V13.0005C12.9991 13.2657 12.8937 13.5201 12.7062 13.7076C12.5187 13.8951 12.2643 14.0005 11.9991 14.0005C11.7339 14.0005 11.4795 13.8951 11.292 13.7076C11.1044 13.5201 10.9991 13.2657 10.9991 13.0005V10.0005C10.9991 9.73527 11.1044 9.48092 11.292 9.29338Z" fill="#E74852"/>
</svg>
