<svg width="120" height="120" viewBox="0 0 120 120" fill="none" xmlns="http://www.w3.org/2000/svg">
<path d="M8.5 103V24.5H36.5V52H91V103H63.5V79H36.5V103H8.5Z" fill="white"/>
<path fill-rule="evenodd" clip-rule="evenodd" d="M59.9919 18.1963V45.3672H41.7305V18.1963H5.20429L5 109H41.5228V81.6136H59.5799L59.7842 108.791H96.3104V18.1963H59.9919ZM87.062 99.7333H69.0188V81.4086C68.8895 79.1221 67.9125 76.9668 66.2799 75.3665C64.6473 73.7662 62.4772 72.8366 60.1962 72.7604H41.7305C39.3942 72.7883 37.1525 73.6904 35.4443 75.29C33.7362 76.8897 32.6848 79.0717 32.496 81.4086V99.9383H14.2346V27.2544H32.496V54.4357H73.3296C76.8759 54.8279 80.1792 56.4346 82.683 58.9851C85.1869 61.5355 86.7382 64.874 87.0759 68.4381L87.062 99.7333Z" fill="#E83434"/>
<path d="M103.821 12.4285H108.848C109.551 12.405 110.251 12.5318 110.902 12.8003C111.394 13.0143 111.807 13.3777 112.083 13.8396C112.359 14.3014 112.483 14.8384 112.439 15.375C112.46 15.9323 112.317 16.4835 112.027 16.9593C111.739 17.3858 111.342 17.7267 110.877 17.9461C111.263 18.0825 111.603 18.323 111.861 18.641C112.121 19.0446 112.251 19.5192 112.231 19.9996L112.294 21.4623C112.285 21.7749 112.32 22.0871 112.397 22.39C112.414 22.5338 112.468 22.6707 112.555 22.7866C112.641 22.9026 112.756 22.9935 112.889 23.0502V23.2691H111.044C110.996 23.1556 110.954 23.0396 110.919 22.9216C110.867 22.6361 110.84 22.3467 110.836 22.0565L110.753 20.2463C110.771 19.9596 110.707 19.6736 110.569 19.422C110.431 19.1703 110.225 18.9633 109.974 18.8252C109.554 18.6716 109.108 18.6019 108.661 18.6202H105.344V23.2691H103.845V12.4285H103.821ZM108.703 17.3902C109.272 17.4168 109.836 17.2728 110.323 16.9767C110.536 16.7973 110.702 16.5681 110.806 16.3094C110.909 16.0508 110.948 15.7704 110.919 15.4931C110.951 15.1751 110.888 14.8548 110.738 14.5728C110.588 14.2908 110.358 14.0597 110.078 13.9087C109.702 13.7469 109.295 13.6698 108.886 13.6829H105.32V17.3902H108.686H108.703Z" fill="#E83434"/>
<path d="M107.678 25.691C106.131 25.691 104.62 25.2309 103.334 24.3688C102.048 23.5067 101.046 22.2814 100.455 20.8479C99.8628 19.4143 99.7079 17.8368 100.01 16.3149C100.311 14.793 101.056 13.3951 102.149 12.2979C103.243 11.2007 104.636 10.4535 106.152 10.1508C107.669 9.84803 109.241 10.0034 110.67 10.5972C112.098 11.191 113.319 12.1966 114.179 13.4868C115.038 14.777 115.496 16.2938 115.496 17.8455C115.493 19.9254 114.669 21.9194 113.203 23.3901C111.738 24.8608 109.75 25.6883 107.678 25.691ZM107.678 10.5768C106.246 10.5823 104.849 11.0132 103.661 11.8153C102.473 12.6173 101.549 13.7544 101.005 15.0831C100.461 16.4118 100.322 17.8724 100.604 19.2805C100.887 20.6887 101.579 21.9813 102.593 22.995C103.607 24.0088 104.898 24.6983 106.302 24.9765C107.707 25.2548 109.162 25.1092 110.484 24.5582C111.806 24.0073 112.935 23.0756 113.73 21.8809C114.525 20.6862 114.949 19.2819 114.949 17.8455C114.942 15.9152 114.172 14.0664 112.81 12.704C111.447 11.3417 109.601 10.5768 107.678 10.5768Z" fill="#DA3734"/>
</svg>
