<svg width="26" height="24" viewBox="0 0 26 24" fill="none" xmlns="http://www.w3.org/2000/svg">
<path fill-rule="evenodd" clip-rule="evenodd" d="M12.9408 2.09445V8.65089H8.64292V2.09445H0.0482682L0 24H8.59523V17.3939H12.8443L12.8917 23.9503H21.4881V2.09445H12.9408ZM19.3149 21.7647H15.0646V17.3442C15.0342 16.7927 14.8043 16.2728 14.4202 15.8867C14.0361 15.5006 13.5255 15.2762 12.9888 15.2576H8.64292C7.53275 15.2576 6.46998 16.251 6.46998 17.3442V21.8152H2.17294V4.27953H6.46998V10.836H16.0563C17.6015 10.836 19.3149 12.6241 19.3149 14.2136V21.7647Z" fill="#E73534"/>
<path d="M23.2525 0.582091H24.4371C24.6022 0.576747 24.7666 0.606481 24.9201 0.669434C25.0355 0.720848 25.1323 0.808176 25.1969 0.919136C25.2615 1.0301 25.2907 1.15911 25.2803 1.28802C25.2864 1.42328 25.2531 1.55733 25.1847 1.67299C25.1166 1.77626 25.0234 1.8593 24.9143 1.91378C25.0036 1.9465 25.0829 2.00307 25.144 2.0777C25.2045 2.17586 25.2349 2.29053 25.2312 2.40673L25.2428 2.7582C25.2438 2.83334 25.2521 2.90819 25.2675 2.98164C25.2731 3.01548 25.2863 3.04752 25.3059 3.07528C25.3255 3.10304 25.3511 3.12576 25.3807 3.14167V3.1997H24.9468C24.9332 3.17213 24.9234 3.14273 24.9177 3.11236C24.9082 3.04385 24.9024 2.97484 24.9003 2.90566L24.8794 2.46955C24.8836 2.39996 24.8685 2.33058 24.8357 2.26954C24.8029 2.2085 24.7539 2.15835 24.6944 2.12496C24.5963 2.08785 24.4918 2.07176 24.3874 2.0777H23.6052V3.2H23.2525V0.582091ZM24.3996 1.78157C24.5338 1.78891 24.6671 1.75406 24.7817 1.68166C24.8321 1.63848 24.8714 1.58307 24.8959 1.52042C24.9204 1.45777 24.9294 1.38983 24.9221 1.32272C24.93 1.24612 24.9154 1.16886 24.8804 1.10082C24.8453 1.03277 24.7913 0.977035 24.7253 0.940737C24.6368 0.901065 24.5407 0.882749 24.4444 0.887195H23.6049V1.78157H24.3996Z" fill="#E73534"/>
<path d="M24.1617 3.78089C23.7983 3.78078 23.4431 3.6698 23.1409 3.46201C22.8388 3.25421 22.6034 2.95892 22.4644 2.61348C22.3254 2.26803 22.289 1.88794 22.36 1.52127C22.431 1.1546 22.6061 0.817812 22.8631 0.553488C23.1201 0.289165 23.4476 0.109176 23.804 0.0362815C24.1605 -0.0366133 24.5299 0.000858754 24.8657 0.14396C25.2015 0.287061 25.4884 0.529364 25.6903 0.840234C25.8922 1.1511 26 1.51658 26 1.89045C25.9995 2.39176 25.8056 2.87237 25.461 3.22679C25.1163 3.58122 24.6491 3.7805 24.1617 3.78089ZM24.1617 0.134904C23.8241 0.134904 23.4941 0.23789 23.2134 0.430838C22.9327 0.623786 22.714 0.898028 22.5848 1.21888C22.4556 1.53974 22.4218 1.8928 22.4877 2.2334C22.5536 2.57401 22.7162 2.88687 22.9549 3.13242C23.1937 3.37797 23.4978 3.54517 23.8289 3.61289C24.16 3.6806 24.5032 3.64579 24.8151 3.51285C25.127 3.37991 25.3935 3.15481 25.5811 2.86602C25.7686 2.57724 25.8686 2.23773 25.8686 1.89045C25.868 1.42499 25.6879 0.978784 25.368 0.649685C25.048 0.320585 24.6142 0.135458 24.1617 0.134904Z" fill="#E73534"/>
<path d="M19.3149 21.7647H15.0646V17.3442C15.0343 16.7913 14.8053 16.2737 14.4202 15.8867C14.0351 15.4997 13.5269 15.2758 12.9888 15.2576H8.64292C7.53072 15.2576 6.47012 16.2268 6.47012 17.3224L6.46998 21.8152H2.17294V4.27953H6.46998V10.836H16.0563C17.6044 10.836 19.3149 12.6214 19.3149 14.2136V21.7647Z" fill="#FDFDFD"/>
</svg>
