<svg width="24" height="24" viewBox="0 0 24 24" fill="none" xmlns="http://www.w3.org/2000/svg">
<path fill-rule="evenodd" clip-rule="evenodd" d="M11.7998 3C6.82924 3 2.7998 7.02944 2.7998 12C2.7998 16.9706 6.82924 21 11.7998 21C16.7704 21 20.7998 16.9706 20.7998 12C20.7998 7.02944 16.7704 3 11.7998 3ZM18.7289 11C18.2904 7.93431 15.8655 5.5094 12.7998 5.07089V7.10002C14.7589 7.49771 16.3021 9.04088 16.6998 11H18.7289ZM16.6998 13H18.7289C18.2904 16.0657 15.8655 18.4906 12.7998 18.9291V16.9C14.7589 16.5023 16.3021 14.9591 16.6998 13ZM14.6291 11C14.3278 10.1476 13.6522 9.472 12.7998 9.17071V11H14.6291ZM12.7998 13H14.6291C14.3278 13.8524 13.6522 14.528 12.7998 14.8293V13ZM10.7998 11V9.17071C9.9474 9.472 9.2718 10.1476 8.97051 11H10.7998ZM8.97051 13H10.7998V14.8293C9.9474 14.528 9.2718 13.8524 8.97051 13ZM6.89982 11C7.29751 9.04088 8.84069 7.49771 10.7998 7.10002V5.07089C7.73411 5.5094 5.30921 7.93431 4.87069 11H6.89982ZM4.87069 13H6.89982C7.29751 14.9591 8.84069 16.5023 10.7998 16.9V18.9291C7.73411 18.4906 5.30921 16.0657 4.87069 13Z" fill="#8E8E90"/>
</svg>
