<svg width="18" height="18" viewBox="0 0 18 18" fill="none" xmlns="http://www.w3.org/2000/svg">
<path fill-rule="evenodd" clip-rule="evenodd" d="M6.34628 3.87211C7.15656 2.46866 9.18227 2.46865 9.99256 3.87211L13.9427 10.7139C14.753 12.1174 13.7401 13.8717 12.1196 13.8717H4.21928C2.59872 13.8717 1.58586 12.1174 2.39614 10.7139L6.34628 3.87211ZM8.77713 4.57384C8.50704 4.10602 7.8318 4.10602 7.56171 4.57384L3.61157 11.4157C3.34148 11.8835 3.67909 12.4683 4.21928 12.4683H12.1196C12.6597 12.4683 12.9974 11.8835 12.7273 11.4157L8.77713 4.57384ZM7.88856 7.4506C7.88856 7.06305 8.20273 6.74887 8.59029 6.74887C8.97784 6.74887 9.29201 7.06305 9.29201 7.4506V9.55578C9.29201 9.94333 8.97784 10.2575 8.59029 10.2575C8.20273 10.2575 7.88856 9.94333 7.88856 9.55578V7.4506ZM8.59029 10.9592C8.20273 10.9592 7.88856 11.2734 7.88856 11.661C7.88856 12.0485 8.20273 12.3627 8.59029 12.3627C8.97784 12.3627 9.29201 12.0485 9.29201 11.661C9.29201 11.2734 8.97784 10.9592 8.59029 10.9592Z" fill="#ffffff"/>
</svg>
