<svg width="8" height="7" viewBox="0 0 8 7" fill="none" xmlns="http://www.w3.org/2000/svg">
<path d="M5.05887 6.41113C4.95213 6.59004 4.79798 6.73872 4.61204 6.84213C4.4261 6.94554 4.21496 7 4 7C3.78504 7 3.5739 6.94554 3.38796 6.84213C3.20202 6.73872 3.04787 6.59004 2.94113 6.41113L0.163436 1.75455C0.056265 1.57657 -0.000105234 1.37465 1.47482e-07 1.16912C0.000105528 0.963603 0.0566832 0.761736 0.164036 0.583851C0.27139 0.405965 0.425729 0.258342 0.611512 0.155845C0.797295 0.053348 1.00796 -0.000403979 1.2223 2.28597e-06H6.7777C6.99204 -0.000403979 7.2027 0.053348 7.38849 0.155845C7.57427 0.258342 7.72861 0.405965 7.83596 0.583851C7.94332 0.761736 7.99989 0.963603 8 1.16912C8.0001 1.37465 7.94373 1.57657 7.83656 1.75455L5.05887 6.41113Z" fill="white"/>
</svg>
