<svg width="16" height="17" viewBox="0 0 16 17" fill="none" xmlns="http://www.w3.org/2000/svg">
<path d="M15 11.2675H3.37004L4.71204 9.89285C4.80396 9.79885 4.87647 9.68765 4.92545 9.5656C4.97442 9.44356 4.99888 9.31304 4.99744 9.18154C4.996 9.05003 4.96868 8.92012 4.91705 8.79918C4.86542 8.67823 4.79049 8.56863 4.69653 8.47666C4.60257 8.38469 4.49143 8.31214 4.36945 8.26315C4.24746 8.21415 4.11702 8.18968 3.98558 8.19112C3.85414 8.19256 3.72426 8.21989 3.60338 8.27154C3.48249 8.3232 3.37296 8.39816 3.28104 8.49217L0.299026 11.5477L0.294037 11.5537L0.287033 11.5607C0.267873 11.587 0.250185 11.6144 0.234039 11.6427C0.172592 11.7112 0.121087 11.788 0.0810394 11.8708V11.8838C0.0612136 11.9463 0.0478023 12.0107 0.0410309 12.0759C0.0243929 12.1338 0.0130167 12.1931 0.0070343 12.253V12.265C0.0131285 12.329 0.0251762 12.3923 0.0430298 12.4541C0.0496173 12.5153 0.0623579 12.5756 0.0810394 12.6342V12.6482C0.118795 12.7232 0.165831 12.7931 0.221039 12.8563C0.240998 12.891 0.263032 12.9244 0.287033 12.9564L3.28703 16.0289C3.47268 16.2187 3.72612 16.327 3.99158 16.3299C4.25703 16.3328 4.51277 16.2301 4.70253 16.0444C4.89229 15.8586 5.00054 15.6051 5.00345 15.3395C5.00636 15.0739 4.90368 14.818 4.71803 14.6282L3.37804 13.2555H15C15.2652 13.2555 15.5196 13.1501 15.7071 12.9625C15.8947 12.7748 16 12.5204 16 12.255C16 11.9897 15.8947 11.7352 15.7071 11.5476C15.5196 11.3599 15.2652 11.2545 15 11.2545V11.2675Z" fill="white" fill-opacity="0.8"/>
<path d="M14 0H2.00003C1.46666 0.00343958 0.956466 0.218523 0.581477 0.598011C0.206487 0.977498 -0.00263564 1.49038 2.50821e-05 2.024V6.12602C2.50821e-05 6.39137 0.105381 6.64583 0.292918 6.83346C0.480454 7.02109 0.734809 7.12651 1.00003 7.12651C1.26524 7.12651 1.5196 7.02109 1.70713 6.83346C1.89467 6.64583 2.00003 6.39137 2.00003 6.12602V2.00599L14 2.02901V8.16602C14 8.43137 14.1054 8.68583 14.2929 8.87346C14.4805 9.06109 14.7348 9.16651 15 9.16651C15.2652 9.16651 15.5196 9.06109 15.7071 8.87346C15.8947 8.68583 16 8.43137 16 8.16602V2.02C16.0016 1.48707 15.792 0.975228 15.4172 0.596606C15.0423 0.217985 14.5327 0.00343933 14 0Z" fill="white" fill-opacity="0.8"/>
</svg>
