<svg width="24" height="24" viewBox="0 0 24 24" fill="none" xmlns="http://www.w3.org/2000/svg">
<path fill-rule="evenodd" clip-rule="evenodd" d="M5.82279 4.82022V11.0899H7.03797V7.95503C7.03797 7.45239 7.44602 7.04492 7.94937 7.04492H16.0506C16.554 7.04492 16.962 7.45239 16.962 7.95503V11.0899H18.1772V4.82022H5.82279ZM4 4.80989V12V16.4931C4 17.5965 4.78851 18.7008 6.00637 18.7511C6.20017 19.9505 7.13797 21 8.45579 21C9.77293 21 10.7105 19.9516 10.905 18.7528H13.0951C13.2899 19.9518 14.2278 21 15.545 21C16.8629 21 17.8009 19.9506 17.995 18.751C19.212 18.7 20 17.5961 20 16.4931V12V4.80989C20 3.92885 19.3502 3 18.3007 3H5.69929C4.64976 3 4 3.92887 4 4.80989ZM18.1772 16.4931V12.9101H5.82279V16.4931C5.82279 16.6519 5.87926 16.7748 5.94364 16.8483C6.00644 16.92 6.06147 16.9326 6.09323 16.9326H6.88067C7.38402 16.9326 7.79207 17.3401 7.79207 17.8427V18.2911C7.79207 18.9005 8.20026 19.1798 8.45579 19.1798C8.71135 19.1798 9.11955 18.9004 9.11955 18.2911V17.8427C9.11955 17.3401 9.5276 16.9326 10.0309 16.9326H13.969C14.4724 16.9326 14.8804 17.3401 14.8804 17.8427V18.2903C14.8804 18.9 15.289 19.1798 15.545 19.1798C15.8009 19.1798 16.2094 18.9001 16.2094 18.2903V17.8427C16.2094 17.3401 16.6174 16.9326 17.1208 16.9326H17.9068C17.9385 16.9326 17.9935 16.9201 18.0564 16.8483C18.1207 16.7748 18.1772 16.6519 18.1772 16.4931ZM7.94937 14.1236C7.44602 14.1236 7.03797 14.5311 7.03797 15.0337C7.03797 15.5363 7.44602 15.9438 7.94937 15.9438H8.96203C9.46537 15.9438 9.87342 15.5363 9.87342 15.0337C9.87342 14.5311 9.46537 14.1236 8.96203 14.1236H7.94937ZM14.1266 15.0337C14.1266 14.5311 14.5346 14.1236 15.038 14.1236H16.0506C16.554 14.1236 16.962 14.5311 16.962 15.0337C16.962 15.5363 16.554 15.9438 16.0506 15.9438H15.038C14.5346 15.9438 14.1266 15.5363 14.1266 15.0337ZM8.86076 11.0899V8.86515H15.1392V11.0899H8.86076Z" fill="white" fill-opacity="0.8"/>
</svg>
