<svg width="8" height="12" viewBox="0 0 8 12" fill="none" xmlns="http://www.w3.org/2000/svg">
<path d="M7.49998 6.04335C7.49992 5.77953 7.39554 5.52653 7.20979 5.34001L2.25779 0.365945C2.17025 0.258163 2.06117 0.170003 1.9376 0.107192C1.81404 0.0443822 1.67873 0.00829374 1.54042 0.0012688C1.40211 -0.00575615 1.26387 0.0164501 1.13462 0.0664198C1.00538 0.11639 0.888008 0.193021 0.790082 0.291382C0.692157 0.389744 0.615859 0.507659 0.566111 0.637478C0.516363 0.767297 0.49427 0.906125 0.501264 1.04505C0.508257 1.18398 0.544182 1.31989 0.606714 1.444C0.669245 1.56812 0.756995 1.67769 0.864299 1.76563L5.11311 6.04335L0.861329 10.3141C0.68092 10.5017 0.581093 10.753 0.583349 11.0138C0.585606 11.2747 0.689764 11.5242 0.873392 11.7086C1.05702 11.8931 1.30543 11.9977 1.5651 12C1.82478 12.0022 2.07496 11.902 2.26175 11.7207L7.21375 6.74668C7.30532 6.65423 7.37775 6.54446 7.42688 6.42375C7.47601 6.30303 7.50085 6.17375 7.49998 6.04335Z" fill="white" fill-opacity="0.5"/>
</svg>
