<svg width="8" height="12" viewBox="0 0 8 12" fill="none" xmlns="http://www.w3.org/2000/svg">
<path d="M0.500022 6.04335C0.500078 5.77953 0.60446 5.52653 0.790209 5.34001L5.74221 0.365945C5.82975 0.258163 5.93883 0.170003 6.0624 0.107192C6.18596 0.0443822 6.32127 0.00829374 6.45958 0.0012688C6.59789 -0.00575615 6.73613 0.0164501 6.86538 0.0664198C6.99462 0.11639 7.11199 0.193021 7.20992 0.291382C7.30784 0.389744 7.38414 0.507659 7.43389 0.637478C7.48364 0.767297 7.50573 0.906125 7.49874 1.04505C7.49174 1.18398 7.45582 1.31989 7.39329 1.444C7.33075 1.56812 7.243 1.67769 7.1357 1.76563L2.88689 6.04335L7.13867 10.3141C7.31908 10.5017 7.41891 10.753 7.41665 11.0138C7.41439 11.2747 7.31024 11.5242 7.12661 11.7086C6.94298 11.8931 6.69457 11.9977 6.4349 12C6.17522 12.0022 5.92504 11.902 5.73825 11.7207L0.786249 6.74668C0.694682 6.65423 0.622247 6.54446 0.57312 6.42375C0.523995 6.30303 0.499151 6.17375 0.500022 6.04335Z" fill="white" fill-opacity="0.8"/>
</svg>
