<svg width="24" height="24" viewBox="0 0 24 24" fill="none" xmlns="http://www.w3.org/2000/svg">
<path d="M15 7H18.5714C19.2449 7 19.5816 7 19.7908 7.20921C20 7.41843 20 7.75514 20 8.42857V15.5714C20 16.2449 20 16.5816 19.7908 16.7908C19.5816 17 19.2449 17 18.5714 17H15" stroke="#8E8E90" stroke-width="2" stroke-linecap="round" stroke-linejoin="round"/>
<path d="M9 7H5.42857C4.75514 7 4.41842 7 4.20921 7.20921C4 7.41843 4 7.75514 4 8.42857V15.5714C4 16.2449 4 16.5816 4.20921 16.7908C4.41842 17 4.75514 17 5.42857 17H9" stroke="#8E8E90" stroke-width="2" stroke-linecap="round" stroke-linejoin="round"/>
<path d="M12 5V19" stroke="#8E8E90" stroke-width="2" stroke-linecap="round" stroke-linejoin="round"/>
</svg>
