<svg width="24" height="24" viewBox="0 0 24 24" fill="none" xmlns="http://www.w3.org/2000/svg">
<path fill-rule="evenodd" clip-rule="evenodd" d="M6.07276 6.04844C6.03395 6.09002 6 6.15886 6 6.25V10C6 10.5523 5.55228 11 5 11C4.44772 11 4 10.5523 4 10V6.25C4 5.07346 4.90619 4 6.16667 4H17.8333C19.0938 4 20 5.07348 20 6.25V10C20 10.5523 19.5523 11 19 11C18.4477 11 18 10.5523 18 10V6.25C18 6.15885 17.966 6.09001 17.9272 6.04843C17.8895 6.00804 17.8561 6 17.8333 6H6.16667C6.1439 6 6.11047 6.00803 6.07276 6.04844Z" fill="#FFFFFFCC"/>
<path fill-rule="evenodd" clip-rule="evenodd" d="M15 11C15.5523 11 16 11.4477 16 12V15C16 15.5523 15.5523 16 15 16C14.4477 16 14 15.5523 14 15V12C14 11.4477 14.4477 11 15 11Z" fill="#FFFFFFCC"/>
<path fill-rule="evenodd" clip-rule="evenodd" d="M12 7C12.5523 7 13 7.44772 13 8V15C13 15.5523 12.5523 16 12 16C11.4477 16 11 15.5523 11 15V8C11 7.44772 11.4477 7 12 7Z" fill="#FFFFFFCC"/>
<path fill-rule="evenodd" clip-rule="evenodd" d="M9 9C9.55228 9 10 9.44772 10 10V15C10 15.5523 9.55228 16 9 16C8.44772 16 8 15.5523 8 15V10C8 9.44772 8.44772 9 9 9Z" fill="#FFFFFFCC"/>
<path fill-rule="evenodd" clip-rule="evenodd" d="M5 13C5.55228 13 6 13.4477 6 14V17.75C6 17.8412 6.03396 17.91 6.07276 17.9516C6.11046 17.992 6.14389 18 6.16667 18H17.8333C17.8561 18 17.8895 17.992 17.9272 17.9516C17.966 17.91 18 17.8412 18 17.75V14C18 13.4477 18.4477 13 19 13C19.5523 13 20 13.4477 20 14V17.75C20 18.9266 19.0938 20 17.8333 20H6.16667C4.9062 20 4 18.9266 4 17.75V14C4 13.4477 4.44772 13 5 13Z" fill="#FFFFFFCC"/>
</svg>
