<svg width="24" height="24" viewBox="0 0 24 24" fill="none" xmlns="http://www.w3.org/2000/svg">
<path fill-rule="evenodd" clip-rule="evenodd" d="M12 21C13.4761 21 16 19.2 16 12C16 4.8 13.4761 3 12 3C10.5239 3 8 4.92129 8 12C8 19.0787 10.5239 21 12 21Z" stroke="#0AE7E7" stroke-width="2" stroke-linecap="round" stroke-linejoin="round"/>
<path fill-rule="evenodd" clip-rule="evenodd" d="M4.21968 16.8258C4.88229 18.0626 7.57028 19.2098 13.7903 15.3398C20.0103 11.4698 20.4323 8.38748 19.7697 7.15069C19.1071 5.91391 16.3144 4.83182 10.1992 8.6367C4.08391 12.4415 3.55708 15.589 4.21968 16.8258Z" stroke="#0AE7E7" stroke-width="2" stroke-linecap="round" stroke-linejoin="round"/>
<path fill-rule="evenodd" clip-rule="evenodd" d="M4.23029 7.15069C3.56769 8.38748 3.98973 11.4698 10.2098 15.3398C16.4298 19.2098 19.1177 18.0626 19.7803 16.8258C20.4429 15.589 19.9161 12.4415 13.8009 8.6367C7.68565 4.83182 4.8929 5.91391 4.23029 7.15069Z" stroke="#0AE7E7" stroke-width="2" stroke-linecap="round" stroke-linejoin="round"/>
</svg>
