<svg width="24" height="24" viewBox="0 0 24 24" fill="none" xmlns="http://www.w3.org/2000/svg">
<path d="M14.2793 8.98028C14.3762 8.98028 14.471 8.99984 14.5605 9.03693C14.6501 9.07401 14.7323 9.12855 14.8008 9.19708C14.8693 9.26561 14.9238 9.34582 14.9609 9.43536C14.998 9.5249 15.0176 9.62165 15.0176 9.71857L15.0176 13.1502C15.0176 13.3453 14.9387 13.5318 14.8008 13.6697C14.6628 13.8077 14.4763 13.8846 14.2812 13.8846C14.0862 13.8846 13.8997 13.8077 13.7617 13.6697C13.6238 13.5318 13.5469 13.3453 13.5469 13.1502L13.5469 11.4432L10.7617 14.117C10.623 14.2533 10.4348 14.3297 10.2402 14.3299C10.0458 14.3277 9.86099 14.2516 9.7207 14.117C9.58288 13.9788 9.50391 13.7907 9.50391 13.5955C9.50391 13.4004 9.58288 13.2142 9.7207 13.076L12.4512 10.451H10.8477C10.6526 10.451 10.4641 10.3741 10.3262 10.2361C10.1882 10.0982 10.1113 9.90973 10.1113 9.71466C10.1113 9.51959 10.1882 9.33306 10.3262 9.19513C10.4641 9.0572 10.6526 8.98028 10.8477 8.98028H14.2793ZM8.73242 14.3143C8.85731 14.3143 8.98032 14.3387 9.0957 14.3865C9.21108 14.4343 9.31599 14.5033 9.4043 14.5916C9.49261 14.6799 9.56354 14.7848 9.61133 14.9002C9.65912 15.0156 9.68359 15.1406 9.68359 15.2654V19.0467C9.68373 19.1716 9.65907 19.2945 9.61133 19.41C9.56358 19.5254 9.49263 19.6302 9.4043 19.7186C9.31596 19.8069 9.21114 19.8779 9.0957 19.9256C8.98026 19.9733 8.85735 19.998 8.73242 19.9979H4.94531C4.82078 19.9976 4.69696 19.9716 4.58203 19.9236C4.46711 19.8757 4.36317 19.8049 4.27539 19.7166C4.18761 19.6283 4.11754 19.5252 4.07031 19.41C4.02308 19.2947 3.99947 19.1712 4 19.0467V15.2654C3.99947 15.0141 4.09823 14.7719 4.27539 14.5936C4.45256 14.4153 4.69397 14.3153 4.94531 14.3143H8.73242Z" fill="#FFFFFFCC"/>
<path d="M19.953 17.975V5.99799C19.953 5.46755 19.7423 4.95885 19.3672 4.58377C18.9921 4.2087 18.4834 3.99799 17.953 3.99799L6.021 3.99799C5.49057 3.99799 4.98186 4.2087 4.60679 4.58377C4.23172 4.95885 4.021 5.46755 4.021 5.99799V10.536C4.021 10.8012 4.12636 11.0556 4.3139 11.2431C4.50143 11.4306 4.75579 11.536 5.021 11.536C5.28622 11.536 5.54057 11.4306 5.72811 11.2431C5.91565 11.0556 6.021 10.8012 6.021 10.536V5.99799L17.953 5.99799V17.975H14.643C14.3778 17.975 14.1234 18.0803 13.9359 18.2679C13.7484 18.4554 13.643 18.7098 13.643 18.975C13.643 19.2402 13.7484 19.4946 13.9359 19.6821C14.1234 19.8696 14.3778 19.975 14.643 19.975H17.953C18.4834 19.975 18.9921 19.7643 19.3672 19.3892C19.7423 19.0141 19.953 18.5054 19.953 17.975Z" fill="#FFFFFFCC"/>
</svg>
