<svg width="24" height="24" viewBox="0 0 24 24" fill="none" xmlns="http://www.w3.org/2000/svg">
<path d="M16.9766 6H7.02344C6.38917 6 5.875 6.48393 5.875 7.08088V17.1691C5.875 17.7661 6.38917 18.25 7.02344 18.25H16.9766C17.6108 18.25 18.125 17.7661 18.125 17.1691V7.08088C18.125 6.48393 17.6108 6 16.9766 6Z" stroke="#20FFFF" stroke-width="1.5" stroke-linejoin="round"/>
<path d="M8.5 18.25V20" stroke="#20FFFF" stroke-width="1.5" stroke-linecap="round" stroke-linejoin="round"/>
<path d="M15.5 18.25V20" stroke="#20FFFF" stroke-width="1.5" stroke-linecap="round" stroke-linejoin="round"/>
<path d="M15.5 16.5C15.9832 16.5 16.375 16.1082 16.375 15.625C16.375 15.1418 15.9832 14.75 15.5 14.75C15.0168 14.75 14.625 15.1418 14.625 15.625C14.625 16.1082 15.0168 16.5 15.5 16.5Z" fill="#20FFFF"/>
<path d="M8.5 16.5C8.98325 16.5 9.375 16.1082 9.375 15.625C9.375 15.1418 8.98325 14.75 8.5 14.75C8.01675 14.75 7.625 15.1418 7.625 15.625C7.625 16.1082 8.01675 16.5 8.5 16.5Z" fill="#20FFFF"/>
<path d="M5.875 13H18.125" stroke="#20FFFF" stroke-width="1.5" stroke-linecap="round" stroke-linejoin="round"/>
<path d="M5.875 12.125V13" stroke="#20FFFF" stroke-width="1.5" stroke-linecap="round" stroke-linejoin="round"/>
<path d="M18.125 12.125V13" stroke="#20FFFF" stroke-width="1.5" stroke-linecap="round" stroke-linejoin="round"/>
<path d="M9.375 8.625H14.625" stroke="#20FFFF" stroke-width="1.5" stroke-linecap="round" stroke-linejoin="round"/>
</svg>
