<svg width="32" height="32" viewBox="0 0 32 32" fill="none" xmlns="http://www.w3.org/2000/svg">
<path d="M22.6963 23.977C22.3421 23.9769 22.0024 23.8365 21.752 23.5867L16.018 17.8686L10.2839 23.5867C10.0307 23.8174 9.69834 23.9421 9.35551 23.935C9.01269 23.9279 8.68572 23.7897 8.44231 23.5488C8.1989 23.308 8.05769 22.983 8.04795 22.6412C8.0382 22.2994 8.16065 21.9669 8.38993 21.7127L14.124 15.9945L8.38993 10.2764C8.15944 10.0232 8.03539 9.69142 8.04346 9.3496C8.05153 9.00778 8.19112 8.68214 8.4333 8.44012C8.67549 8.19809 9.00174 8.0582 9.34449 8.04942C9.68724 8.04065 10.0202 8.16365 10.2746 8.39296L16.018 14.1071L21.7467 8.39296C21.8699 8.26575 22.0173 8.16428 22.1802 8.09447C22.3432 8.02467 22.5185 7.98792 22.6958 7.98638C22.8732 7.98484 23.049 8.01855 23.2132 8.08552C23.3773 8.15249 23.5265 8.25139 23.6519 8.37645C23.7773 8.50151 23.8765 8.65024 23.9436 8.81393C24.0108 8.97762 24.0446 9.15301 24.043 9.32987C24.0415 9.50673 24.0047 9.68151 23.9347 9.84401C23.8647 10.0065 23.7629 10.1535 23.6353 10.2764L17.9013 15.9852L23.6313 21.7127C23.818 21.8989 23.9452 22.1362 23.9967 22.3946C24.0482 22.6529 24.0218 22.9207 23.9207 23.164C23.8197 23.4074 23.6485 23.6154 23.4289 23.7618C23.2093 23.9081 22.9511 23.9863 22.687 23.9863L22.6963 23.977Z" fill="white" fill-opacity="0.8"/>
</svg>
