<svg width="24" height="24" viewBox="0 0 24 24" fill="none" xmlns="http://www.w3.org/2000/svg">
<path d="M6.66659 8.44472L12 11.1114L17.3334 8.44472L12 5.77802L6.66659 8.44472ZM12.4347 4.10333L19.5396 7.72649C19.9716 7.94694 20.1272 8.4465 19.8872 8.84384C19.8035 8.98033 19.6835 9.09083 19.5405 9.16295L12.4347 12.7861C12.2999 12.8541 12.151 12.8895 12 12.8895C11.849 12.8895 11.7001 12.8541 11.5653 12.7861L4.46034 9.16295C4.02833 8.9425 3.87278 8.44294 4.11278 8.04561C4.19647 7.90911 4.31651 7.79861 4.45945 7.72649L11.5653 4.10333C11.8355 3.96556 12.1644 3.96556 12.4347 4.10333ZM12.4347 16.3399C12.3002 16.409 12.1512 16.4451 12 16.4451C11.8488 16.4451 11.6998 16.409 11.5653 16.3399L4.46034 12.6537C4.02833 12.4297 3.87278 11.9212 4.11278 11.5176C4.19592 11.3794 4.31597 11.267 4.45945 11.1932C4.56309 11.1393 4.67819 11.1111 4.79501 11.1111C4.91183 11.1111 5.02693 11.1393 5.13057 11.1932L11.5662 14.531C11.8355 14.6715 12.1644 14.6715 12.4347 14.531L18.8694 11.1932C18.9729 11.1394 19.0879 11.1114 19.2045 11.1114C19.3212 11.1114 19.4361 11.1394 19.5396 11.1932C19.9716 11.4172 20.1272 11.9257 19.8872 12.3292C19.8041 12.4675 19.684 12.5799 19.5405 12.6537L12.4347 16.3399ZM12.4347 19.8955C12.3002 19.9646 12.1512 20.0007 12 20.0007C11.8488 20.0007 11.6998 19.9646 11.5653 19.8955L4.46034 16.2093C4.02833 15.9853 3.87278 15.4768 4.11278 15.0732C4.19592 14.935 4.31597 14.8226 4.45945 14.7488C4.56309 14.6949 4.67819 14.6667 4.79501 14.6667C4.91183 14.6667 5.02693 14.6949 5.13057 14.7488L11.5662 18.0866C11.8355 18.2271 12.1644 18.2271 12.4347 18.0866L18.8694 14.7488C18.9729 14.695 19.0879 14.667 19.2045 14.667C19.3212 14.667 19.4361 14.695 19.5396 14.7488C19.9716 14.9728 20.1272 15.4813 19.8872 15.8848C19.8041 16.0231 19.684 16.1355 19.5405 16.2093L12.4347 19.8955Z" fill="#ffffff"/>
</svg>
