<svg width="24" height="24" viewBox="0 0 24 24" fill="none" xmlns="http://www.w3.org/2000/svg">
<path fill-rule="evenodd" clip-rule="evenodd" d="M11 5.07089C7.93431 5.5094 5.5094 7.93431 5.07089 11H7C7.55228 11 8 11.4477 8 12C8 12.5523 7.55228 13 7 13H5.07089C5.5094 16.0657 7.93431 18.4906 11 18.9291V17C11 16.4477 11.4477 16 12 16C12.5523 16 13 16.4477 13 17V18.9291C16.0657 18.4906 18.4906 16.0657 18.9291 13H17C16.4477 13 16 12.5523 16 12C16 11.4477 16.4477 11 17 11H18.9291C18.4906 7.93431 16.0657 5.5094 13 5.07089V7C13 7.55228 12.5523 8 12 8C11.4477 8 11 7.55228 11 7V5.07089ZM12 3C16.9706 3 21 7.02944 21 12C21 16.9706 16.9706 21 12 21C7.02944 21 3 16.9706 3 12C3 7.02944 7.02944 3 12 3Z" fill="#8E8E90"/>
</svg>
