<svg width="16" height="16" viewBox="0 0 16 16" fill="none" xmlns="http://www.w3.org/2000/svg">
<path d="M14 5.995H13.08V5.82C13.08 2.613 10.8 0 8 0C5.2 0 2.917 2.609 2.917 5.816V5.991H2C1.46957 5.991 0.960858 6.20171 0.585785 6.57679C0.210712 6.95186 0 7.46057 0 7.991V14C0 14.5304 0.210712 15.0391 0.585785 15.4142C0.960858 15.7893 1.46957 16 2 16H14C14.5304 16 15.0391 15.7893 15.4142 15.4142C15.7893 15.0391 16 14.5304 16 14V7.995C16 7.46457 15.7893 6.95586 15.4142 6.58078C15.0391 6.20571 14.5304 5.995 14 5.995ZM4.917 5.82C4.917 3.72 6.3 2.004 8 2.004C9.7 2.004 11.084 3.716 11.084 5.82V5.995H4.913L4.917 5.82ZM2 14V7.995H14V14.004L2 14Z" fill="white"/>
<path d="M8 8.994C7.73478 8.994 7.48043 9.09936 7.29289 9.28689C7.10536 9.47443 7 9.72878 7 9.994V12.005C7 12.2702 7.10536 12.5246 7.29289 12.7121C7.48043 12.8996 7.73478 13.005 8 13.005C8.26522 13.005 8.51957 12.8996 8.70711 12.7121C8.89464 12.5246 9 12.2702 9 12.005V9.994C9 9.72878 8.89464 9.47443 8.70711 9.28689C8.51957 9.09936 8.26522 8.994 8 8.994Z" fill="white"/>
</svg>
