<svg width="24" height="24" viewBox="0 0 24 24" fill="none" xmlns="http://www.w3.org/2000/svg">
<path d="M4.61069 17.1393C3.59536 15.6822 3 13.9106 3 12C3 7.02943 7.02943 3 12 3C16.9706 3 21 7.02943 21 12C21 16.9706 16.9706 21 12 21C10.0894 21 8.31783 20.4046 6.86068 19.3893M4.61069 17.1393C5.22146 18.0158 5.98417 18.7785 6.86068 19.3893M4.61069 17.1393L8.4 13.35M6.86068 19.3893L10.65 15.6M8.4 13.35L10.2 11.55L12.45 13.8L10.65 15.6M8.4 13.35L10.65 15.6" stroke="#0AE7E7" stroke-width="1.8" stroke-linecap="round" stroke-linejoin="round"/>
<path d="M9 7.5H11M10 6V9" stroke="#0AE7E7" stroke-width="1.8" stroke-linecap="round" stroke-linejoin="round"/>
<path d="M14 8.5H17M15.5 7V10" stroke="#0AE7E7" stroke-width="1.8" stroke-linecap="round" stroke-linejoin="round"/>
<path d="M15 14H18M16.5 13V15" stroke="#0AE7E7" stroke-width="1.8" stroke-linecap="round" stroke-linejoin="round"/>
</svg>
