<svg width="17" height="15" viewBox="0 0 17 15" fill="none" xmlns="http://www.w3.org/2000/svg">
<path d="M15.0031 6.995H1.00305C0.737835 6.995 0.483465 7.10035 0.295929 7.28789C0.108393 7.47542 0.00305176 7.72978 0.00305176 7.995C0.00305176 8.26021 0.108393 8.51457 0.295929 8.7021C0.483465 8.88964 0.737835 8.995 1.00305 8.995H15.0031C15.2683 8.995 15.5226 8.88964 15.7101 8.7021C15.8977 8.51457 16.0031 8.26021 16.0031 7.995C16.0031 7.72978 15.8977 7.47542 15.7101 7.28789C15.5226 7.10035 15.2683 6.995 15.0031 6.995Z" fill="#FFFFFFCC"/>
<path d="M1.00305 2.995H15.0031C15.2683 2.995 15.5226 2.88964 15.7101 2.7021C15.8977 2.51457 16.0031 2.26021 16.0031 1.995C16.0031 1.72978 15.8977 1.47542 15.7101 1.28789C15.5226 1.10035 15.2683 0.994995 15.0031 0.994995H1.00305C0.737835 0.994995 0.483465 1.10035 0.295929 1.28789C0.108393 1.47542 0.00305176 1.72978 0.00305176 1.995C0.00305176 2.26021 0.108393 2.51457 0.295929 2.7021C0.483465 2.88964 0.737835 2.995 1.00305 2.995Z" fill="#FFFFFFCC"/>
<path d="M15.0031 12.995H1.00305C0.737835 12.995 0.483465 13.1004 0.295929 13.2879C0.108393 13.4754 0.00305176 13.7298 0.00305176 13.995C0.00305176 14.2602 0.108393 14.5146 0.295929 14.7021C0.483465 14.8896 0.737835 14.995 1.00305 14.995H15.0031C15.2683 14.995 15.5226 14.8896 15.7101 14.7021C15.8977 14.5146 16.0031 14.2602 16.0031 13.995C16.0031 13.7298 15.8977 13.4754 15.7101 13.2879C15.5226 13.1004 15.2683 12.995 15.0031 12.995Z" fill="#FFFFFFCC"/>
</svg>
