<svg width="24" height="24" viewBox="0 0 24 24" fill="none" xmlns="http://www.w3.org/2000/svg">
<path d="M18 4H6C5.46957 4 4.96086 4.21071 4.58578 4.58578C4.21071 4.96086 4 5.46957 4 6V19C4.00018 19.1754 4.0465 19.3478 4.13434 19.4996C4.22218 19.6515 4.34844 19.7776 4.50043 19.8652C4.65242 19.9529 4.82479 19.999 5.00024 19.999C5.17569 19.9989 5.34806 19.9527 5.5 19.865L8.64398 18.036H18C18.5304 18.036 19.0391 17.8253 19.4142 17.4502C19.7893 17.0751 20 16.5664 20 16.036V6C20 5.46957 19.7893 4.96086 19.4142 4.58578C19.0391 4.21071 18.5304 4 18 4ZM18 16.036H8.37698C8.20126 16.0366 8.02881 16.0835 7.87698 16.172L6.00299 17.262V6H18.003L18 16.036Z" fill="white" fill-opacity="0.8"/>
<path d="M10 10.019H14C14.2652 10.019 14.5196 9.91364 14.7071 9.7261C14.8946 9.53857 15 9.2842 15 9.01898C15 8.75377 14.8946 8.49943 14.7071 8.31189C14.5196 8.12435 14.2652 8.01898 14 8.01898H10C9.73478 8.01898 9.48041 8.12435 9.29288 8.31189C9.10534 8.49943 9 8.75377 9 9.01898C9 9.2842 9.10534 9.53857 9.29288 9.7261C9.48041 9.91364 9.73478 10.019 10 10.019Z" fill="white" fill-opacity="0.8"/>
<path d="M12.022 12.019H10.022C9.75676 12.019 9.50242 12.1244 9.31488 12.3119C9.12734 12.4994 9.02197 12.7538 9.02197 13.019C9.02197 13.2842 9.12734 13.5386 9.31488 13.7261C9.50242 13.9136 9.75676 14.019 10.022 14.019H12.022C12.2872 14.019 12.5416 13.9136 12.7291 13.7261C12.9166 13.5386 13.022 13.2842 13.022 13.019C13.022 12.7538 12.9166 12.4994 12.7291 12.3119C12.5416 12.1244 12.2872 12.019 12.022 12.019Z" fill="white" fill-opacity="0.8"/>
</svg>
