<svg width="24" height="24" viewBox="0 0 24 24" fill="none" xmlns="http://www.w3.org/2000/svg">
<path fill-rule="evenodd" clip-rule="evenodd" d="M12 20C16.4183 20 20 16.4183 20 12C20 7.58172 16.4183 4 12 4C7.58172 4 4 7.58172 4 12C4 16.4183 7.58172 20 12 20ZM10.2221 8.77776C10.7744 8.77776 11.2221 9.22548 11.2221 9.77776L11.2221 14.2222C11.2221 14.7745 10.7744 15.2222 10.2221 15.2222C9.6698 15.2222 9.22209 14.7745 9.22209 14.2222V9.77776C9.22209 9.22548 9.6698 8.77776 10.2221 8.77776ZM13.7778 8.77776C14.3301 8.77776 14.7778 9.22548 14.7778 9.77776V14.2222C14.7778 14.7745 14.3301 15.2222 13.7778 15.2222C13.2255 15.2222 12.7778 14.7745 12.7778 14.2222V9.77776C12.7778 9.22548 13.2255 8.77776 13.7778 8.77776Z" fill="#9F8EFF"/>
</svg>
