<svg width="16" height="17" viewBox="0 0 16 17" fill="none" xmlns="http://www.w3.org/2000/svg">
<path d="M11.187 7.67344C11.8139 7.04315 12.2401 6.24128 12.4118 5.36903C12.5835 4.49678 12.493 3.59322 12.1516 2.77235C11.8103 1.95149 11.2336 1.25011 10.4941 0.75671C9.75457 0.26331 8.88549 0 7.99651 0C7.10752 0 6.23844 0.26331 5.49895 0.75671C4.75945 1.25011 4.18266 1.95149 3.84135 2.77235C3.50005 3.59322 3.40954 4.49678 3.58121 5.36903C3.75289 6.24128 4.17908 7.04315 4.806 7.67344C3.37962 8.29596 2.16549 9.32052 1.31199 10.6219C0.458486 11.9233 0.00258239 13.4451 0 15.0014C0 15.2667 0.105356 15.521 0.292892 15.7085C0.480429 15.8961 0.734784 16.0014 1 16.0014C1.26522 16.0014 1.51957 15.8961 1.70711 15.7085C1.89464 15.521 2 15.2667 2 15.0014C2 13.4101 2.63214 11.884 3.75736 10.7588C4.88258 9.63358 6.4087 9.00144 8 9.00144C9.5913 9.00144 11.1174 9.63358 12.2426 10.7588C13.3679 11.884 14 13.4101 14 15.0014C14 15.2667 14.1054 15.521 14.2929 15.7085C14.4804 15.8961 14.7348 16.0014 15 16.0014C15.2652 16.0014 15.5196 15.8961 15.7071 15.7085C15.8946 15.521 16 15.2667 16 15.0014C15.9968 13.4444 15.5399 11.922 14.6851 10.6205C13.8303 9.31902 12.6147 8.29491 11.187 7.67344ZM5.5 4.50144C5.5 4.00698 5.64662 3.52363 5.92133 3.11251C6.19603 2.70139 6.58648 2.38096 7.0433 2.19174C7.50011 2.00252 8.00278 1.95301 8.48773 2.04947C8.97268 2.14594 9.41814 2.38404 9.76777 2.73367C10.1174 3.0833 10.3555 3.52876 10.452 4.01371C10.5484 4.49866 10.4989 5.00133 10.3097 5.45815C10.1205 5.91496 9.80005 6.30541 9.38893 6.58011C8.97781 6.85482 8.49445 7.00144 8 7.00144C7.33696 7.00144 6.70108 6.73804 6.23224 6.2692C5.7634 5.80036 5.5 5.16448 5.5 4.50144Z" fill="white"/>
</svg>
