<svg width="24" height="24" viewBox="0 0 24 24" fill="none" xmlns="http://www.w3.org/2000/svg">
<path d="M18.1302 5.00017H5.87485C5.38499 4.9935 4.91245 5.18084 4.56082 5.52113C4.2092 5.86141 4.00719 6.32689 3.99902 6.81552V14.1647C4.00745 14.6531 4.20963 15.1182 4.56125 15.4581C4.91287 15.798 5.38526 15.985 5.87485 15.9781H7.00434L9.22831 18.6407C9.24632 18.6627 9.27333 18.6707 9.29334 18.6906C9.31293 18.7177 9.33396 18.7437 9.35635 18.7685C9.40496 18.8023 9.45652 18.8317 9.51041 18.8563C9.54487 18.8787 9.58064 18.899 9.61749 18.9172C9.73683 18.9694 9.86534 18.9976 9.99564 19C10.1263 18.9976 10.2551 18.9694 10.3748 18.9172C10.4117 18.899 10.4474 18.8787 10.4818 18.8563C10.5357 18.8317 10.5873 18.8023 10.6359 18.7685C10.6583 18.7437 10.6794 18.7177 10.699 18.6906C10.718 18.6707 10.746 18.6627 10.764 18.6407L12.988 15.9781H18.1232C18.6129 15.9853 19.0854 15.7984 19.4371 15.4584C19.7888 15.1185 19.9909 14.6532 19.999 14.1647V6.81552C19.9911 6.32803 19.7901 5.86346 19.44 5.52332C19.0898 5.18318 18.6189 4.9951 18.1302 5.00017ZM18.0052 13.9821H12.6778C12.6122 13.9884 12.5475 14.0018 12.4847 14.022C12.3419 14.0223 12.2009 14.0535 12.0713 14.1134C11.9418 14.1734 11.8268 14.2607 11.7344 14.3693L10.0017 16.4421L8.26988 14.3693C8.17751 14.2606 8.06259 14.1733 7.93303 14.1133C7.80347 14.0534 7.66238 14.0222 7.51955 14.022C7.45685 14.0017 7.3921 13.9883 7.32647 13.9821H6.0039V6.99616H18.0092L18.0052 13.9821Z" fill="#ffffff"/>
<path d="M10.0057 11.4871H14.0074C14.2727 11.4871 14.5272 11.382 14.7148 11.1948C14.9024 11.0076 15.0079 10.7538 15.0079 10.4891C15.0079 10.2244 14.9024 9.97059 14.7148 9.78343C14.5272 9.59627 14.2727 9.49113 14.0074 9.49113H10.0057C9.74032 9.49113 9.48584 9.59627 9.29822 9.78343C9.1106 9.97059 9.00522 10.2244 9.00522 10.4891C9.00522 10.7538 9.1106 11.0076 9.29822 11.1948C9.48584 11.382 9.74032 11.4871 10.0057 11.4871Z" fill="#ffffff"/>
</svg>
