<svg width="13" height="13" viewBox="0 0 13 13" fill="none" xmlns="http://www.w3.org/2000/svg">
<path d="M11.0222 12.9827C10.7565 12.9827 10.5017 12.8774 10.3139 12.6901L6.01338 8.40144L1.71285 12.6901C1.52297 12.863 1.27366 12.9565 1.01654 12.9513C0.759425 12.946 0.5142 12.8423 0.331643 12.6616C0.149087 12.481 0.0431786 12.2372 0.0358674 11.9809C0.0285562 11.7245 0.120393 11.4752 0.292359 11.2845L4.5929 6.99588L0.292359 2.70728C0.119492 2.51743 0.0264497 2.26856 0.0325046 2.0122C0.0385595 1.75583 0.143248 1.51161 0.324887 1.33009C0.506526 1.14857 0.75121 1.04365 1.00827 1.03707C1.26534 1.03049 1.51509 1.12274 1.70583 1.29472L6.01338 5.58034L10.3099 1.29472C10.4023 1.19931 10.5129 1.12321 10.6351 1.07085C10.7573 1.0185 10.8888 0.990936 11.0218 0.989784C11.1548 0.988631 11.2867 1.01391 11.4098 1.06414C11.5329 1.11437 11.6448 1.18854 11.7388 1.28234C11.8329 1.37614 11.9073 1.48768 11.9576 1.61045C12.008 1.73322 12.0333 1.86476 12.0322 1.9974C12.031 2.13005 12.0034 2.26113 11.9509 2.38301C11.8984 2.50489 11.8221 2.61513 11.7264 2.70728L7.42586 6.98889L11.7234 11.2845C11.8634 11.4242 11.9588 11.6022 11.9975 11.7959C12.0361 11.9897 12.0163 12.1905 11.9405 12.373C11.8647 12.5555 11.7363 12.7115 11.5716 12.8213C11.4069 12.9311 11.2132 12.9897 11.0151 12.9897L11.0222 12.9827Z" fill="#9E8EFF"/>
</svg>
