<svg width="24" height="24" viewBox="0 0 24 24" fill="none" xmlns="http://www.w3.org/2000/svg">
<path fill-rule="evenodd" clip-rule="evenodd" d="M12 5.1001C10.0507 5.1001 8.28893 5.90959 7.03519 7.20836C6.68997 7.56597 6.70002 8.13573 7.05763 8.48095C7.41525 8.82617 7.98501 8.81612 8.33023 8.45851C9.25881 7.49657 10.559 6.9001 12 6.9001C14.4709 6.9001 16.5313 8.65722 17 10.9901V12C17 12.5523 17.4477 13 18 13C18.5523 13 19 12.5523 19 12V7C19 6.44772 18.5523 6 18 6C17.4477 6 17 6.44772 17 7V7.24508C15.743 5.92375 13.9677 5.1001 12 5.1001ZM7 16.7551V17C7 17.5523 6.55228 18 6 18C5.44772 18 5 17.5523 5 17V12C5 11.4477 5.44772 11 6 11C6.55228 11 7 11.4477 7 12V13.0101C7.46866 15.3429 9.52914 17.1001 12 17.1001C13.3761 17.1001 14.6234 16.5563 15.5416 15.6699C15.8992 15.3247 16.469 15.3347 16.8142 15.6923C17.1594 16.0499 17.1494 16.6197 16.7917 16.9649C15.5515 18.1622 13.861 18.9001 12 18.9001C10.0323 18.9001 8.25699 18.0764 7 16.7551Z" fill="#FFFFFFCC"/>
</svg>
