<svg width="24" height="24" viewBox="0 0 24 24" fill="none" xmlns="http://www.w3.org/2000/svg">
<path d="M9.21133 15.9128C9.30151 15.9669 9.39469 15.9939 9.49089 15.9939C9.58708 15.9939 9.68026 15.9699 9.77044 15.9218C9.86062 15.8737 9.92975 15.7955 9.97785 15.6873L11.1682 13.1804L13.6752 12.0441C13.7834 11.996 13.8645 11.9269 13.9187 11.8367C13.9728 11.7465 13.9998 11.6533 13.9998 11.5571C13.9998 11.461 13.9728 11.3678 13.9187 11.2776C13.8645 11.1874 13.7834 11.1183 13.6752 11.0702L11.1682 9.93393L9.97785 7.42697C9.92975 7.33078 9.86062 7.25563 9.77044 7.20152C9.68026 7.14741 9.58708 7.12036 9.49089 7.12036C9.39469 7.12036 9.30151 7.14741 9.21133 7.20152C9.12115 7.25563 9.05202 7.33679 9.00392 7.445L7.8316 9.93393L5.3066 11.0702C5.21041 11.1183 5.13526 11.1874 5.08115 11.2776C5.02705 11.3678 4.99999 11.461 4.99999 11.5571C4.99999 11.6533 5.02705 11.7465 5.08115 11.8367C5.13526 11.9269 5.21041 11.996 5.3066 12.0441L7.8316 13.1804L9.00392 15.6873C9.05202 15.7835 9.12115 15.8587 9.21133 15.9128Z" fill="#F3F3F3"/>
<path d="M17.1255 8.28898C17.1689 8.31537 17.2137 8.32857 17.26 8.32857C17.3063 8.32857 17.3511 8.31684 17.3945 8.29338C17.4378 8.26992 17.4711 8.23179 17.4942 8.17901L18.0667 6.9561L19.2725 6.40183C19.3245 6.37837 19.3636 6.34464 19.3896 6.30065C19.4156 6.25666 19.4286 6.21121 19.4286 6.16429C19.4286 6.11736 19.4156 6.07191 19.3896 6.02792C19.3636 5.98393 19.3245 5.9502 19.2725 5.92674L18.0667 5.37247L17.4942 4.14956C17.4711 4.10264 17.4378 4.06598 17.3945 4.03959C17.3511 4.0132 17.3063 4 17.26 4C17.2137 4 17.1689 4.0132 17.1255 4.03959C17.0822 4.06598 17.0489 4.10557 17.0258 4.15836L16.4619 5.37247L15.2475 5.92674C15.2013 5.9502 15.1651 5.98393 15.1391 6.02792C15.1131 6.07191 15.1001 6.11736 15.1001 6.16429C15.1001 6.21121 15.1131 6.25666 15.1391 6.30065C15.1651 6.34464 15.2013 6.37837 15.2475 6.40183L16.4619 6.9561L17.0258 8.17901C17.0489 8.22593 17.0822 8.26259 17.1255 8.28898Z" fill="#96EF94"/>
<path d="M17.1255 19.1105C17.1689 19.1369 17.2137 19.1501 17.26 19.1501C17.3063 19.1501 17.3511 19.1384 17.3945 19.1149C17.4378 19.0915 17.4711 19.0533 17.4942 19.0005L18.0667 17.7776L19.2725 17.2234C19.3245 17.1999 19.3636 17.1662 19.3896 17.1222C19.4156 17.0782 19.4286 17.0327 19.4286 16.9858C19.4286 16.9389 19.4156 16.8934 19.3896 16.8495C19.3636 16.8055 19.3245 16.7717 19.2725 16.7483L18.0667 16.194L17.4942 14.9711C17.4711 14.9242 17.4378 14.8875 17.3945 14.8611C17.3511 14.8347 17.3063 14.8215 17.26 14.8215C17.2137 14.8215 17.1689 14.8347 17.1255 14.8611C17.0822 14.8875 17.0489 14.9271 17.0258 14.9799L16.4619 16.194L15.2475 16.7483C15.2013 16.7717 15.1651 16.8055 15.1391 16.8495C15.1131 16.8934 15.1001 16.9389 15.1001 16.9858C15.1001 17.0327 15.1131 17.0782 15.1391 17.1222C15.1651 17.1662 15.2013 17.1999 15.2475 17.2234L16.4619 17.7776L17.0258 19.0005C17.0489 19.0475 17.0822 19.0841 17.1255 19.1105Z" fill="#20FFFF"/>
</svg>
