<svg width="24" height="24" viewBox="0 0 24 24" fill="none" xmlns="http://www.w3.org/2000/svg">
<path fill-rule="evenodd" clip-rule="evenodd" d="M4.8 4C3.83263 4 3 4.76957 3 5.77778V6V10V14.5V18.2222V18.2353C3 19.1101 3.62854 19.786 4.40988 19.9576C4.53615 19.9854 4.6668 20 4.8 20H9H15H19.2C19.3332 20 19.4639 19.9854 19.5901 19.9576C20.3715 19.786 21 19.1101 21 18.2353V18.2222V14.5V10V6V5.77778C21 4.76958 20.1674 4 19.2 4H4.8ZM19 6H5V9H9H15H19V6ZM19 11H16V13.5H19V11ZM19 15.5H16V18H19V15.5ZM14 18V15.5H10V18H14ZM8 18V15.5H5V18H8ZM5 13.5H8V11H5V13.5ZM10 13.5H14V11H10V13.5Z" fill="#ffffff"/>
</svg>
