<!-- Generated by IcoMoon.io -->
<svg version="1.1" xmlns="http://www.w3.org/2000/svg" width="32" height="32" viewBox="0 0 32 32">
<title>filetype_docx</title>
<path fill="#e2edff" d="M25.157 11.128l-6.991-7.439c-0.125-0.135-0.277-0.242-0.446-0.316s-0.351-0.112-0.534-0.112h-8.259c-0.692 0.020-1.348 0.313-1.825 0.815s-0.734 1.174-0.716 1.866v20.184c-0.018 0.692 0.24 1.363 0.716 1.866s1.133 0.796 1.825 0.815h14.077c0.692-0.020 1.349-0.313 1.825-0.815s0.734-1.174 0.716-1.866v-14.013c0.001-0.368-0.139-0.722-0.389-0.991z"></path>
<path fill="#3260c9" d="M25.157 11.128l-6.991-7.439c-0.125-0.135-0.277-0.242-0.446-0.316s-0.35-0.112-0.534-0.112v6.224c0 0.697 0.277 1.365 0.77 1.858s1.161 0.77 1.858 0.77h5.733c0.001-0.368-0.139-0.722-0.389-0.991z"></path>
<path fill="#3260c9" d="M17.169 22.847l-1.2-4.455-1.217 4.455c-0.094 0.338-0.169 0.58-0.225 0.727-0.061 0.157-0.161 0.294-0.292 0.4-0.157 0.123-0.353 0.185-0.552 0.175-0.159 0.006-0.318-0.030-0.459-0.104-0.121-0.071-0.221-0.173-0.291-0.296-0.080-0.141-0.142-0.293-0.183-0.451-0.047-0.178-0.092-0.339-0.133-0.484l-1.229-5.003c-0.063-0.217-0.1-0.441-0.112-0.667-0.002-0.091 0.015-0.181 0.050-0.265s0.087-0.159 0.153-0.222c0.066-0.065 0.145-0.116 0.231-0.149s0.178-0.050 0.271-0.048c0.108-0.013 0.217 0.005 0.315 0.053s0.18 0.121 0.237 0.214c0.117 0.243 0.2 0.5 0.248 0.765l0.975 4.336 1.088-4.059c0.059-0.24 0.131-0.477 0.217-0.709 0.067-0.165 0.176-0.31 0.316-0.42 0.171-0.126 0.381-0.189 0.593-0.177 0.213-0.013 0.423 0.053 0.591 0.185 0.129 0.107 0.229 0.245 0.292 0.4 0.054 0.145 0.127 0.385 0.217 0.72l1.099 4.060 0.973-4.337c0.035-0.18 0.079-0.358 0.133-0.533 0.044-0.131 0.118-0.249 0.217-0.344 0.061-0.054 0.132-0.095 0.209-0.121s0.158-0.037 0.239-0.031c0.093-0.002 0.185 0.014 0.271 0.047s0.165 0.084 0.232 0.149c0.067 0.062 0.12 0.138 0.155 0.223s0.053 0.175 0.050 0.267c-0.013 0.226-0.051 0.449-0.112 0.667l-1.239 5.001c-0.089 0.338-0.159 0.585-0.211 0.743-0.057 0.16-0.155 0.302-0.284 0.413-0.16 0.127-0.361 0.19-0.565 0.177-0.199 0.010-0.394-0.051-0.552-0.172-0.129-0.102-0.229-0.235-0.289-0.388-0.053-0.146-0.129-0.393-0.227-0.741z"></path>
</svg>
