<!-- Generated by IcoMoon.io -->
<svg version="1.1" xmlns="http://www.w3.org/2000/svg" width="32" height="32" viewBox="0 0 32 32">
<title>filetype_xlsx</title>
<path fill="#d6f4dd" d="M24.928 11.313l-6.927-7.367c-0.124-0.133-0.274-0.24-0.441-0.313s-0.347-0.111-0.529-0.111h-8.185c-0.686 0.020-1.335 0.311-1.807 0.808s-0.727 1.162-0.71 1.848v20c-0.017 0.686 0.239 1.35 0.71 1.848s1.121 0.788 1.807 0.808h13.949c0.686-0.020 1.335-0.311 1.807-0.808s0.727-1.162 0.71-1.848v-13.884c0.001-0.364-0.136-0.715-0.384-0.981z"></path>
<path fill="#4ecb70" d="M24.928 11.313l-6.927-7.367c-0.124-0.133-0.274-0.24-0.441-0.313s-0.347-0.111-0.529-0.111v6.167c-0 0.342 0.067 0.681 0.198 0.997s0.323 0.603 0.565 0.845c0.242 0.242 0.529 0.434 0.845 0.565s0.655 0.198 0.997 0.198h5.679c0.001-0.364-0.138-0.715-0.387-0.981z"></path>
<path fill="#3abc5d" d="M17.712 22.333c0.073 0.088 0.164 0.158 0.267 0.206s0.216 0.072 0.329 0.071c0.146-0.002 0.287-0.046 0.41-0.125s0.219-0.192 0.281-0.324c0.061-0.132 0.084-0.279 0.066-0.423s-0.077-0.281-0.169-0.393l-2.097-2.488 2.067-2.468c0.111-0.128 0.17-0.293 0.164-0.463 0.001-0.094-0.017-0.187-0.053-0.275s-0.088-0.166-0.154-0.233c-0.066-0.067-0.145-0.12-0.232-0.157s-0.18-0.055-0.274-0.056c-0.105 0.001-0.209 0.025-0.305 0.069s-0.181 0.109-0.25 0.188l-1.909 2.263-1.871-2.243c-0.073-0.088-0.164-0.159-0.268-0.207s-0.217-0.072-0.331-0.071c-0.1-0.001-0.2 0.018-0.293 0.056s-0.177 0.094-0.248 0.165c-0.071 0.071-0.127 0.155-0.165 0.248s-0.057 0.192-0.056 0.293c-0.005 0.184 0.057 0.363 0.175 0.504l2.053 2.447-2.113 2.509c-0.112 0.127-0.171 0.293-0.164 0.463-0.001 0.095 0.018 0.189 0.054 0.276s0.089 0.167 0.156 0.234c0.067 0.067 0.147 0.12 0.234 0.156s0.181 0.054 0.276 0.054c0.119-0.001 0.237-0.030 0.344-0.083s0.2-0.13 0.273-0.225l1.892-2.256 1.912 2.287z"></path>
</svg>
