<!-- Generated by IcoMoon.io -->
<svg version="1.1" xmlns="http://www.w3.org/2000/svg" width="32" height="32" viewBox="0 0 32 32">
<title>filetype_pdf</title>
<path fill="#fddfe0" d="M25.043 11.004l-6.959-7.4c-0.125-0.134-0.276-0.241-0.444-0.314s-0.349-0.111-0.532-0.111h-8.217c-0.689 0.018-1.343 0.31-1.818 0.81s-0.732 1.168-0.715 1.857v20.095c-0.017 0.689 0.24 1.357 0.715 1.857s1.129 0.791 1.818 0.809h14.013c0.689-0.018 1.343-0.31 1.818-0.809s0.732-1.168 0.715-1.857v-13.949c0.001-0.366-0.137-0.719-0.387-0.987z"></path>
<path fill="#f23c47" d="M25.043 11.004l-6.96-7.4c-0.125-0.134-0.275-0.241-0.442-0.314s-0.349-0.111-0.532-0.111v6.195c-0 0.344 0.067 0.684 0.199 1.002s0.324 0.606 0.567 0.849c0.243 0.243 0.532 0.436 0.849 0.567s0.658 0.199 1.002 0.199h5.704c0.001-0.366-0.137-0.719-0.387-0.987z"></path>
<path fill="#f23c47" d="M20.997 19.981c-0.569-0.56-2.193-0.4-3.004-0.303-0.808-0.496-1.416-1.261-1.717-2.16 0.28-0.841 0.366-1.734 0.251-2.613-0.030-0.226-0.133-0.436-0.293-0.597s-0.37-0.266-0.595-0.297c-0.226-0.031-0.455 0.013-0.654 0.125s-0.355 0.286-0.444 0.495c-0.141 1.055-0.029 2.128 0.327 3.131-0.491 1.183-1.042 2.34-1.652 3.467-0.933 0.48-2.193 1.223-2.379 2.156-0.153 0.737 1.213 2.575 3.551-1.456 1.040-0.387 2.106-0.699 3.191-0.933 0.798 0.454 1.687 0.725 2.603 0.793 0.211 0.005 0.419-0.053 0.598-0.165s0.321-0.275 0.408-0.468c0.087-0.193 0.116-0.407 0.082-0.615s-0.128-0.403-0.271-0.559zM11.757 23.611c0.362-0.631 0.843-1.185 1.416-1.632-0.883 1.413-1.416 1.665-1.416 1.632zM15.561 14.719c0.345 0 0.312 1.497 0.084 1.904-0.185-0.618-0.213-1.272-0.084-1.904zM14.424 21.092c0.449-0.822 0.834-1.677 1.152-2.559 0.344 0.648 0.823 1.215 1.404 1.663-0.876 0.225-1.731 0.525-2.556 0.896zM20.557 20.859c0 0-0.228 0.28-1.733-0.364 1.636-0.121 1.907 0.252 1.733 0.364z"></path>
</svg>
