<!-- Generated by IcoMoon.io -->
<svg version="1.1" xmlns="http://www.w3.org/2000/svg" width="32" height="32" viewBox="0 0 32 32">
<title>filetype_error</title>
<path fill="#e7e7e7" d="M25.21 11.078l-7.006-7.45c-0.126-0.135-0.277-0.242-0.446-0.316s-0.351-0.112-0.535-0.113h-8.277c-0.693 0.020-1.351 0.314-1.828 0.817s-0.736 1.176-0.718 1.869v20.227c-0.017 0.694 0.241 1.366 0.718 1.869s1.135 0.797 1.828 0.817h14.107c0.693-0.020 1.351-0.314 1.828-0.817s0.736-1.176 0.718-1.869v-14.042c0.001-0.368-0.138-0.723-0.39-0.993z"></path>
<path fill="#b9b9b9" d="M19.667 23.484c-0.29 0.357-0.815 0.412-1.172 0.122-0.705-0.573-1.587-0.886-2.495-0.886s-1.79 0.313-2.495 0.886c-0.357 0.29-0.882 0.236-1.172-0.122s-0.236-0.882 0.122-1.172c1.002-0.814 2.255-1.258 3.546-1.258s2.543 0.444 3.546 1.258c0.357 0.29 0.412 0.815 0.122 1.172z"></path>
<path fill="#b9b9b9" d="M12 16.5c0.46 0 0.833 0.373 0.833 0.833v1.333c0 0.46-0.373 0.833-0.833 0.833s-0.833-0.373-0.833-0.833v-1.333c0-0.46 0.373-0.833 0.833-0.833z"></path>
<path fill="#b9b9b9" d="M20 16.5c0.46 0 0.833 0.373 0.833 0.833v1.333c0 0.46-0.373 0.833-0.833 0.833s-0.833-0.373-0.833-0.833v-1.333c0-0.46 0.373-0.833 0.833-0.833z"></path>
<path fill="#b9b9b9" d="M25.21 11.078l-7.006-7.45c-0.126-0.135-0.278-0.242-0.446-0.316s-0.351-0.112-0.535-0.113v6.24c0 0.699 0.277 1.369 0.772 1.863s1.164 0.772 1.863 0.772h5.742c0.001-0.368-0.139-0.723-0.39-0.993z"></path>
</svg>
