<!-- Generated by IcoMoon.io -->
<svg version="1.1" xmlns="http://www.w3.org/2000/svg" width="32" height="32" viewBox="0 0 32 32" fill="#3260C9">
<title>sync_all</title>
<path d="M23.976 18.49h-4.333c-0.354 0-0.693 0.141-0.943 0.391s-0.39 0.589-0.39 0.943c0 0.354 0.14 0.693 0.39 0.943s0.589 0.391 0.943 0.391h0.377c-1.308 1.115-2.968 1.73-4.687 1.734-1.957-0.015-3.828-0.806-5.202-2.199s-2.141-3.275-2.131-5.233c0-0.354-0.14-0.693-0.391-0.943s-0.589-0.391-0.943-0.391c-0.354 0-0.693 0.141-0.943 0.391s-0.391 0.589-0.391 0.943c-0.010 2.665 1.038 5.225 2.913 7.119s4.424 2.965 7.087 2.981c2.469 0 4.849-0.92 6.677-2.58l0.632-0.578v1.801c0 0.354 0.14 0.693 0.39 0.943s0.589 0.391 0.943 0.391c0.354 0 0.693-0.141 0.943-0.391s0.391-0.589 0.391-0.943v-4.383c-0.001-0.353-0.142-0.691-0.392-0.941s-0.589-0.389-0.941-0.389z"></path>
<path d="M6.691 12.383h4.333c0.354 0 0.693-0.141 0.943-0.391s0.391-0.589 0.391-0.943c0-0.354-0.14-0.693-0.391-0.943s-0.589-0.391-0.943-0.391h-0.303c1.295-1.081 2.926-1.676 4.612-1.683 1.957 0.015 3.828 0.806 5.203 2.2s2.141 3.275 2.131 5.233c0 0.354 0.141 0.693 0.391 0.943s0.589 0.391 0.943 0.391c0.354 0 0.693-0.141 0.943-0.391s0.39-0.589 0.39-0.943c0.010-2.665-1.037-5.226-2.912-7.119s-4.424-2.966-7.088-2.981c-2.469 0-4.849 0.92-6.676 2.581l-0.633 0.578v-1.856c0-0.354-0.14-0.693-0.391-0.943s-0.589-0.391-0.943-0.391c-0.354 0-0.693 0.141-0.943 0.391s-0.391 0.589-0.391 0.943v4.382c0 0.354 0.14 0.693 0.391 0.943s0.589 0.391 0.943 0.391z"></path>
</svg>
