<!-- Generated by IcoMoon.io -->
<svg version="1.1" xmlns="http://www.w3.org/2000/svg" width="32" height="32" viewBox="0 0 32 32">
<title>filetype_image</title>
<path fill="#f2e6fe" d="M25.21 11.078l-7.006-7.45c-0.126-0.135-0.278-0.242-0.446-0.316s-0.351-0.112-0.535-0.113h-8.277c-0.693 0.020-1.351 0.314-1.828 0.817s-0.736 1.176-0.718 1.869v20.227c-0.017 0.693 0.241 1.366 0.718 1.869s1.135 0.797 1.828 0.817h14.107c0.693-0.020 1.351-0.314 1.828-0.817s0.736-1.176 0.718-1.869v-14.042c0.001-0.368-0.139-0.723-0.39-0.993z"></path>
<path fill="#8400f5" d="M25.21 11.078l-7.006-7.45c-0.126-0.135-0.278-0.242-0.446-0.316s-0.351-0.112-0.535-0.113v6.24c0 0.699 0.278 1.369 0.772 1.863s1.164 0.772 1.863 0.772h5.742c0.001-0.368-0.139-0.723-0.39-0.993z"></path>
<path fill="#8400f5" d="M19.6 18.4c0.663 0 1.2-0.537 1.2-1.2s-0.537-1.2-1.2-1.2c-0.663 0-1.2 0.537-1.2 1.2s0.537 1.2 1.2 1.2z"></path>
<path fill="#8400f5" d="M13.6 19.2l3.2 5.6h-6.4l3.2-5.6z"></path>
<path fill="#8400f5" d="M17.6 20.8l3.2 4h-6.4l3.2-4z"></path>
</svg>
