<!-- Generated by IcoMoon.io -->
<svg version="1.1" xmlns="http://www.w3.org/2000/svg" width="32" height="32" viewBox="0 0 32 32">
<title>filetype_code</title>
<path fill="#d3ffff" d="M25.157 11.128l-6.991-7.439c-0.125-0.135-0.277-0.242-0.446-0.316s-0.351-0.112-0.534-0.112h-8.259c-0.692 0.020-1.348 0.313-1.825 0.815s-0.734 1.174-0.716 1.866v20.184c-0.018 0.692 0.24 1.363 0.716 1.866s1.133 0.796 1.825 0.815h14.077c0.692-0.020 1.349-0.313 1.825-0.815s0.734-1.174 0.716-1.866v-14.013c0.001-0.368-0.139-0.722-0.389-0.991z"></path>
<path fill="#1fb4b4" d="M14.908 22.409l-2.217-2.408 2.217-2.409c0.051-0.055 0.091-0.118 0.116-0.188s0.036-0.143 0.031-0.216c-0.005-0.073-0.025-0.145-0.059-0.211s-0.081-0.125-0.139-0.173c-0.058-0.048-0.126-0.085-0.199-0.109s-0.151-0.033-0.227-0.027c-0.077 0.005-0.152 0.025-0.221 0.058s-0.13 0.079-0.18 0.135l-2.552 2.774c-0.093 0.101-0.144 0.231-0.144 0.365s0.051 0.264 0.144 0.365l2.552 2.774c0.050 0.056 0.111 0.101 0.18 0.135s0.144 0.053 0.221 0.058c0.077 0.005 0.154-0.004 0.227-0.027s0.141-0.060 0.199-0.109c0.058-0.048 0.105-0.107 0.139-0.173s0.054-0.137 0.059-0.211c0.005-0.073-0.006-0.147-0.031-0.216s-0.065-0.133-0.116-0.188z"></path>
<path fill="#1fb4b4" d="M17.092 17.591l2.217 2.409-2.217 2.408c-0.1 0.111-0.15 0.255-0.139 0.401s0.082 0.281 0.198 0.378c0.116 0.096 0.266 0.145 0.42 0.136s0.297-0.075 0.399-0.184l2.552-2.774c0.093-0.101 0.144-0.231 0.144-0.365s-0.051-0.264-0.144-0.365l-2.552-2.774c-0.102-0.109-0.246-0.175-0.399-0.184s-0.304 0.040-0.42 0.136c-0.116 0.096-0.187 0.232-0.198 0.377s0.039 0.29 0.139 0.401z"></path>
<path fill="#1fb4b4" d="M25.157 11.128l-6.991-7.439c-0.125-0.135-0.277-0.242-0.446-0.316s-0.351-0.112-0.534-0.112v6.224c0 0.697 0.277 1.365 0.77 1.858s1.161 0.77 1.858 0.77h5.733c0.001-0.368-0.139-0.722-0.389-0.991z"></path>
</svg>
