<!-- Generated by IcoMoon.io -->
<svg version="1.1" xmlns="http://www.w3.org/2000/svg" width="32" height="32" viewBox="0 0 32 32">
<title>filetype_pptx</title>
<path fill="#ffe6c9" d="M25.21 11.078l-7.006-7.45c-0.126-0.135-0.278-0.242-0.446-0.316s-0.351-0.112-0.535-0.113h-8.277c-0.693 0.020-1.351 0.314-1.828 0.817s-0.736 1.176-0.718 1.869v20.227c-0.017 0.693 0.241 1.366 0.718 1.869s1.135 0.797 1.828 0.817h14.107c0.693-0.020 1.351-0.314 1.828-0.817s0.736-1.176 0.718-1.869v-14.042c0.001-0.368-0.139-0.723-0.39-0.993z"></path>
<path fill="#ffa110" d="M25.21 11.078l-7.006-7.45c-0.126-0.135-0.278-0.242-0.446-0.316s-0.351-0.112-0.535-0.113v6.24c0 0.699 0.278 1.369 0.772 1.863s1.164 0.772 1.863 0.772h5.742c0.001-0.368-0.139-0.723-0.39-0.993z"></path>
<path fill="#ffa110" d="M13.572 25.6v-7.623h2.174c1.706 0 2.86 0.572 2.86 2.246 0 1.602-1.144 2.35-2.818 2.35h-1.248v3.026h-0.967zM14.539 21.794h1.134c1.331 0 1.976-0.489 1.976-1.57 0-1.113-0.676-1.456-2.028-1.456h-1.082v3.026z"></path>
</svg>
