<svg width="25" height="24" viewBox="0 0 25 24" fill="none" xmlns="http://www.w3.org/2000/svg">
<path d="M17.5059 10.9971H13.5059V6.99707C13.5059 6.73185 13.4005 6.4775 13.213 6.28996C13.0254 6.10243 12.7711 5.99707 12.5059 5.99707C12.2406 5.99707 11.9863 6.10243 11.7988 6.28996C11.6112 6.4775 11.5059 6.73185 11.5059 6.99707V10.9971H7.50586C7.24064 10.9971 6.98629 11.1024 6.79875 11.29C6.61122 11.4775 6.50586 11.7319 6.50586 11.9971C6.50586 12.2623 6.61122 12.5166 6.79875 12.7042C6.98629 12.8917 7.24064 12.9971 7.50586 12.9971H11.5059V16.9971C11.5059 17.2623 11.6112 17.5166 11.7988 17.7042C11.9863 17.8917 12.2406 17.9971 12.5059 17.9971C12.7711 17.9971 13.0254 17.8917 13.213 17.7042C13.4005 17.5166 13.5059 17.2623 13.5059 16.9971V12.9971H17.5059C17.7711 12.9971 18.0254 12.8917 18.213 12.7042C18.4005 12.5166 18.5059 12.2623 18.5059 11.9971C18.5059 11.7319 18.4005 11.4775 18.213 11.29C18.0254 11.1024 17.7711 10.9971 17.5059 10.9971Z" fill="#9E8EFF"/>
</svg>
