<svg width="24" height="24" viewBox="0 0 24 24" fill="none" xmlns="http://www.w3.org/2000/svg">
<path d="M19 15.0398H7.37004L8.71204 13.6929C8.80396 13.6008 8.87647 13.4919 8.92545 13.3723C8.97442 13.2527 8.99888 13.1248 8.99744 12.996C8.996 12.8671 8.96868 12.7399 8.91705 12.6214C8.86542 12.5029 8.79049 12.3955 8.69653 12.3054C8.60257 12.2153 8.49143 12.1442 8.36945 12.0962C8.24746 12.0482 8.11702 12.0242 7.98558 12.0256C7.85414 12.027 7.72426 12.0538 7.60338 12.1044C7.48249 12.155 7.37296 12.2285 7.28104 12.3206L4.29903 15.3143L4.29404 15.3202L4.28703 15.327C4.26787 15.3529 4.25019 15.3797 4.23404 15.4074C4.17259 15.4745 4.12109 15.5498 4.08104 15.631V15.6437C4.06121 15.7049 4.0478 15.768 4.04103 15.8319C4.02439 15.8886 4.01302 15.9467 4.00703 16.0054V16.0172C4.01313 16.0799 4.02518 16.1419 4.04303 16.2024C4.04962 16.2624 4.06236 16.3215 4.08104 16.3789V16.3926C4.1188 16.4661 4.16583 16.5346 4.22104 16.5965C4.241 16.6305 4.26303 16.6632 4.28703 16.6945L7.28703 19.7049C7.47268 19.891 7.72612 19.9971 7.99158 19.9999C8.25703 20.0028 8.51277 19.9021 8.70253 19.7201C8.89229 19.5382 9.00054 19.2897 9.00345 19.0295C9.00636 18.7693 8.90368 18.5186 8.71803 18.3326L7.37804 16.9876H19C19.2652 16.9876 19.5196 16.8844 19.7071 16.7005C19.8947 16.5167 20 16.2673 20 16.0074C20 15.7474 19.8947 15.498 19.7071 15.3142C19.5196 15.1304 19.2652 15.0271 19 15.0271V15.0398Z" fill="#9E8EFF"/>
<path d="M18 4H6.00003C5.46666 4.00337 4.95647 4.21411 4.58148 4.58593C4.20649 4.95774 3.99736 5.46026 4.00003 5.9831V10.0022C4.00003 10.2622 4.10538 10.5115 4.29292 10.6954C4.48045 10.8792 4.73481 10.9825 5.00003 10.9825C5.26524 10.9825 5.5196 10.8792 5.70713 10.6954C5.89467 10.5115 6.00003 10.2622 6.00003 10.0022V5.96545L18 5.98801V12.001C18 12.261 18.1054 12.5103 18.2929 12.6941C18.4805 12.878 18.7348 12.9813 19 12.9813C19.2652 12.9813 19.5196 12.878 19.7071 12.6941C19.8947 12.5103 20 12.261 20 12.001V5.97918C20.0016 5.45702 19.792 4.95552 19.4172 4.58455C19.0423 4.21358 18.5327 4.00337 18 4Z" fill="#9E8EFF"/>
</svg>
