<svg width="24" height="24" viewBox="0 0 24 24" fill="none" xmlns="http://www.w3.org/2000/svg">
<path fill-rule="evenodd" clip-rule="evenodd" d="M9.40177 5.50024C10.5565 3.50025 13.4432 3.50024 14.5979 5.50024L20.2271 15.2502C21.3818 17.2502 19.9384 19.7502 17.629 19.7502H6.37069C4.06129 19.7502 2.61791 17.2502 3.77261 15.2502L9.40177 5.50024ZM12.8659 6.50024C12.481 5.83358 11.5187 5.83358 11.1338 6.50024L5.50466 16.2502C5.11976 16.9169 5.60089 17.7502 6.37069 17.7502H17.629C18.3988 17.7502 18.8799 16.9169 18.495 16.2502L12.8659 6.50024ZM11 10.0002C11 9.44796 11.4477 9.00024 12 9.00024C12.5523 9.00024 13 9.44796 13 10.0002V13.0002C13 13.5525 12.5523 14.0002 12 14.0002C11.4477 14.0002 11 13.5525 11 13.0002V10.0002ZM12 15.0002C11.4477 15.0002 11 15.448 11 16.0002C11 16.5525 11.4477 17.0002 12 17.0002C12.5523 17.0002 13 16.5525 13 16.0002C13 15.448 12.5523 15.0002 12 15.0002Z" fill="#E74852"/>
</svg>
