<svg width="24" height="24" viewBox="0 0 24 24" fill="none" xmlns="http://www.w3.org/2000/svg">
<path d="M15.187 11.6734C15.8139 11.0431 16.2401 10.2413 16.4118 9.36903C16.5835 8.49678 16.493 7.59322 16.1516 6.77235C15.8103 5.95149 15.2336 5.25011 14.4941 4.75671C13.7546 4.26331 12.8855 4 11.9965 4C11.1075 4 10.2384 4.26331 9.49895 4.75671C8.75945 5.25011 8.18266 5.95149 7.84135 6.77235C7.50005 7.59322 7.40954 8.49678 7.58121 9.36903C7.75289 10.2413 8.17908 11.0431 8.806 11.6734C7.37962 12.296 6.16549 13.3205 5.31199 14.6219C4.45849 15.9233 4.00258 17.4451 4 19.0014C4 19.2667 4.10536 19.521 4.29289 19.7085C4.48043 19.8961 4.73478 20.0014 5 20.0014C5.26522 20.0014 5.51957 19.8961 5.70711 19.7085C5.89464 19.521 6 19.2667 6 19.0014C6 17.4101 6.63214 15.884 7.75736 14.7588C8.88258 13.6336 10.4087 13.0014 12 13.0014C13.5913 13.0014 15.1174 13.6336 16.2426 14.7588C17.3679 15.884 18 17.4101 18 19.0014C18 19.2667 18.1054 19.521 18.2929 19.7085C18.4804 19.8961 18.7348 20.0014 19 20.0014C19.2652 20.0014 19.5196 19.8961 19.7071 19.7085C19.8946 19.521 20 19.2667 20 19.0014C19.9968 17.4444 19.5399 15.922 18.6851 14.6205C17.8303 13.319 16.6147 12.2949 15.187 11.6734ZM9.5 8.50144C9.5 8.00698 9.64662 7.52363 9.92133 7.11251C10.196 6.70139 10.5865 6.38096 11.0433 6.19174C11.5001 6.00252 12.0028 5.95301 12.4877 6.04947C12.9727 6.14594 13.4181 6.38404 13.7678 6.73367C14.1174 7.0833 14.3555 7.52876 14.452 8.01371C14.5484 8.49866 14.4989 9.00133 14.3097 9.45815C14.1205 9.91496 13.8001 10.3054 13.3889 10.5801C12.9778 10.8548 12.4945 11.0014 12 11.0014C11.337 11.0014 10.7011 10.738 10.2322 10.2692C9.7634 9.80036 9.5 9.16448 9.5 8.50144Z" fill="white" fill-opacity="0.8"/>
</svg>
