<svg width="24" height="24" viewBox="0 0 24 24" fill="none" xmlns="http://www.w3.org/2000/svg">
<path d="M14.0105 6C13.7449 6.00006 13.4901 6.10556 13.3023 6.2933L8.29331 11.2984C8.1055 11.4861 8 11.7407 8 12.0062C8 12.2716 8.1055 12.5262 8.29331 12.7139L13.3023 17.719C13.4912 17.9013 13.7443 18.0022 14.0069 18C14.2696 17.9977 14.5208 17.8924 14.7066 17.7068C14.8923 17.5212 14.9977 17.2701 15 17.0077C15.0022 16.7452 14.9013 16.4923 14.7188 16.3035L10.4141 12.0062L14.7118 7.70174C14.849 7.56183 14.9422 7.38473 14.9797 7.1924C15.0172 7.00007 14.9974 6.80097 14.9228 6.61979C14.8481 6.4386 14.7219 6.28329 14.5597 6.17312C14.3976 6.06295 14.2066 6.00275 14.0105 6Z" fill="#727272" fill-opacity="0.12"/>
</svg>
