<svg width="24" height="24" viewBox="0 0 24 24" fill="none" xmlns="http://www.w3.org/2000/svg">
<path d="M6.00441 18.9297C5.73906 18.9297 5.48456 18.8248 5.29693 18.6381C5.1093 18.4515 5.00391 18.1983 5.00391 17.9343V16.1427C5.00391 13.4791 5.00388 12.1414 5.60418 10.9669C6.12916 9.93701 6.97024 9.10027 8.00541 8.57799C9.183 7.98077 10.5277 7.9808 13.208 7.9808H15.5942L14.3006 6.69381C14.1927 6.60559 14.1047 6.4959 14.042 6.37179C13.9794 6.24769 13.9435 6.11189 13.9368 5.97317C13.93 5.83445 13.9525 5.69587 14.0028 5.56632C14.0531 5.43677 14.1301 5.31914 14.2289 5.22098C14.3276 5.12281 14.4459 5.04628 14.5762 4.99632C14.7064 4.94636 14.8457 4.92407 14.9852 4.93089C15.1246 4.9377 15.2611 4.97347 15.3858 5.0359C15.5105 5.09832 15.6207 5.186 15.7093 5.29333L18.7108 8.27939C18.8972 8.46393 19.0027 8.71447 19.0039 8.97615V8.9821C19.0027 9.24378 18.8972 9.49432 18.7108 9.67886L15.7093 12.6649C15.5178 12.8245 15.2732 12.907 15.0236 12.8963C14.7741 12.8856 14.5376 12.7824 14.3606 12.6069C14.1837 12.4315 14.0791 12.1966 14.0674 11.9484C14.0557 11.7001 14.1378 11.4565 14.2976 11.2655L15.5912 9.97846H13.208C10.8488 9.97846 9.66622 9.97845 8.91685 10.3587C8.25635 10.6907 7.71968 11.2239 7.38507 11.8806C7.00388 12.6261 7.0039 13.8036 7.0039 16.1497V17.9413C7.00205 18.2039 6.89595 18.4551 6.70874 18.6403C6.52153 18.8254 6.26838 18.9294 6.00441 18.9297Z" fill="#9E8EFF"/>
</svg>
