<svg width="24" height="24" viewBox="0 0 24 24" fill="none" xmlns="http://www.w3.org/2000/svg">
<path d="M17.0049 10.9961H13.0049V6.99609C13.0049 6.73088 12.8995 6.47652 12.712 6.28899C12.5245 6.10145 12.2701 5.99609 12.0049 5.99609C11.7397 5.99609 11.4853 6.10145 11.2978 6.28899C11.1102 6.47652 11.0049 6.73088 11.0049 6.99609V10.9961H7.00488C6.73967 10.9961 6.48531 11.1014 6.29778 11.289C6.11024 11.4765 6.00488 11.7309 6.00488 11.9961C6.00488 12.2613 6.11024 12.5157 6.29778 12.7032C6.48531 12.8907 6.73967 12.9961 7.00488 12.9961H11.0049V16.9961C11.0049 17.2613 11.1102 17.5157 11.2978 17.7032C11.4853 17.8907 11.7397 17.9961 12.0049 17.9961C12.2701 17.9961 12.5245 17.8907 12.712 17.7032C12.8995 17.5157 13.0049 17.2613 13.0049 16.9961V12.9961H17.0049C17.2701 12.9961 17.5245 12.8907 17.712 12.7032C17.8995 12.5157 18.0049 12.2613 18.0049 11.9961C18.0049 11.7309 17.8995 11.4765 17.712 11.289C17.5245 11.1014 17.2701 10.9961 17.0049 10.9961Z" fill="#333333" fill-opacity="0.8"/>
</svg>
