<svg width="24" height="24" viewBox="0 0 24 24" fill="none" xmlns="http://www.w3.org/2000/svg">
<path d="M10.0354 6C9.8397 6.00062 9.64847 6.05908 9.4857 6.16806C9.32294 6.27705 9.19586 6.43172 9.12034 6.61273C9.04481 6.79375 9.02421 6.99307 9.06111 7.18576C9.098 7.37845 9.19077 7.55596 9.32779 7.69608L13.6006 11.9792L9.32779 16.2623C9.22778 16.3529 9.14716 16.463 9.09087 16.5858C9.03458 16.7086 9.00379 16.8416 9.00033 16.9767C8.99687 17.1118 9.02084 17.2462 9.07076 17.3718C9.12069 17.4973 9.19553 17.6114 9.29076 17.707C9.386 17.8027 9.49965 17.878 9.62479 17.9283C9.74992 17.9786 9.88395 18.0029 10.0187 17.9997C10.1535 17.9965 10.2863 17.9659 10.4089 17.9098C10.5315 17.8536 10.6415 17.7731 10.7321 17.673L15.7086 12.6845C15.8952 12.4974 16 12.2437 16 11.9792C16 11.7146 15.8952 11.4609 15.7086 11.2738L10.7321 6.28534C10.5465 6.10185 10.2961 5.99929 10.0354 6Z" fill="#727272" fill-opacity="0.5"/>
</svg>
