<svg width="16" height="16" viewBox="0 0 16 16" fill="none" xmlns="http://www.w3.org/2000/svg">
<path d="M11.3372 7.33138H8.67057V4.66471C8.67057 4.4879 8.60034 4.31833 8.47531 4.19331C8.35029 4.06828 8.18072 3.99805 8.00391 3.99805C7.8271 3.99805 7.65753 4.06828 7.5325 4.19331C7.40748 4.31833 7.33724 4.4879 7.33724 4.66471V7.33138H4.67057C4.49376 7.33138 4.32419 7.40162 4.19917 7.52664C4.07414 7.65167 4.00391 7.82124 4.00391 7.99805C4.00391 8.17486 4.07414 8.34443 4.19917 8.46945C4.32419 8.59448 4.49376 8.66471 4.67057 8.66471H7.33724V11.3314C7.33724 11.5082 7.40748 11.6778 7.5325 11.8028C7.65753 11.9278 7.8271 11.998 8.00391 11.998C8.18072 11.998 8.35029 11.9278 8.47531 11.8028C8.60034 11.6778 8.67057 11.5082 8.67057 11.3314V8.66471H11.3372C11.5141 8.66471 11.6836 8.59448 11.8086 8.46945C11.9337 8.34443 12.0039 8.17486 12.0039 7.99805C12.0039 7.82124 11.9337 7.65167 11.8086 7.52664C11.6836 7.40162 11.5141 7.33138 11.3372 7.33138Z" fill="white" fill-opacity="0.8"/>
</svg>
