<svg width="24" height="24" viewBox="0 0 24 24" fill="none" xmlns="http://www.w3.org/2000/svg">
<path d="M6.00003 4H18C18.5327 4.00343 19.0423 4.21769 19.4172 4.5958C19.792 4.97392 20.0016 5.48507 20 6.01729V10.1138C20 10.3788 19.8947 10.6329 19.7071 10.8203C19.5196 11.0077 19.2652 11.1129 19 11.1129C18.7348 11.1129 18.4805 11.0077 18.2929 10.8203C18.1054 10.6329 18 10.3788 18 10.1138V6.01729L6.00003 5.9943V12.155C6.00003 12.42 5.89467 12.6742 5.70713 12.8615C5.5196 13.0489 5.26524 13.1542 5.00003 13.1542C4.73481 13.1542 4.48045 13.0489 4.29292 12.8615C4.10538 12.6742 4.00003 12.42 4.00003 12.155V6.02128C3.99736 5.48837 4.20649 4.97618 4.58148 4.59721C4.95647 4.21823 5.46666 4.00343 6.00003 4Z" fill="#9E8EFF"/>
<path d="M19.966 16.0687C19.9826 16.1265 19.994 16.1857 20 16.2455L19.996 16.2585V16.2705C19.99 16.3344 19.9779 16.3976 19.96 16.4593C19.953 16.5203 19.9402 16.5805 19.922 16.6392V16.6532C19.8843 16.728 19.8372 16.7979 19.782 16.861C19.7621 16.8956 19.74 16.929 19.716 16.9609L16.716 20.0293C16.5304 20.2189 16.2769 20.327 16.0115 20.3299C15.746 20.3328 15.4903 20.2303 15.3005 20.0448C15.1108 19.8593 15.0025 19.6061 14.9996 19.3408C14.9967 19.0756 15.0994 18.8201 15.285 18.6305L16.625 17.2596H5.00003C4.73481 17.2596 4.48046 17.1544 4.29292 16.967C4.10539 16.7796 4.00003 16.5255 4.00003 16.2605C4.00003 15.9955 4.10539 15.7414 4.29292 15.554C4.48046 15.3666 4.73481 15.2613 5.00003 15.2613H16.636L15.294 13.8885C15.2021 13.7946 15.1296 13.6836 15.0806 13.5617C15.0316 13.4398 15.0072 13.3095 15.0086 13.1782C15.0101 13.0468 15.0374 12.9171 15.089 12.7963C15.1406 12.6755 15.2156 12.5661 15.3095 12.4742C15.4035 12.3824 15.5146 12.3099 15.6366 12.261C15.7586 12.2121 15.8891 12.1876 16.0205 12.1891C16.1519 12.1905 16.2818 12.2178 16.4027 12.2694C16.5236 12.321 16.6331 12.3959 16.725 12.4897L19.707 15.5411L19.713 15.5471L19.72 15.5541C19.7326 15.5672 19.741 15.5827 19.7494 15.5982C19.7564 15.6112 19.7635 15.6242 19.773 15.636C19.8345 15.7044 19.886 15.7811 19.926 15.8638V15.8768C19.9459 15.9392 19.9592 16.0035 19.966 16.0687Z" fill="#9E8EFF"/>
</svg>
