<svg width="24" height="24" viewBox="0 0 24 24" fill="none" xmlns="http://www.w3.org/2000/svg">
<path d="M17.0231 17.9832C16.7575 17.9832 16.5027 17.8779 16.3149 17.6905L12.0144 13.4019L7.71382 17.6905C7.52395 17.8635 7.27464 17.957 7.01752 17.9517C6.7604 17.9464 6.51518 17.8427 6.33262 17.6621C6.15006 17.4815 6.04416 17.2377 6.03684 16.9814C6.02953 16.725 6.12137 16.4757 6.29334 16.285L10.5939 11.9964L6.29334 7.70777C6.12047 7.51792 6.02743 7.26905 6.03348 7.01269C6.03954 6.75632 6.14422 6.5121 6.32586 6.33058C6.5075 6.14906 6.75219 6.04414 7.00925 6.03756C7.26632 6.03097 7.51607 6.12323 7.70681 6.29521L12.0144 10.5808L16.3109 6.29521C16.4033 6.1998 16.5138 6.1237 16.6361 6.07134C16.7583 6.01899 16.8897 5.99142 17.0227 5.99027C17.1558 5.98912 17.2877 6.0144 17.4108 6.06463C17.5339 6.11486 17.6457 6.18903 17.7398 6.28283C17.8338 6.37662 17.9082 6.48817 17.9586 6.61094C18.009 6.73371 18.0343 6.86525 18.0332 6.99789C18.032 7.13054 18.0044 7.26162 17.9519 7.3835C17.8994 7.50538 17.8231 7.61561 17.7274 7.70777L13.4268 11.9894L17.7244 16.285C17.8644 16.4247 17.9598 16.6027 17.9984 16.7964C18.0371 16.9902 18.0172 17.191 17.9414 17.3735C17.8656 17.556 17.7373 17.712 17.5726 17.8218C17.4079 17.9316 17.2142 17.9902 17.0161 17.9902L17.0231 17.9832Z" fill="white" fill-opacity="0.8"/>
</svg>
