<svg width="24" height="24" viewBox="0 0 24 24" fill="none" xmlns="http://www.w3.org/2000/svg">
<path d="M14 11H10C9.73478 11 9.48043 11.1053 9.29289 11.2929C9.10536 11.4804 9 11.7348 9 12C9 12.2652 9.10536 12.5196 9.29289 12.7071C9.48043 12.8946 9.73478 13 10 13H14C14.2652 13 14.5196 12.8946 14.7071 12.7071C14.8946 12.5196 15 12.2652 15 12C15 11.7348 14.8946 11.4804 14.7071 11.2929C14.5196 11.1053 14.2652 11 14 11Z" fill="white" fill-opacity="0.8"/>
<path d="M18 5H6C5.46957 5 4.96087 5.21071 4.58579 5.58578C4.21072 5.96086 4 6.46957 4 7V17C4 17.5304 4.21072 18.0391 4.58579 18.4142C4.96087 18.7893 5.46957 19 6 19H18C18.5304 19 19.0391 18.7893 19.4142 18.4142C19.7893 18.0391 20 17.5304 20 17V7C20 6.46957 19.7893 5.96086 19.4142 5.58578C19.0391 5.21071 18.5304 5 18 5ZM6 17V7H18V17H6Z" fill="white" fill-opacity="0.8"/>
</svg>
