<svg width="24" height="24" viewBox="0 0 24 24" fill="none" xmlns="http://www.w3.org/2000/svg">
<path d="M18.1312 5.00017H5.87582C5.38597 4.9935 4.91342 5.18084 4.5618 5.52113C4.21018 5.86141 4.00816 6.32689 4 6.81552V14.1647C4.00842 14.6531 4.2106 15.1182 4.56223 15.4581C4.91385 15.798 5.38623 15.985 5.87582 15.9781H7.00532L9.22928 18.6407C9.24729 18.6627 9.27431 18.6707 9.29431 18.6906C9.31391 18.7177 9.33493 18.7437 9.35733 18.7685C9.40594 18.8023 9.45749 18.8317 9.51139 18.8563C9.54585 18.8787 9.58162 18.899 9.61846 18.9172C9.7378 18.9694 9.86632 18.9976 9.99662 19C10.1272 18.9976 10.2561 18.9694 10.3758 18.9172C10.4126 18.899 10.4484 18.8787 10.4828 18.8563C10.5367 18.8317 10.5883 18.8023 10.6369 18.7685C10.6593 18.7437 10.6803 18.7177 10.6999 18.6906C10.7189 18.6707 10.747 18.6627 10.765 18.6407L12.9889 15.9781H18.1242C18.6138 15.9853 19.0864 15.7984 19.438 15.4584C19.7897 15.1185 19.9918 14.6532 20 14.1647V6.81552C19.9921 6.32803 19.7911 5.86346 19.4409 5.52332C19.0908 5.18318 18.6199 4.9951 18.1312 5.00017ZM18.0061 13.9821H12.6788C12.6132 13.9884 12.5484 14.0018 12.4857 14.022C12.3429 14.0223 12.2018 14.0535 12.0723 14.1134C11.9427 14.1734 11.8278 14.2607 11.7354 14.3693L10.0026 16.4421L8.27086 14.3693C8.17849 14.2606 8.06357 14.1733 7.93401 14.1133C7.80445 14.0534 7.66335 14.0222 7.52053 14.022C7.45782 14.0017 7.39308 13.9883 7.32745 13.9821H6.00488V6.99616H18.0101L18.0061 13.9821Z" fill="white" fill-opacity="0.8"/>
<path d="M10.0066 11.4871H14.0084C14.2737 11.4871 14.5282 11.382 14.7158 11.1948C14.9034 11.0076 15.0088 10.7538 15.0088 10.4891C15.0088 10.2244 14.9034 9.97059 14.7158 9.78343C14.5282 9.59627 14.2737 9.49113 14.0084 9.49113H10.0066C9.7413 9.49113 9.48682 9.59627 9.2992 9.78343C9.11158 9.97059 9.00619 10.2244 9.00619 10.4891C9.00619 10.7538 9.11158 11.0076 9.2992 11.1948C9.48682 11.382 9.7413 11.4871 10.0066 11.4871Z" fill="white" fill-opacity="0.8"/>
</svg>
