<svg width="24" height="24" viewBox="0 0 24 24" fill="none" xmlns="http://www.w3.org/2000/svg">
<path d="M12 4.00024C10.4178 4.00024 8.87102 4.4694 7.55543 5.34845C6.23984 6.2275 5.21446 7.47697 4.60896 8.93878C4.00345 10.4006 3.84504 12.0091 4.15373 13.561C4.46241 15.1128 5.22433 16.5383 6.34315 17.6571C7.46197 18.7759 8.88743 19.5378 10.4393 19.8465C11.9911 20.1552 13.5997 19.9968 15.0615 19.3913C16.5233 18.7858 17.7727 17.7604 18.6517 16.4448C19.5308 15.1292 20 13.5825 20 12.0002C19.9976 9.87924 19.154 7.84578 17.6542 6.34601C16.1544 4.84623 14.121 4.00263 12 4.00024ZM12 18.0002C10.8133 18.0002 9.65327 17.6484 8.66657 16.9891C7.67988 16.3298 6.91083 15.3927 6.4567 14.2963C6.00258 13.2 5.88376 11.9936 6.11527 10.8297C6.34678 9.66583 6.91825 8.59668 7.75736 7.75757C8.59648 6.91845 9.66556 6.34705 10.8294 6.11554C11.9933 5.88403 13.1997 6.00284 14.2961 6.45697C15.3924 6.9111 16.3295 7.68011 16.9888 8.66681C17.6481 9.6535 18 10.8136 18 12.0002C17.9982 13.591 17.3654 15.116 16.2406 16.2408C15.1158 17.3657 13.5907 17.9984 12 18.0002Z" fill="#E74852"/>
<path d="M13 11.7272V8.11621C13 7.85099 12.8946 7.59666 12.7071 7.40912C12.5196 7.22158 12.2652 7.11621 12 7.11621C11.7348 7.11621 11.4804 7.22158 11.2929 7.40912C11.1053 7.59666 11 7.85099 11 8.11621V12.0002C10.9997 12.1818 11.0491 12.3599 11.143 12.5153L12.31 14.4592C12.4465 14.6867 12.6677 14.8505 12.925 14.9149C13.1823 14.9792 13.4546 14.9387 13.682 14.8022C13.9094 14.6658 14.0733 14.4446 14.1376 14.1873C14.202 13.93 14.1614 13.6577 14.025 13.4302L13 11.7272Z" fill="#E74852"/>
<path d="M19 5.00024L5 19.0002" stroke="#E74852" stroke-width="2" stroke-linecap="round"/>
</svg>
