<svg width="24" height="24" viewBox="0 0 24 24" fill="none" xmlns="http://www.w3.org/2000/svg">
<path d="M12.0433 16C11.7795 15.9999 11.5265 15.8955 11.34 15.7098L6.36594 10.7578C6.25816 10.6702 6.17 10.5612 6.10719 10.4376C6.04438 10.314 6.00829 10.1787 6.00127 10.0404C5.99424 9.90211 6.01645 9.76387 6.06642 9.63462C6.11639 9.50538 6.19302 9.38801 6.29138 9.29008C6.38974 9.19216 6.50766 9.11586 6.63748 9.06611C6.7673 9.01636 6.90613 8.99427 7.04505 9.00126C7.18398 9.00826 7.31989 9.04418 7.444 9.10671C7.56812 9.16925 7.67769 9.257 7.76563 9.3643L12.0433 13.6131L16.3141 9.36133C16.5017 9.18092 16.753 9.08109 17.0138 9.08335C17.2747 9.08561 17.5242 9.18976 17.7086 9.37339C17.8931 9.55702 17.9977 9.80543 18 10.0651C18.0022 10.3248 17.902 10.575 17.7207 10.7618L12.7467 15.7138C12.6542 15.8053 12.5445 15.8778 12.4237 15.9269C12.303 15.976 12.1738 16.0008 12.0433 16Z" fill="white" fill-opacity="0.5"/>
</svg>
