<svg width="24" height="24" viewBox="0 0 24 24" fill="none" xmlns="http://www.w3.org/2000/svg">
<path fill-rule="evenodd" clip-rule="evenodd" d="M4.82022 6.82619H7.04518V9.34801H4.82022V6.82619ZM7.95562 5.00012L7.95529 5.00012L4.71908 5.00012C4.24209 5.00012 3.79848 5.20437 3.48171 5.54487C3.16691 5.88323 3 6.32949 3 6.78271V10.261V16.3478C3 16.8521 3.40747 17.2608 3.91011 17.2608H4.77253C4.89339 17.6071 5.0835 17.9283 5.33682 18.2006C5.8053 18.7041 6.45468 19 7.14622 19C7.83777 19 8.48714 18.7041 8.95563 18.2006C9.20895 17.9283 9.39906 17.6071 9.51991 17.2608H14.4803C14.6012 17.6071 14.7913 17.9283 15.0446 18.2006C15.5131 18.7041 16.1624 19 16.854 19C17.5455 19 18.1949 18.7041 18.6634 18.2006C18.9167 17.9283 19.1068 17.6071 19.2277 17.2608H20.0896C20.5922 17.2608 20.9997 16.8521 20.9997 16.3478V12.0232L21 12.0001C21 11.992 20.9999 11.9839 20.9997 11.9758C20.9955 10.2221 20.5329 8.49992 19.6621 7.1895C18.787 5.87257 17.5052 5.00012 16.0447 5.00012H15.2519C15.242 4.99996 15.2321 4.99996 15.2222 5.00012H12.0003C12.0002 5.00012 12.0001 5.00012 12 5.00012L7.95562 5.00012ZM11.0899 6.82619H8.8654V9.34801H11.0899V6.82619ZM12.9101 9.34801H14.9927L14.4899 6.82619H12.9101V9.34801ZM4.82022 11.1741H15.3567L15.5571 12.1791C15.6421 12.6059 16.0157 12.9131 16.4495 12.9131H19.1795V15.3072C19.0587 15.0097 18.8853 14.7336 18.6634 14.4952C18.1949 13.9916 17.5455 13.6957 16.854 13.6957C16.1624 13.6957 15.5131 13.9916 15.0446 14.4952C14.7913 14.7674 14.6012 15.0886 14.4803 15.4348H9.51987C9.39901 15.0886 9.20892 14.7674 8.95563 14.4952C8.48714 13.9916 7.83777 13.6957 7.14622 13.6957C6.45468 13.6957 5.8053 13.9916 5.33682 14.4952C5.11463 14.734 4.94107 15.0104 4.82022 15.3084V11.1741ZM18.1476 8.20242C17.5999 7.37814 16.9547 6.95858 16.3516 6.85316L17.1956 11.0871H19.1286C19.0036 9.97472 18.6543 8.96481 18.1476 8.20242ZM7.85396 16.3336L7.85385 16.3478L7.85396 16.3621C7.85051 16.5951 7.76249 16.8068 7.62494 16.9546C7.48658 17.1033 7.31289 17.1739 7.14622 17.1739C6.97955 17.1739 6.80587 17.1033 6.6675 16.9546C6.52716 16.8038 6.43838 16.5865 6.43838 16.3479C6.43838 16.1092 6.52716 15.892 6.6675 15.7411C6.80587 15.5924 6.97955 15.5218 7.14622 15.5218C7.31289 15.5218 7.48658 15.5924 7.62494 15.7411C7.76248 15.8889 7.85049 16.1006 7.85396 16.3336ZM17.5617 16.3315L17.5615 16.3478L17.5617 16.3642C17.5577 16.5964 17.4698 16.8072 17.3327 16.9546C17.1943 17.1033 17.0207 17.1739 16.854 17.1739C16.6873 17.1739 16.5136 17.1033 16.3753 16.9546C16.2349 16.8038 16.1461 16.5865 16.1461 16.3479C16.1461 16.1092 16.2349 15.892 16.3753 15.7411C16.5136 15.5924 16.6873 15.5218 16.854 15.5218C17.0207 15.5218 17.1943 15.5924 17.3327 15.7411C17.4698 15.8885 17.5577 16.0993 17.5617 16.3315Z" fill="white" fill-opacity="0.8"/>
</svg>
