<svg width="20" height="20" viewBox="0 0 20 20" fill="none" xmlns="http://www.w3.org/2000/svg">
<g clip-path="url(#clip0_2119_17576)">
<path d="M1.73364 1.91641C2.02532 1.62489 2.49183 1.62499 2.78345 1.90827C2.79175 1.91663 2.80037 1.93333 2.80868 1.94164L17.7916 16.9164C17.7916 16.9164 17.8087 16.9333 17.8087 16.9416H17.8168C18.0834 17.2416 18.0749 17.6917 17.7916 17.9833C17.6416 18.1248 17.4501 18.1997 17.2585 18.1998C17.067 18.1998 16.8753 18.1248 16.7336 17.9833L11.6498 12.8995C11.6498 12.9411 11.6584 12.9831 11.675 13.0248L12.1251 14.4083C12.3917 15.2082 12.1919 16.0748 11.592 16.6747L11.1998 17.0662C10.9248 17.3495 10.55 17.4999 10.15 17.4999C9.75002 17.4999 9.38349 17.3495 9.10018 17.0662L6.55867 14.5165L4.52498 16.5502C4.37512 16.6999 4.18355 16.7747 3.98381 16.7748C3.78387 16.7748 3.59993 16.7001 3.44995 16.5502C3.15003 16.2586 3.1502 15.7752 3.44995 15.4752L5.48364 13.4415L2.93319 10.8918C2.65819 10.6085 2.50024 10.2329 2.50024 9.84122C2.50031 9.44968 2.6583 9.06635 2.93319 8.79141L3.32544 8.39997C3.92544 7.80004 4.79192 7.59113 5.59188 7.86612L6.96639 8.31615C6.96639 8.31615 7.04191 8.33305 7.08358 8.34138L1.73364 2.98331C1.44198 2.68331 1.44198 2.20808 1.73364 1.91641Z" fill="#0441C4"/>
<path d="M9.61694 3.12491C10.4503 2.29162 11.9086 2.29159 12.7419 3.12491L16.8582 7.24112C17.7165 8.10778 17.7165 9.51674 16.8582 10.3751C15.9915 11.2414 14.5916 11.2415 13.725 10.3751L9.61694 6.21654C9.20028 5.84154 8.96672 5.28314 8.96672 4.69148C8.96672 4.09981 9.20028 3.54991 9.61694 3.12491Z" fill="#0441C4"/>
</g>
<defs>
<clipPath id="clip0_2119_17576">
<rect width="20" height="20" fill="white"/>
</clipPath>
</defs>
</svg>
