<svg width="24" height="24" viewBox="0 0 24 24" fill="none" xmlns="http://www.w3.org/2000/svg">
<path fill-rule="evenodd" clip-rule="evenodd" d="M20.1149 3.0044C20.6062 2.96044 21.0405 3.31742 21.0852 3.801L21.9964 13.6588C22.019 13.9048 21.9349 14.1491 21.7657 14.3314C21.5965 14.5137 21.3574 14.6176 21.1065 14.6176H20.2874C20.2875 14.6234 20.2884 14.6291 20.2884 14.6348C20.2883 15.3721 19.9913 16.0797 19.4615 16.601C18.9318 17.1224 18.2129 17.4148 17.4637 17.4148C17.3248 17.4148 17.1875 17.4011 17.0517 17.3814C17.0161 17.5718 16.9625 17.7588 16.887 17.9386C16.745 18.2758 16.5366 18.5829 16.2743 18.8411C16.012 19.0992 15.7 19.3043 15.3573 19.444C15.0147 19.5836 14.6474 19.6558 14.2765 19.6558C13.9057 19.6558 13.5383 19.5836 13.1957 19.444C13.0587 19.3881 12.9281 19.3196 12.8021 19.2437C12.6613 19.593 12.4512 19.9154 12.1759 20.1862C11.6462 20.7074 10.9272 21 10.1781 21C9.42922 20.9998 8.71092 20.7073 8.18128 20.1862L2.26149 14.36C2.07434 14.1756 1.97974 13.9184 2.00364 13.6588L2.91483 3.801C2.95949 3.31744 3.39382 2.96048 3.88514 3.0044C4.35496 3.04648 4.7057 3.43926 4.69648 3.8964H10.9623C11.7093 3.44548 12.5497 3.15226 13.4303 3.04542C14.7913 2.88042 16.1692 3.16792 17.3464 3.86015L17.7749 4.1101L17.7797 4.11296C17.9771 4.23009 18.2118 4.2702 18.4379 4.22649L19.3142 4.05286L19.3064 3.95937C19.262 3.47594 19.6236 3.04835 20.1149 3.0044ZM4.53654 5.65561L3.82116 13.4079L9.44433 18.9422C9.63893 19.1337 9.90297 19.2416 10.1781 19.2417C10.4534 19.2417 10.7182 19.1337 10.9129 18.9422C11.1074 18.7506 11.2172 18.4908 11.2173 18.22C11.2173 17.9491 11.1074 17.6894 10.9129 17.4978C10.9098 17.4948 10.9072 17.4913 10.9042 17.4883L10.4573 17.0485C10.109 16.7052 10.1088 16.1486 10.4573 15.8054C10.8061 15.4623 11.3725 15.4623 11.7213 15.8054L13.5427 17.598C13.639 17.6926 13.7533 17.768 13.8791 17.8193C14.005 17.8707 14.1402 17.8966 14.2765 17.8966C14.4129 17.8966 14.548 17.8707 14.6739 17.8193C14.7999 17.768 14.9149 17.6929 15.0113 17.598C15.1076 17.5031 15.184 17.3899 15.2362 17.266C15.2882 17.1421 15.3147 17.0089 15.3147 16.8748C15.3146 16.7408 15.2883 16.6075 15.2362 16.4837C15.1859 16.3643 15.1125 16.2557 15.021 16.1631L13.1889 14.36C12.8406 14.0168 12.8406 13.4602 13.1889 13.117C13.5377 12.7737 14.104 12.7739 14.4529 13.117L16.2646 14.9C16.2677 14.903 16.2713 14.9056 16.2743 14.9086C16.2773 14.9116 16.2801 14.9152 16.2831 14.9181L16.729 15.357C16.9236 15.5486 17.1884 15.6565 17.4637 15.6566C17.739 15.6565 18.0028 15.5486 18.1975 15.357C18.3922 15.1654 18.5018 14.9058 18.5019 14.6348C18.5018 14.3639 18.3922 14.1033 18.1975 13.9117L14.6652 10.4352L14.5305 10.315C14.2034 10.0516 13.7917 9.90575 13.3653 9.90575C12.8783 9.90591 12.411 10.0965 12.0664 10.4352L12.0654 10.4343L11.2657 11.2232C10.736 11.7446 10.0171 12.0379 9.26791 12.038C8.51877 12.0379 7.79982 11.7446 7.27009 11.2232C6.74046 10.7018 6.44227 9.9943 6.44227 9.25702C6.44237 8.51974 6.74038 7.81214 7.27009 7.29079L8.93155 5.65561H4.53654ZM16.4314 5.3694C15.595 4.87738 14.6154 4.67398 13.6484 4.79127C12.6814 4.90865 11.7811 5.34 11.0912 6.01718L8.53315 8.53483C8.33873 8.72637 8.22984 8.98628 8.22974 9.25702C8.22974 9.52793 8.33859 9.78853 8.53315 9.98016C8.72781 10.1717 8.99263 10.2787 9.26791 10.2788C9.54308 10.2787 9.80704 10.1715 10.0017 9.98016L10.8034 9.19024C11.4829 8.52223 12.4049 8.14766 13.3653 8.1475C14.3257 8.1475 15.2476 8.52245 15.9273 9.19024L19.4615 12.6686C19.5234 12.7294 19.5816 12.7937 19.637 12.8594H20.1284L19.477 5.81397L18.7869 5.95135L18.784 5.95231C18.1234 6.08031 17.4377 5.96161 16.8608 5.62031L16.4323 5.37036L16.4314 5.3694Z" fill="#333333"/>
</svg>
