<svg width="16" height="16" viewBox="0 0 16 16" fill="none" xmlns="http://www.w3.org/2000/svg">
<path fill-rule="evenodd" clip-rule="evenodd" d="M8 14C11.3137 14 14 11.3137 14 8C14 4.68629 11.3137 2 8 2C4.68629 2 2 4.68629 2 8C2 11.3137 4.68629 14 8 14ZM5.19269 5.19265C5.45109 4.93425 5.87182 4.93602 6.13241 5.19661L8.00002 7.06421L9.86756 5.19667C10.1282 4.93608 10.5489 4.93431 10.8073 5.19271C11.0657 5.45112 11.0639 5.87185 10.8033 6.13244L8.93579 7.99998L10.8034 9.86756C11.064 10.1282 11.0657 10.5489 10.8073 10.8073C10.5489 11.0657 10.1282 11.0639 9.8676 10.8033L8.00002 8.93575L6.13238 10.8034C5.87179 11.064 5.45106 11.0658 5.19265 10.8073C4.93425 10.5489 4.93602 10.1282 5.19661 9.86762L7.06425 7.99998L5.19664 6.13238C4.93605 5.87179 4.93428 5.45106 5.19269 5.19265Z" fill="#333333" fill-opacity="0.5"/>
</svg>
