<svg width="24" height="24" viewBox="0 0 24 24" fill="none" xmlns="http://www.w3.org/2000/svg">
<path d="M12 9.955C11.9327 9.95779 11.8654 9.95106 11.8 9.93499C11.7387 9.92381 11.6785 9.90742 11.62 9.886C11.5582 9.8561 11.4981 9.82271 11.44 9.78599C11.3311 9.71712 11.2389 9.62491 11.17 9.516C11.1319 9.46004 11.1016 9.39914 11.08 9.335C11.0508 9.27847 11.0306 9.21774 11.02 9.15499C11.0084 9.08891 11.0017 9.02207 11 8.955C11.0038 8.68996 11.1074 8.4361 11.29 8.244L11.44 8.124C11.4957 8.08614 11.5563 8.05586 11.62 8.03399C11.6767 8.0051 11.7373 7.98488 11.8 7.97399C11.9622 7.9438 12.1293 7.95254 12.2875 7.99948C12.4457 8.04641 12.5905 8.13022 12.71 8.244C12.8926 8.4361 12.9962 8.68996 13 8.955C12.9983 9.02207 12.9916 9.08891 12.98 9.15499C12.9694 9.21774 12.9492 9.27847 12.92 9.335C12.8984 9.39914 12.8681 9.46004 12.83 9.516L12.71 9.666C12.5207 9.85216 12.2655 9.95603 12 9.955Z" fill="#9E8EFF"/>
<path d="M12 16C11.7348 16 11.4804 15.8946 11.2929 15.7071C11.1054 15.5196 11 15.2652 11 15V12C11 11.7348 11.1054 11.4804 11.2929 11.2929C11.4804 11.1054 11.7348 11 12 11C12.2652 11 12.5196 11.1054 12.7071 11.2929C12.8946 11.4804 13 11.7348 13 12V15C13 15.2652 12.8946 15.5196 12.7071 15.7071C12.5196 15.8946 12.2652 16 12 16Z" fill="#9E8EFF"/>
<path d="M12 20C10.4178 20 8.87103 19.5308 7.55544 18.6518C6.23985 17.7727 5.21447 16.5233 4.60897 15.0615C4.00347 13.5997 3.84504 11.9911 4.15372 10.4393C4.4624 8.88744 5.22434 7.46198 6.34316 6.34316C7.46198 5.22434 8.88744 4.4624 10.4393 4.15372C11.9911 3.84504 13.5997 4.00347 15.0615 4.60897C16.5233 5.21447 17.7727 6.23985 18.6518 7.55544C19.5308 8.87103 20 10.4178 20 12C19.9976 14.121 19.154 16.1545 17.6542 17.6542C16.1545 19.154 14.121 19.9976 12 20ZM12 6C10.8133 6 9.65328 6.3519 8.66658 7.01119C7.67989 7.67048 6.91086 8.60755 6.45673 9.70391C6.0026 10.8003 5.88379 12.0067 6.1153 13.1706C6.34681 14.3344 6.91824 15.4035 7.75736 16.2427C8.59647 17.0818 9.66559 17.6532 10.8295 17.8847C11.9934 18.1162 13.1997 17.9974 14.2961 17.5433C15.3925 17.0892 16.3295 16.3201 16.9888 15.3334C17.6481 14.3467 18 13.1867 18 12C17.9982 10.4093 17.3654 8.88424 16.2406 7.75942C15.1158 6.6346 13.5907 6.00186 12 6Z" fill="#9E8EFF"/>
</svg>
