<svg width="24" height="24" viewBox="0 0 24 24" fill="none" xmlns="http://www.w3.org/2000/svg">
<path d="M18 9.995H17.08V9.82C17.08 6.613 14.8 4 12 4C9.2 4 6.917 6.609 6.917 9.816V9.991H6C5.46957 9.991 4.96086 10.2017 4.58578 10.5768C4.21071 10.9519 4 11.4606 4 11.991V18C4 18.5304 4.21071 19.0391 4.58578 19.4142C4.96086 19.7893 5.46957 20 6 20H18C18.5304 20 19.0391 19.7893 19.4142 19.4142C19.7893 19.0391 20 18.5304 20 18V11.995C20 11.4646 19.7893 10.9559 19.4142 10.5808C19.0391 10.2057 18.5304 9.995 18 9.995ZM8.917 9.82C8.917 7.72 10.3 6.004 12 6.004C13.7 6.004 15.084 7.716 15.084 9.82V9.995H8.913L8.917 9.82ZM6 18V11.995H18V18.004L6 18Z" fill="white" fill-opacity="0.8"/>
<path d="M12 12.994C11.7348 12.994 11.4804 13.0994 11.2929 13.2869C11.1054 13.4744 11 13.7288 11 13.994V16.005C11 16.2702 11.1054 16.5246 11.2929 16.7121C11.4804 16.8996 11.7348 17.005 12 17.005C12.2652 17.005 12.5196 16.8996 12.7071 16.7121C12.8946 16.5246 13 16.2702 13 16.005V13.994C13 13.7288 12.8946 13.4744 12.7071 13.2869C12.5196 13.0994 12.2652 12.994 12 12.994Z" fill="white" fill-opacity="0.8"/>
</svg>
