<svg width="24" height="24" viewBox="0 0 24 24" fill="none" xmlns="http://www.w3.org/2000/svg">
<path fill-rule="evenodd" clip-rule="evenodd" d="M3.5 6.5C3.5 5.94772 3.94772 5.5 4.5 5.5H19.5C20.0523 5.5 20.5 5.94772 20.5 6.5V16.8889C20.5 17.3235 20.3232 17.7357 20.0161 18.036C19.7097 18.3356 19.2988 18.5 18.875 18.5H5.125C4.70118 18.5 4.29032 18.3356 3.98394 18.036C3.67679 17.7357 3.5 17.3235 3.5 16.8889V6.5ZM7.11397 7.5L12 11.8793L16.886 7.5H7.11397ZM18.5 8.73918L12.6674 13.9669C12.2876 14.3073 11.7124 14.3073 11.3326 13.9669L5.5 8.73918V16.5H18.5V8.73918Z" fill="white" fill-opacity="0.8"/>
</svg>
