<svg width="24" height="24" viewBox="0 0 24 24" fill="none" xmlns="http://www.w3.org/2000/svg">
<path d="M20.2332 8.69316L15.2994 3.75042C14.2986 2.74986 12.5473 2.74986 11.5465 3.75042C11.0461 4.25069 10.7659 4.92107 10.7659 5.63146C10.7659 6.34186 11.0461 7.01223 11.5465 7.45247L9.22475 9.77376C9.00459 10.0039 8.66433 10.0739 8.3641 9.97387L6.71284 9.43357C5.7521 9.1134 4.7013 9.35353 3.99076 10.0739L3.5204 10.5442C3.18014 10.8844 3 11.3346 3 11.8049C3 12.2752 3.18014 12.7254 3.5204 13.0656L6.58274 16.1273L4.14087 18.5686C3.7806 18.9288 3.7806 19.4992 4.14087 19.8594C4.32101 20.0395 4.55118 20.1295 4.78136 20.1295C5.01154 20.1295 5.25172 20.0395 5.42185 19.8594L7.86371 17.418L10.916 20.4797C11.2563 20.8199 11.6966 21 12.177 21C12.6574 21 13.0977 20.8199 13.438 20.4797L13.9083 20.0094C14.6289 19.289 14.8691 18.2485 14.5488 17.2879L13.9984 15.627C13.8983 15.3268 13.9784 14.9967 14.1986 14.7765L16.4603 12.4553C17.5011 13.4958 19.1824 13.4958 20.2232 12.4553C21.2639 11.4147 21.2539 9.73374 20.2232 8.69316H20.2332ZM18.9522 11.1645C18.6319 11.4947 18.0915 11.4947 17.7713 11.1645C17.0707 10.4742 15.9499 10.4742 15.2494 11.1645L12.9276 13.4858C12.207 14.2062 11.9668 15.2468 12.2871 16.2073L12.8375 17.8683C12.9376 18.1684 12.8575 18.4986 12.6374 18.7187L12.227 19.189L8.57426 15.567C8.57426 15.567 8.54423 15.5069 8.52422 15.4869C8.5042 15.4669 8.46417 15.4569 8.44416 15.4369L4.82139 11.8349L5.29175 11.3646C5.45187 11.2046 5.66203 11.1245 5.8822 11.1245C5.97227 11.1245 6.06234 11.1345 6.15241 11.1745L7.80367 11.7148C8.7644 12.035 9.8052 11.7949 10.5257 11.0745L12.8475 8.7532C13.1878 8.41301 13.3679 7.97276 13.3679 7.4925C13.3679 7.01223 13.1878 6.56198 12.8475 6.2318C12.6874 6.07171 12.6073 5.86159 12.6073 5.64147C12.6073 5.42134 12.6974 5.21123 12.8475 5.05114C13.1578 4.74097 13.7082 4.73096 14.0284 5.05114L18.9622 9.99389C19.2824 10.3241 19.2824 10.8544 18.9622 11.1745L18.9522 11.1645Z" fill="white"/>
</svg>
