<svg width="14" height="14" viewBox="0 0 14 14" fill="none" xmlns="http://www.w3.org/2000/svg">
<path d="M12.9249 4.26987L9.22454 0.562813C8.47397 -0.187604 7.16047 -0.187604 6.40989 0.562813C6.03461 0.938021 5.82445 1.4408 5.82445 1.9736C5.82445 2.50639 6.03461 3.00917 6.40989 3.33935L4.66856 5.08032C4.50344 5.25292 4.24824 5.30545 4.02307 5.23041L2.78463 4.82518C2.06408 4.58505 1.27597 4.76515 0.743067 5.30545L0.390298 5.65814C0.135103 5.91328 0 6.25097 0 6.60367C0 6.95636 0.135103 7.29405 0.390298 7.54919L2.68705 9.84547L0.855653 11.6765C0.585447 11.9466 0.585447 12.3744 0.855653 12.6445C0.990756 12.7796 1.16339 12.8471 1.33602 12.8471C1.50865 12.8471 1.68879 12.7796 1.81639 12.6445L3.64779 10.8135L5.93703 13.1098C6.19223 13.3649 6.52248 13.5 6.88276 13.5C7.24303 13.5 7.57328 13.3649 7.82848 13.1098L8.18125 12.7571C8.72166 12.2168 8.9018 11.4364 8.66161 10.716L8.2488 9.47026C8.17374 9.24514 8.23379 8.9975 8.39891 8.83241L10.0952 7.09144C10.8758 7.87187 12.1368 7.87187 12.9174 7.09144C13.698 6.31101 13.6905 5.0503 12.9174 4.26987H12.9249ZM11.9641 6.1234C11.724 6.37104 11.3186 6.37104 11.0785 6.1234C10.5531 5.60561 9.71242 5.60561 9.18701 6.1234L7.44569 7.86437C6.90527 8.40467 6.72513 9.1851 6.96532 9.9055L7.37813 11.1512C7.45319 11.3763 7.39315 11.624 7.22802 11.789L6.92028 12.1417L4.18069 9.42524C4.18069 9.42524 4.15818 9.38021 4.14316 9.3652C4.12815 9.35019 4.09813 9.34269 4.08312 9.32768L1.36604 6.62618L1.71881 6.27348C1.8389 6.15342 1.99652 6.09338 2.16165 6.09338C2.2292 6.09338 2.29675 6.10089 2.36431 6.13091L3.60275 6.53613C4.3233 6.77626 5.1039 6.59616 5.64431 6.05586L7.38564 4.3149C7.64083 4.05975 7.77594 3.72957 7.77594 3.36937C7.77594 3.00917 7.64083 2.67148 7.38564 2.42385C7.26555 2.30378 7.2055 2.14619 7.2055 1.9811C7.2055 1.81601 7.27305 1.65842 7.38564 1.53835C7.61832 1.30573 8.03113 1.29822 8.27132 1.53835L11.9716 5.24541C12.2118 5.49305 12.2118 5.89077 11.9716 6.13091L11.9641 6.1234Z" fill="#0441C4"/>
</svg>
