<svg width="25" height="24" viewBox="0 0 25 24" fill="none" xmlns="http://www.w3.org/2000/svg">
<path d="M18.2999 12.1761C18.3166 12.1183 18.328 12.059 18.3339 11.9991C18.3098 11.8737 18.2855 11.7484 18.2609 11.6231C18.2326 11.5674 18.1991 11.5145 18.1609 11.4651C18.1262 11.4041 18.085 11.3471 18.0379 11.2951L15.0229 8.29511C14.8348 8.108 14.5802 8.00325 14.3149 8.00391C14.0497 8.00457 13.7955 8.11056 13.6084 8.2986C13.4213 8.48664 13.3165 8.74131 13.3172 9.00658C13.3178 9.27185 13.4239 9.526 13.6119 9.71311L14.9119 11.0041H7.33789C7.07267 11.0041 6.81832 11.1095 6.63078 11.297C6.44325 11.4845 6.33789 11.7389 6.33789 12.0041C6.33789 12.2693 6.44325 12.5237 6.63078 12.7112C6.81832 12.8988 7.07267 13.0041 7.33789 13.0041H14.9149L13.6149 14.2951C13.4269 14.4822 13.3208 14.7364 13.3202 15.0016C13.3195 15.2669 13.4243 15.5216 13.6114 15.7096C13.7985 15.8977 14.0526 16.0036 14.3179 16.0043C14.5832 16.005 14.8379 15.9002 15.0259 15.7131L18.0409 12.7131C18.0849 12.66 18.1231 12.6023 18.1549 12.5411C18.1928 12.4919 18.2263 12.4393 18.2549 12.3841C18.2775 12.3166 18.2926 12.2469 18.2999 12.1761Z" fill="white"/>
</svg>
