<svg width="24" height="24" viewBox="0 0 24 24" fill="none" xmlns="http://www.w3.org/2000/svg">
<path d="M10.0964 7.36596C10.9986 6.99734 11.9883 6.90471 12.9421 7.09936C13.8959 7.29403 14.7726 7.76759 15.4622 8.46197C15.4726 8.47243 15.4832 8.48265 15.494 8.49264L17.1296 10H15C14.4477 10 14 10.4477 14 11C14 11.5523 14.4477 12 15 12H19C19.5523 12 20 11.5523 20 11V10.3674C20 10.3652 20 10.3631 20 10.3609V7C20 6.44772 19.5523 6 19 6C18.4477 6 18 6.44772 18 7V8.08235L16.8651 7.03638C15.9009 6.07188 14.6763 5.41205 13.342 5.13976C12.0003 4.86592 10.6082 4.99637 9.33998 5.51453C8.07186 6.03266 6.98459 6.91514 6.21326 8.05065C5.44198 9.18608 5.02051 10.5245 5.00073 11.8986C4.98095 13.2728 5.3637 14.6228 6.10191 15.7802C6.84017 16.9377 7.90148 17.8514 9.15406 18.4063C10.4067 18.9612 11.7944 19.1323 13.1436 18.8977C14.4927 18.6632 15.7423 18.0336 16.7367 17.0888C17.137 16.7084 17.1532 16.0754 16.7728 15.6751C16.3923 15.2747 15.7594 15.2585 15.359 15.639C14.6498 16.3128 13.76 16.7606 12.801 16.9273C11.842 17.094 10.8554 16.9726 9.96413 16.5777C9.07277 16.1829 8.31562 15.5317 7.78811 14.7047C7.26055 13.8776 6.98635 12.9116 7.00052 11.9274C7.01469 10.9433 7.31658 9.98573 7.86766 9.17446C8.41869 8.36327 9.19417 7.7346 10.0964 7.36596Z" fill="white" fill-opacity="0.8"/>
</svg>
