<svg width="24" height="24" viewBox="0 0 24 24" fill="none" xmlns="http://www.w3.org/2000/svg">
<path d="M19.7059 18.2913L16.6309 15.1937C17.6784 13.7612 18.1471 11.9831 17.9426 10.2173C17.7381 8.45144 16.8755 6.82906 15.5286 5.67677C14.1817 4.52447 12.4504 3.92784 10.6834 4.00698C8.91634 4.08611 7.24475 4.83515 6.00515 6.10328C4.76554 7.37142 4.04998 9.06448 4.00252 10.8416C3.95507 12.6187 4.57924 14.3479 5.74939 15.681C6.91953 17.0142 8.54874 17.8522 10.309 18.0265C12.0693 18.2008 13.8299 17.6984 15.2364 16.6204L18.2984 19.706C18.4851 19.8939 18.7384 19.9997 19.0026 20C19.2669 20.0003 19.5204 19.895 19.7074 19.7075C19.8945 19.5199 19.9997 19.2653 20 18.9997C20.0003 18.7341 19.8956 18.4793 19.7089 18.2913H19.7059ZM11.0228 16.0527C10.0377 16.0527 9.07475 15.7591 8.25569 15.2091C7.43664 14.659 6.79826 13.8772 6.42129 12.9625C6.04432 12.0478 5.94569 11.0413 6.13786 10.0703C6.33004 9.09922 6.8044 8.20727 7.50095 7.50719C8.1975 6.80711 9.08495 6.33035 10.0511 6.1372C11.0172 5.94405 12.0187 6.04318 12.9288 6.42206C13.8388 6.80094 14.6167 7.44255 15.164 8.26576C15.7113 9.08896 16.0034 10.0568 16.0034 11.0469C16.0018 12.374 15.4765 13.6463 14.5428 14.5848C13.6091 15.5232 12.3432 16.0511 11.0228 16.0527Z" fill="#333333" fill-opacity="0.8"/>
</svg>
