<svg width="24" height="24" viewBox="0 0 24 24" fill="none" xmlns="http://www.w3.org/2000/svg">
<path d="M12 21C10.77 21 9.6075 20.7638 8.5125 20.2913C7.4175 19.8188 6.46125 19.1737 5.64375 18.3563C4.82625 17.5388 4.18125 16.5825 3.70875 15.4875C3.23625 14.3925 3 13.23 3 12C3 10.755 3.24375 9.585 3.73125 8.49C4.21875 7.395 4.87875 6.4425 5.71125 5.6325C6.54375 4.8225 7.515 4.18125 8.625 3.70875C9.735 3.23625 10.92 3 12.18 3C13.38 3 14.5125 3.20625 15.5775 3.61875C16.6425 4.03125 17.5763 4.60125 18.3788 5.32875C19.1813 6.05625 19.8188 6.91875 20.2913 7.91625C20.7638 8.91375 21 9.99 21 11.145C21 12.87 20.475 14.1938 19.425 15.1163C18.375 16.0388 17.1 16.5 15.6 16.5H13.935C13.8 16.5 13.7063 16.5375 13.6538 16.6125C13.6013 16.6875 13.575 16.77 13.575 16.86C13.575 17.04 13.6875 17.2988 13.9125 17.6363C14.1375 17.9738 14.25 18.36 14.25 18.795C14.25 19.545 14.0438 20.1 13.6313 20.46C13.2188 20.82 12.675 21 12 21ZM7.05 12.9C7.44 12.9 7.7625 12.7725 8.0175 12.5175C8.2725 12.2625 8.4 11.94 8.4 11.55C8.4 11.16 8.2725 10.8375 8.0175 10.5825C7.7625 10.3275 7.44 10.2 7.05 10.2C6.66 10.2 6.3375 10.3275 6.0825 10.5825C5.8275 10.8375 5.7 11.16 5.7 11.55C5.7 11.94 5.8275 12.2625 6.0825 12.5175C6.3375 12.7725 6.66 12.9 7.05 12.9ZM9.75 9.3C10.14 9.3 10.4625 9.1725 10.7175 8.9175C10.9725 8.6625 11.1 8.34 11.1 7.95C11.1 7.56 10.9725 7.2375 10.7175 6.9825C10.4625 6.7275 10.14 6.6 9.75 6.6C9.36 6.6 9.0375 6.7275 8.7825 6.9825C8.5275 7.2375 8.4 7.56 8.4 7.95C8.4 8.34 8.5275 8.6625 8.7825 8.9175C9.0375 9.1725 9.36 9.3 9.75 9.3ZM14.25 9.3C14.64 9.3 14.9625 9.1725 15.2175 8.9175C15.4725 8.6625 15.6 8.34 15.6 7.95C15.6 7.56 15.4725 7.2375 15.2175 6.9825C14.9625 6.7275 14.64 6.6 14.25 6.6C13.86 6.6 13.5375 6.7275 13.2825 6.9825C13.0275 7.2375 12.9 7.56 12.9 7.95C12.9 8.34 13.0275 8.6625 13.2825 8.9175C13.5375 9.1725 13.86 9.3 14.25 9.3ZM16.95 12.9C17.34 12.9 17.6625 12.7725 17.9175 12.5175C18.1725 12.2625 18.3 11.94 18.3 11.55C18.3 11.16 18.1725 10.8375 17.9175 10.5825C17.6625 10.3275 17.34 10.2 16.95 10.2C16.56 10.2 16.2375 10.3275 15.9825 10.5825C15.7275 10.8375 15.6 11.16 15.6 11.55C15.6 11.94 15.7275 12.2625 15.9825 12.5175C16.2375 12.7725 16.56 12.9 16.95 12.9ZM12 19.2C12.135 19.2 12.2438 19.1625 12.3263 19.0875C12.4088 19.0125 12.45 18.915 12.45 18.795C12.45 18.585 12.3375 18.3375 12.1125 18.0525C11.8875 17.7675 11.775 17.34 11.775 16.77C11.775 16.14 11.9925 15.6375 12.4275 15.2625C12.8625 14.8875 13.395 14.7 14.025 14.7H15.6C16.59 14.7 17.4375 14.4113 18.1425 13.8338C18.8475 13.2563 19.2 12.36 19.2 11.145C19.2 9.33 18.5063 7.81875 17.1188 6.61125C15.7313 5.40375 14.085 4.8 12.18 4.8C10.14 4.8 8.4 5.4975 6.96 6.8925C5.52 8.2875 4.8 9.99 4.8 12C4.8 13.995 5.50125 15.6938 6.90375 17.0963C8.30625 18.4988 10.005 19.2 12 19.2Z" fill="white" fill-opacity="0.8"/>
</svg>
