<svg width="11" height="8" viewBox="0 0 11 8" fill="none" xmlns="http://www.w3.org/2000/svg">
<path d="M3.9245 7.50023C3.66759 7.50028 3.42051 7.40144 3.2345 7.22423L0.3105 4.44123C0.215357 4.35061 0.138994 4.24215 0.085769 4.12202C0.0325444 4.0019 0.0035011 3.87247 0.000297477 3.74112C-0.00290615 3.60977 0.0197926 3.47908 0.0670977 3.3565C0.114403 3.23393 0.185388 3.12187 0.276 3.02673C0.366612 2.93158 0.475077 2.85522 0.595201 2.80199C0.715325 2.74877 0.844756 2.71973 0.976105 2.71652C1.10745 2.71332 1.23815 2.73602 1.36072 2.78332C1.4833 2.83063 1.59536 2.90161 1.6905 2.99223L3.9125 5.10822L8.3005 0.788225C8.39238 0.688771 8.50349 0.60901 8.62712 0.553779C8.75074 0.498547 8.88429 0.468995 9.01967 0.466915C9.15505 0.464834 9.28945 0.490269 9.41471 0.541675C9.53996 0.593082 9.65348 0.669391 9.74837 0.765975C9.84326 0.86256 9.91755 0.977408 9.96673 1.10356C10.0159 1.22971 10.039 1.36453 10.0345 1.49986C10.03 1.63518 9.9981 1.76819 9.94069 1.89081C9.88328 2.01343 9.80156 2.12312 9.7005 2.21323L4.6245 7.21322C4.43776 7.39687 4.18641 7.49992 3.9245 7.50023Z" fill="white" fill-opacity="0.8"/>
</svg>
