<svg width="24" height="24" viewBox="0 0 24 24" fill="none" xmlns="http://www.w3.org/2000/svg">
<path d="M17.9531 8.05347H9.95311C9.42268 8.05347 8.91397 8.26418 8.53889 8.63925C8.16382 9.01432 7.95311 9.52303 7.95311 10.0535V18.0315C7.95311 18.5619 8.16382 19.0706 8.53889 19.4457C8.91397 19.8208 9.42268 20.0315 9.95311 20.0315H17.9531C18.4835 20.0315 18.9923 19.8208 19.3673 19.4457C19.7424 19.0706 19.9531 18.5619 19.9531 18.0315V10.0535C19.9531 9.52303 19.7424 9.01432 19.3673 8.63925C18.9923 8.26418 18.4835 8.05347 17.9531 8.05347ZM9.95311 18.0315V10.0535H17.9531V18.0315H9.95311Z" fill="white" fill-opacity="0.8"/>
<path d="M15.0371 5.02148C15.0371 4.75627 14.9318 4.5019 14.7442 4.31436C14.5567 4.12683 14.3023 4.02148 14.0371 4.02148H6.03711C5.50668 4.02148 4.99797 4.2322 4.62289 4.60727C4.24782 4.98234 4.03711 5.49105 4.03711 6.02148V13.9955C4.03711 14.2607 4.14247 14.515 4.33 14.7026C4.51754 14.8901 4.77189 14.9955 5.03711 14.9955C5.30233 14.9955 5.55668 14.8901 5.74422 14.7026C5.93175 14.515 6.03711 14.2607 6.03711 13.9955V6.01846H14.0371C14.3018 6.01846 14.5557 5.91354 14.7432 5.72665C14.9306 5.53977 15.0363 5.28618 15.0371 5.02148Z" fill="white" fill-opacity="0.8"/>
</svg>
