<svg width="24" height="24" viewBox="0 0 24 24" fill="none" xmlns="http://www.w3.org/2000/svg">
<path fill-rule="evenodd" clip-rule="evenodd" d="M7.61133 3.88867C7.05904 3.88867 6.61133 4.33639 6.61133 4.88867V11.9998V19.1109C6.61133 19.6632 7.05904 20.1109 7.61133 20.1109H13.779C16.3107 20.1109 18.3891 18.0856 18.3891 15.5553C18.3891 13.6608 17.2239 12.0494 15.5757 11.3593C16.2237 10.5662 16.6113 9.54741 16.6113 8.44423C16.6113 5.95078 14.6313 3.88867 12.1392 3.88867H7.61133ZM12.1421 12.9998C12.1412 12.9998 12.1402 12.9998 12.1392 12.9998L8.61133 12.9998V18.1109H13.779C15.2349 18.1109 16.3891 16.9524 16.3891 15.5553C16.3891 14.1583 15.2349 12.9998 13.779 12.9998H12.1421ZM12.1407 10.9998C13.4831 10.9989 14.6113 9.87759 14.6113 8.44423C14.6113 7.01031 13.4823 5.88867 12.1392 5.88867H8.61133V10.9998H12.1392C12.1397 10.9998 12.1402 10.9998 12.1407 10.9998Z" fill="white" fill-opacity="0.8"/>
</svg>
