<svg width="24" height="24" viewBox="0 0 24 24" fill="none" xmlns="http://www.w3.org/2000/svg">
<path d="M12 4C10.4178 4 8.87102 4.46915 7.55543 5.34821C6.23984 6.22726 5.21446 7.47673 4.60896 8.93854C4.00345 10.4003 3.84504 12.0089 4.15373 13.5607C4.46241 15.1126 5.22433 16.538 6.34315 17.6569C7.46197 18.7757 8.88743 19.5376 10.4393 19.8463C11.9911 20.1549 13.5997 19.9966 15.0615 19.3911C16.5233 18.7856 17.7727 17.7602 18.6517 16.4446C19.5308 15.129 20 13.5823 20 12C19.9976 9.879 19.154 7.84554 17.6542 6.34576C16.1544 4.84599 14.121 4.00238 12 4ZM12 18C10.8133 18 9.65327 17.6481 8.66657 16.9888C7.67988 16.3295 6.91083 15.3924 6.4567 14.2961C6.00258 13.1997 5.88376 11.9934 6.11527 10.8295C6.34678 9.66558 6.91825 8.59644 7.75736 7.75732C8.59648 6.91821 9.66556 6.34681 10.8294 6.1153C11.9933 5.88378 13.1997 6.0026 14.2961 6.45673C15.3924 6.91085 16.3295 7.67987 16.9888 8.66656C17.6481 9.65326 18 10.8133 18 12C17.9982 13.5907 17.3654 15.1158 16.2406 16.2406C15.1158 17.3654 13.5907 17.9981 12 18Z" fill="white"/>
<path d="M13 11.727V8.11597C13 7.85075 12.8946 7.59641 12.7071 7.40887C12.5196 7.22134 12.2652 7.11597 12 7.11597C11.7348 7.11597 11.4804 7.22134 11.2929 7.40887C11.1053 7.59641 11 7.85075 11 8.11597V12C10.9997 12.1815 11.0491 12.3597 11.143 12.515L12.31 14.459C12.4465 14.6864 12.6677 14.8503 12.925 14.9146C13.1823 14.9789 13.4546 14.9385 13.682 14.802C13.9094 14.6655 14.0733 14.4443 14.1376 14.187C14.202 13.9297 14.1614 13.6574 14.025 13.43L13 11.727Z" fill="white"/>
</svg>
