<svg width="24" height="24" viewBox="0 0 24 24" fill="none" xmlns="http://www.w3.org/2000/svg">
<path d="M13.1669 13.9753H10.8339C10.5687 13.9753 10.3143 14.0807 10.1268 14.2682C9.93926 14.4557 9.83391 14.7101 9.83391 14.9753C9.83391 15.2405 9.93926 15.4949 10.1268 15.6824C10.3143 15.8699 10.5687 15.9753 10.8339 15.9753H13.1669C13.4321 15.9753 13.6865 15.8699 13.874 15.6824C14.0616 15.4949 14.1669 15.2405 14.1669 14.9753C14.1669 14.7101 14.0616 14.4557 13.874 14.2682C13.6865 14.0807 13.4321 13.9753 13.1669 13.9753Z" fill="#E74852"/>
<path d="M19.0039 8.01328H17.7809L17.1639 5.54428C17.0558 5.1116 16.8061 4.7275 16.4546 4.453C16.1031 4.1785 15.6699 4.02936 15.2239 4.0293H8.78491C8.33892 4.02936 7.90575 4.1785 7.55424 4.453C7.20274 4.7275 6.95306 5.1116 6.84491 5.54428L6.22691 8.01328H5.00391C4.73869 8.01328 4.48434 8.11865 4.2968 8.30618C4.10926 8.49372 4.00391 8.74806 4.00391 9.01328C4.00391 9.27849 4.10926 9.53286 4.2968 9.7204C4.48434 9.90793 4.73869 10.0133 5.00391 10.0133H6.00391V18.0253C6.00391 18.5557 6.21462 19.0644 6.58969 19.4395C6.96476 19.8146 7.47347 20.0253 8.00391 20.0253H16.0039C16.5343 20.0253 17.043 19.8146 17.4181 19.4395C17.7932 19.0644 18.0039 18.5557 18.0039 18.0253V10.0133H19.0039C19.2691 10.0133 19.5235 9.90793 19.711 9.7204C19.8986 9.53286 20.0039 9.27849 20.0039 9.01328C20.0039 8.74806 19.8986 8.49372 19.711 8.30618C19.5235 8.11865 19.2691 8.01328 19.0039 8.01328ZM8.78491 6.0293H15.2239L15.7239 8.01328H8.29291L8.78491 6.0293ZM16.0039 18.0293H8.00391V10.0173H16.0039V18.0293Z" fill="#E74852"/>
</svg>
