<svg width="24" height="24" viewBox="0 0 24 24" fill="none" xmlns="http://www.w3.org/2000/svg">
<path fill-rule="evenodd" clip-rule="evenodd" d="M4 5C3.44772 5 3 5.44772 3 6C3 6.55228 3.44772 7 4 7H9V19C9 19.5523 9.44772 20 10 20C10.5523 20 11 19.5523 11 19V7H15C15.5523 7 16 6.55228 16 6C16 5.44772 15.5523 5 15 5H10H4ZM14 10C13.4477 10 13 10.4477 13 11C13 11.5523 13.4477 12 14 12H16V19C16 19.5523 16.4477 20 17 20C17.5523 20 18 19.5523 18 19V12H20C20.5523 12 21 11.5523 21 11C21 10.4477 20.5523 10 20 10H17H14Z" fill="#727272" fill-opacity="0.8"/>
</svg>
