<svg width="24" height="24" viewBox="0 0 24 24" fill="none" xmlns="http://www.w3.org/2000/svg">
<path d="M11.9999 3C14.3869 3 16.6764 3.94792 18.3642 5.63574C20.052 7.32357 20.9999 9.61305 20.9999 12C20.9999 13.78 20.4722 15.52 19.4833 17C18.4945 18.4799 17.0887 19.6332 15.4443 20.3145C13.7997 20.9956 11.9899 21.1744 10.2441 20.8271C8.49827 20.4799 6.89435 19.6229 5.63569 18.3643C4.37702 17.1056 3.52007 15.5017 3.1728 13.7559C2.82553 12.01 3.0043 10.2002 3.68549 8.55566C4.3667 6.91127 5.52 5.50547 6.99994 4.5166C8.47995 3.52774 10.22 3 11.9999 3ZM15.9609 9.02051C15.6867 9.01853 15.4217 9.12123 15.2206 9.30762L10.6406 13.6289L8.76362 11.9404C8.55905 11.7575 8.29283 11.6585 8.0185 11.665C7.74429 11.6715 7.4827 11.7824 7.28705 11.9746C7.19289 12.0678 7.11874 12.1798 7.06928 12.3027C7.01988 12.4255 6.99565 12.5571 6.99897 12.6895C7.00234 12.8219 7.03316 12.953 7.08881 13.0732C7.14445 13.1934 7.2245 13.3004 7.32319 13.3887L9.93159 15.7461C10.1047 15.9019 10.3235 15.9961 10.5537 16.0166L10.6542 16.0215C10.9261 16.0223 11.1881 15.919 11.3867 15.7334L16.6865 10.7334C16.7839 10.6436 16.8623 10.5343 16.916 10.4131C16.9696 10.2919 16.998 10.1608 16.999 10.0283C16.9999 9.89589 16.9736 9.76446 16.9218 9.64258C16.87 9.52072 16.7933 9.41052 16.6972 9.31934C16.4988 9.12989 16.2352 9.02255 15.9609 9.02051Z" fill="white" fill-opacity="0.12"/>
</svg>
