<svg width="24" height="24" viewBox="0 0 24 24" fill="none" xmlns="http://www.w3.org/2000/svg">
<path fill-rule="evenodd" clip-rule="evenodd" d="M5 16.8879V18H19V16.9679L12.9859 12.3689L11.075 14.5982C10.7242 15.0075 10.1121 15.065 9.69109 14.7283L8.28474 13.6032L5 16.8879ZM21 16.4737V18.125V18.1579C21 19.077 20.3269 19.8389 19.4467 19.9775C19.382 19.9877 19.3161 19.9946 19.2489 19.9978C19.2188 19.9993 19.1884 20 19.1579 20H4.84211C4.79265 20 4.74364 19.9981 4.69517 19.9943C4.64471 19.9903 4.59495 19.9843 4.54595 19.9763C3.66939 19.8347 3 19.0745 3 18.1579V18.125V16.4737V5.875C3 4.87593 3.78897 4 4.84211 4H19.1579C20.2111 4 21 4.87594 21 5.875V16.4737ZM19 14.4501L13.4496 10.2057C13.028 9.88334 12.4282 9.94636 12.0828 10.3492L10.1856 12.5627L8.83522 11.4823C8.43733 11.164 7.86373 11.1958 7.50342 11.5561L5 14.0595V6H19V14.4501ZM10 9C10 7.89545 9.10455 7 8 7C6.89545 7 6 7.89545 6 9C6 10.1046 6.89545 11 8 11C9.10455 11 10 10.1046 10 9Z" fill="white" fill-opacity="0.8"/>
</svg>
